<?xml version="1.0" standalone="no"?>
<!DOCTYPE svg PUBLIC "-//W3C//DTD SVG 1.1//EN" "http://www.w3.org/Graphics/SVG/1.1/DTD/svg11.dtd" >
<svg>
<metadata>
Created by FontForge 20090622 at Wed Mar 21 08:08:53 2018
 By deploy user
Mathieu Reguer for Michelin
</metadata>
<defs>
<font id="Michelin-Bold" horiz-adv-x="830" >
  <font-face 
    font-family="Michelin"
    font-weight="700"
    font-style="italic"
    font-stretch="semi-condensed"
    units-per-em="1000"
    panose-1="2 0 0 0 0 0 0 0 0 0"
    ascent="750"
    descent="-250"
    x-height="720"
    cap-height="720"
    bbox="-223 -260 1856.1 941"
    underline-thickness="149"
    underline-position="-28"
    slope="-20"
    unicode-range="U+0020-U+F6C3"
  />
<missing-glyph horiz-adv-x="459" 
d="M-21 -170v900h501v-900h-501zM227 518q-204 0 -204 -175l141 -10q0 38 13.5 53t41.5 15q50 0 50 -36v-6q0 -24 -28 -34l-21 -9q-46 -18 -61 -47.5t-10 -98.5h119q0 28 7 37t39 24l35 15q77 36 77 129v6q0 62 -50 99.5t-149 37.5zM128 73q0 -35 22 -57.5t58 -22.5t57.5 22
t21.5 58t-21.5 58t-57.5 22t-58 -22t-22 -58z" />
    <glyph glyph-name=".notdef" horiz-adv-x="459" 
d="M-21 -170v900h501v-900h-501zM227 518q-204 0 -204 -175l141 -10q0 38 13.5 53t41.5 15q50 0 50 -36v-6q0 -24 -28 -34l-21 -9q-46 -18 -61 -47.5t-10 -98.5h119q0 28 7 37t39 24l35 15q77 36 77 129v6q0 62 -50 99.5t-149 37.5zM128 73q0 -35 22 -57.5t58 -22.5t57.5 22
t21.5 58t-21.5 58t-57.5 22t-58 -22t-22 -58z" />
    <glyph glyph-name=".null" horiz-adv-x="0" 
 />
    <glyph glyph-name="nonmarkingreturn" horiz-adv-x="333" 
 />
    <glyph glyph-name="space" unicode=" " horiz-adv-x="300" 
 />
    <glyph glyph-name="exclam" unicode="!" horiz-adv-x="393" 
d="M241 251h-174l89 340l47 129h250l-46 -129zM186 0h-239l63 172h238z" />
    <glyph glyph-name="quotedbl" unicode="&#x22;" horiz-adv-x="720" 
d="M622 441h-186l51 194l30 85h233l-30 -85zM337 441h-186l51 194l30 85h233l-30 -85z" />
    <glyph glyph-name="numbersign" unicode="#" 
d="M463 291l49 137h-143l-49 -137h143zM356 -1l58 159h-143l-58 -159h-183l58 159h-125l48 133h126l49 137h-122l48 133h123l58 159h183l-58 -159h143l58 159h183l-58 -159h125l-48 -133h-126l-49 -137h122l-48 -133h-123l-58 -159h-183z" />
    <glyph glyph-name="dollar" unicode="$" horiz-adv-x="831" 
d="M392 464l35 -4l39 108q-53 -3 -79.5 -13.5t-33.5 -31.5q-10 -26 -1 -39.5t40 -19.5zM442 273l-19 2l-44 -121q89 8 107 50q22 57 -44 69zM316 -18l-34 -92h-88l34 94q-152 8 -273 55l61 166q53 -23 127.5 -38.5t143.5 -15.5h2l50 135l-43 6q-132 16 -172.5 82t-3.5 168
q37 103 137 149.5t264 46.5h8l30 82h87l-31 -86q124 -10 234 -50l-59 -165q-105 45 -235 49l-44 -119l28 -4q91 -12 140.5 -50t55 -93t-18.5 -123q-42 -108 -140 -152.5t-260 -44.5z" />
    <glyph glyph-name="percent" unicode="%" horiz-adv-x="1369" 
d="M278 258q-144 0 -193.5 75.5t-4.5 193.5q42 111 105.5 158t181.5 47q143 0 192 -75t6 -194q-44 -111 -107 -158t-180 -47zM863 720h186l-541 -720h-187zM358 617q-35 0 -56 -24.5t-46 -92.5q-23 -63 -16 -95t48 -32q33 0 54 25t46 92q44 127 -30 127zM1005 -12
q-144 0 -193.5 75.5t-4.5 193.5q42 111 105.5 158t181.5 47q143 0 192 -75t6 -194q-44 -111 -107 -158t-180 -47zM1085 347q-35 0 -56 -24.5t-46 -92.5q-23 -63 -16 -95t48 -32q33 0 54 25t46 92q44 127 -30 127z" />
    <glyph glyph-name="ampersand" unicode="&#x26;" horiz-adv-x="986" 
d="M403 447l4 -3q41 15 61 31.5t28 38.5q13 37 -2.5 56.5t-53.5 19.5q-55 0 -70 -39q-20 -54 33 -104zM298 132q62 0 118 34l-122 116q-29 -10 -43.5 -23t-23.5 -38q-16 -43 5.5 -66t65.5 -23zM590 0l-57 54q-107 -72 -276 -72q-172 0 -239 69t-25 183q20 55 72.5 93
t134.5 53q-42 56 -49 108.5t17 115.5q49 133 287 133q145 0 207.5 -63.5t33.5 -152.5q-22 -67 -73.5 -104t-128.5 -60l75 -74l76 77h231l-189 -193l169 -167h-266z" />
    <glyph glyph-name="quotesingle" unicode="'" horiz-adv-x="392" 
d="M316 441h-186l51 194l30 85h233l-30 -85z" />
    <glyph glyph-name="parenleft" unicode="(" horiz-adv-x="515" 
d="M288 -150h-159q-79 110 -94 257t38 307q101 292 377 456h210q-132 -89 -227 -223.5t-147 -280.5q-45 -124 -45.5 -273t47.5 -243z" />
    <glyph glyph-name="parenright" unicode=")" horiz-adv-x="515" 
d="M230 870h159q79 -110 94 -257t-38 -306q-20 -58 -49.5 -114.5t-74 -117.5t-109.5 -119.5t-144 -105.5h-210q132 89 227 224t147 281q45 123 45.5 272t-47.5 243z" />
    <glyph glyph-name="asterisk" unicode="*" horiz-adv-x="546" 
d="M398 254l-78 132l-78 -132l-119 85l103 117l-151 33l45 139l142 -62l-15 154h147l-15 -154l141 62l46 -139l-151 -34l102 -116z" />
    <glyph glyph-name="plus" unicode="+" 
d="M677 285h-213l-78 -213h-150l78 213h-213l54 150h213l78 213h150l-78 -213h213z" />
    <glyph glyph-name="comma" unicode="," horiz-adv-x="394" 
d="M56 -107h-176l159 279h236z" />
    <glyph glyph-name="hyphen" unicode="-" horiz-adv-x="393" 
d="M-7 270l65 181h344l-66 -181h-343z" />
    <glyph glyph-name="period" unicode="." horiz-adv-x="393" 
d="M186 0h-239l63 172h238z" />
    <glyph glyph-name="slash" unicode="/" horiz-adv-x="617" 
d="M587 870h217l-772 -1020h-217z" />
    <glyph glyph-name="zero" unicode="0" horiz-adv-x="861" 
d="M360 -18q-93 0 -162.5 21.5t-110.5 60t-59.5 92t-13.5 117.5t32 136q67 178 169 253.5t288 75.5q115 0 194 -33t114 -90.5t38.5 -135.5t-32.5 -168q-68 -178 -169.5 -253.5t-287.5 -75.5zM490 560q-61 0 -97.5 -40.5t-76.5 -152.5q-39 -103 -25 -155t84 -52q59 0 95 41
t78 152q37 103 23.5 155t-81.5 52z" />
    <glyph glyph-name="one" unicode="1" horiz-adv-x="583" 
d="M369 0h-283l186 510l-233 -97l72 198l263 109h257z" />
    <glyph glyph-name="two" unicode="2" horiz-adv-x="760" 
d="M611 0h-703l41 107q17 46 37.5 71.5t57.5 44.5l296 158q32 18 50.5 29.5t38.5 31t27 39.5q15 41 -10.5 64t-106.5 23q-115 0 -243 -36l63 172q139 34 265 34q208 0 286 -70t31 -192q-9 -24 -22.5 -45t-25.5 -36.5t-36 -33.5l-38 -28t-49.5 -28.5l-52 -27t-62.5 -30.5
l-141 -73h360z" />
    <glyph glyph-name="three" unicode="3" horiz-adv-x="797" 
d="M274 -18q-194 0 -341 59l61 165q121 -54 265 -54q93 0 134 11t53 42q14 33 -5 53t-73 20h-235l50 143l294 125h-366l63 174h695l-39 -102q-18 -48 -38.5 -74.5t-54.5 -40.5l-228 -105q143 -3 191 -70t8 -175q-35 -92 -143 -131.5t-291 -39.5z" />
    <glyph glyph-name="four" unicode="4" horiz-adv-x="829" 
d="M431 319l109 299l-320 -299h211zM743 161h-101l-59 -161h-268l59 161h-414l72 195l332 297q71 67 129 67h352l-146 -401h102z" />
    <glyph glyph-name="five" unicode="5" horiz-adv-x="785" 
d="M269 -18q-195 0 -338 58l60 164q119 -52 263 -52q91 0 132 11.5t54 43.5q15 39 -8 60t-92 21q-132 0 -290 -10l159 442h643l-63 -173h-404l-36 -102q36 4 82 4q84 0 144 -15t93 -40.5t47.5 -61.5t11 -76.5t-21.5 -86.5q-39 -102 -147 -144.5t-289 -42.5z" />
    <glyph glyph-name="six" unicode="6" horiz-adv-x="829" 
d="M752 187q-41 -112 -131.5 -158.5t-267.5 -46.5q-232 0 -308.5 118t-4.5 317q66 181 190.5 251t336.5 70q178 0 314 -50l-58 -164q-102 45 -249 45q-107 0 -162 -27t-81 -89q82 20 159 20q164 0 237.5 -78t24.5 -208zM370 137q51 0 79.5 21.5t44.5 66.5q35 103 -91 103
q-58 0 -122 -19q-28 -91 -6.5 -131.5t95.5 -40.5z" />
    <glyph glyph-name="seven" unicode="7" horiz-adv-x="745" 
d="M280 0h-283l28 83q22 66 52.5 107.5t106.5 108.5l280 248h-391l63 173h725l-39 -102q-7 -17 -14 -30.5t-18.5 -27t-16.5 -18.5t-23 -20.5t-21 -18.5l-302 -267q-60 -52 -84 -84t-39 -78z" />
    <glyph glyph-name="eight" unicode="8" horiz-adv-x="840" 
d="M346 -17q-98 0 -171 12.5t-115 34.5t-65 53t-22.5 67.5t12.5 77.5q49 133 236 146q-66 16 -92.5 70t-1.5 125q34 95 125 132t248 37q206 0 287.5 -63.5t44.5 -172.5q-23 -67 -77 -107t-130 -48q77 -13 105.5 -70.5t-0.5 -131.5q-31 -85 -118.5 -123.5t-265.5 -38.5z
M442 407q50 0 75 17t42 61q16 44 -2 68.5t-72 24.5q-50 0 -75.5 -17t-41.5 -60q-17 -45 1.5 -69.5t72.5 -24.5zM351 141q51 0 79 17t44 59q37 101 -79 101q-51 0 -79.5 -17.5t-42.5 -57.5q-38 -102 78 -102z" />
    <glyph glyph-name="nine" unicode="9" horiz-adv-x="829" 
d="M428 392q59 0 123 19q28 91 6.5 131.5t-96.5 40.5q-50 0 -79.5 -21.5t-44.5 -66.5q-35 -103 91 -103zM265 -18q-177 0 -315 50l58 164q99 -44 250 -44q107 0 161 26.5t81 88.5q-82 -20 -158 -20q-165 0 -238 77.5t-25 208.5q42 112 132.5 158.5t267.5 46.5
q232 0 308.5 -118t3.5 -317q-66 -181 -190 -251t-336 -70z" />
    <glyph glyph-name="colon" unicode=":" horiz-adv-x="435" 
d="M327 328h-239l63 172h238zM207 0h-239l63 172h238z" />
    <glyph glyph-name="semicolon" unicode=";" horiz-adv-x="435" 
d="M327 328h-239l63 172h238zM77 -107h-176l159 279h236z" />
    <glyph glyph-name="less" unicode="&#x3c;" 
d="M603 83l-516 166l25 69l27 75l3 7l26 71l636 166l-57 -160l-471 -118l385 -118z" />
    <glyph glyph-name="equal" unicode="=" 
d="M147 413l54 150h577l-55 -150h-576zM54 158l55 150h576l-54 -150h-577z" />
    <glyph glyph-name="greater" unicode="&#x3e;" 
d="M27 83l58 160l470 118l-384 118l57 158l516 -166l-25 -69l-55 -153z" />
    <glyph glyph-name="question" unicode="?" horiz-adv-x="698" 
d="M447 487q15 41 -10.5 65.5t-112.5 24.5q-116 0 -216 -28l60 165q107 26 261 26q180 0 248 -77.5t22 -197.5q-60 -160 -295 -178l-85 -7l-16 -43h-191l60 170l141 12q63 5 92.5 19.5t41.5 48.5zM251 0h-238l63 172h237z" />
    <glyph glyph-name="at" unicode="@" horiz-adv-x="1032" 
d="M431 -20q-135 0 -228 32.5t-135 90t-47.5 136.5t32.5 173q66 179 196.5 253.5t355.5 74.5q111 0 193.5 -22.5t130 -60t71 -88.5t22 -105.5t-22.5 -112.5q-38 -101 -99 -151t-163 -50q-118 0 -145 73q-47 -37 -87 -53.5t-95 -16.5q-108 0 -145 63t-2 158
q37 103 111.5 145.5t181.5 42.5h259l-89 -244q-13 -40 -4 -55t40 -15q35 0 66 32t53 94q15 41 16.5 78.5t-14 74.5t-49.5 63.5t-97.5 43t-150.5 16.5q-167 0 -264 -57t-147 -195q-28 -73 -28.5 -131t28.5 -103.5t98 -69.5t177 -24q140 0 286 48l-36 -100q-124 -38 -269 -38z
M459 263q45 0 93 44l55 149h-58q-45 0 -73.5 -22t-46.5 -73q-19 -53 -12 -75.5t42 -22.5z" />
    <glyph glyph-name="A" unicode="A" horiz-adv-x="959" 
d="M571 298l7 295l-196 -295h189zM564 0l3 125h-299l-83 -125h-293l446 628q34 50 71.5 71t91.5 21h328v-720h-265z" />
    <glyph glyph-name="B" unicode="B" horiz-adv-x="950" 
d="M574 554h-135l-45 -123h128q51 0 77 13t37 44q24 66 -62 66zM502 295h-158l-47 -129h170q49 0 73.5 11t35.5 40q27 78 -74 78zM-46 0l262 720h503q134 0 187 -62.5t20 -154.5q-23 -64 -76 -101t-129 -45q79 -13 111 -71t3 -135q-29 -80 -102 -115.5t-209 -35.5h-570z" />
    <glyph glyph-name="C" unicode="C" horiz-adv-x="841" 
d="M833 510q-101 44 -224 44q-109 0 -179.5 -41.5t-107.5 -148.5q-36 -103 10.5 -150t170.5 -47q122 0 223 26l-68 -186q-96 -25 -237 -25q-254 0 -347 115.5t-18 318.5q33 91 88 155.5t127.5 100t153 51t178.5 15.5q157 0 294 -49z" />
    <glyph glyph-name="D" unicode="D" horiz-adv-x="960" 
d="M543 547h-107l-136 -373h113q88 0 139.5 40t87.5 139q36 95 13 144.5t-110 49.5zM-46 0l262 720h349q103 0 178.5 -20t119 -56t62.5 -87.5t14.5 -112t-30.5 -131.5q-61 -168 -184 -240.5t-314 -72.5h-457z" />
    <glyph glyph-name="E" unicode="E" horiz-adv-x="828" 
d="M-46 0l262 720h693l-60 -166h-410l-40 -110h369l-62 -166h-368l-41 -112h410l-60 -166h-693z" />
    <glyph glyph-name="F" unicode="F" horiz-adv-x="798" 
d="M692 238h-368l-87 -238h-283l262 720h693l-63 -173h-410l-49 -136h370z" />
    <glyph glyph-name="G" unicode="G" horiz-adv-x="921" 
d="M736 13q-126 -31 -309 -31q-258 0 -352 115t-19 319q33 91 88.5 155.5t129 100t154.5 51t180 15.5q159 0 309 -54l-64 -179q-111 49 -239 49q-111 0 -183 -41.5t-109 -148.5q-37 -106 5 -155t159 -49q24 0 37 1l64 178h267z" />
    <glyph glyph-name="H" unicode="H" horiz-adv-x="980" 
d="M483 0l98 270h-246l-98 -270h-283l262 720h283l-98 -269h246l98 269h283l-262 -720h-283z" />
    <glyph glyph-name="I" unicode="I" horiz-adv-x="451" 
d="M237 0h-283l262 720h283z" />
    <glyph glyph-name="J" unicode="J" horiz-adv-x="654" 
d="M258 274l163 446h283l-182 -502q-49 -134 -131 -185t-231 -51q-146 0 -254 44l66 180q73 -32 153 -32q97 0 133 100z" />
    <glyph glyph-name="K" unicode="K" horiz-adv-x="977" 
d="M547 0l-131 270h-81l-98 -270h-283l262 720h283l-98 -269h72l303 269h295l-415 -377l184 -343h-293z" />
    <glyph glyph-name="L" unicode="L" horiz-adv-x="767" 
d="M-46 0l262 720h283l-196 -539h371l-66 -181h-654z" />
    <glyph glyph-name="M" unicode="M" horiz-adv-x="1316" 
d="M391 0l2 532l-194 -532h-245l262 720h305q57 0 79.5 -28.5t21.5 -89.5l5 -315l299 433h438l-261 -720h-286l190 520l-372 -520h-244z" />
    <glyph glyph-name="N" unicode="N" horiz-adv-x="1059" 
d="M436 0l-45 527l-192 -527h-245l262 720h306q97 0 97 -109l45 -424l194 533h246l-262 -720h-406z" />
    <glyph glyph-name="O" unicode="O" horiz-adv-x="992" 
d="M412 -18q-133 0 -222 32.5t-127.5 89t-42.5 134t33 167.5q66 179 191 256t340 77q106 0 184 -21t124 -58.5t66.5 -90.5t15.5 -116t-32 -136q-67 -180 -191.5 -257t-338.5 -77zM440 160q85 0 137.5 39.5t90.5 142.5q39 106 12 162t-125 56q-86 0 -138.5 -39.5
t-89.5 -141.5q-79 -219 113 -219z" />
    <glyph glyph-name="P" unicode="P" horiz-adv-x="896" 
d="M520 554h-81l-80 -220h75q87 0 124 20.5t58 78.5q25 62 4 91.5t-100 29.5zM465 168h-167l-61 -168h-283l262 720h363q92 0 159 -16.5t106 -45t56 -70t14 -90t-24 -106.5q-25 -67 -65 -112t-96 -69t-118 -33.5t-146 -9.5z" />
    <glyph glyph-name="Q" unicode="Q" horiz-adv-x="992" 
d="M494 -251q-153 0 -208 57t-15 187q-89 16 -147 53.5t-82 92t-21 121.5t32 145q66 179 191 256t340 77q106 0 184 -21t124 -58.5t66.5 -90.5t15.5 -116t-32 -136q-62 -168 -174.5 -246t-298.5 -87q-12 -43 8.5 -61.5t74.5 -18.5q51 0 98 9l-54 -153q-44 -10 -102 -10z
M440 160q85 0 137.5 39.5t90.5 142.5q39 106 12 162t-125 56q-86 0 -138.5 -39.5t-89.5 -141.5q-79 -219 113 -219z" />
    <glyph glyph-name="R" unicode="R" horiz-adv-x="926" 
d="M524 554h-85l-66 -180h80q82 0 116 14t52 65q22 48 1 74.5t-98 26.5zM479 0l-76 208h-90l-76 -208h-283l262 720h385q206 0 277.5 -77.5t20.5 -218.5q-29 -80 -87.5 -120.5t-151.5 -53.5l110 -250h-291z" />
    <glyph glyph-name="S" unicode="S" horiz-adv-x="800" 
d="M301 -18q-219 0 -362 57l61 166q53 -23 127.5 -38.5t144.5 -15.5q78 0 113 11.5t48 41.5q22 55 -44 68l-109 19q-250 42 -175 251q37 103 136.5 149.5t264.5 46.5q179 0 327 -54l-59 -165q-118 50 -261 50q-67 0 -97.5 -10t-40.5 -36t-1.5 -39t40.5 -20l110 -19
q261 -43 176 -266q-41 -108 -139 -152.5t-260 -44.5z" />
    <glyph glyph-name="T" unicode="T" horiz-adv-x="776" 
d="M813 539h-214l-196 -539h-283l196 539h-221l66 181h718z" />
    <glyph glyph-name="U" unicode="U" horiz-adv-x="942" 
d="M1010 720l-151 -416q-65 -181 -177 -251.5t-315 -70.5q-213 0 -294.5 87t-26.5 237l151 414h283l-153 -423q-50 -133 86 -133q57 0 94.5 27t65.5 105l154 424h283z" />
    <glyph glyph-name="V" unicode="V" horiz-adv-x="964" 
d="M132 0v720h279l-6 -554l367 554h302l-446 -628q-35 -50 -71.5 -71t-88.5 -21h-336z" />
    <glyph glyph-name="W" unicode="W" horiz-adv-x="1473" 
d="M100 0l42 720h279l-45 -555l300 555h380l-75 -559l321 559h271l-380 -628q-53 -92 -167 -92h-309l66 538l-243 -446q-45 -92 -161 -92h-279z" />
    <glyph glyph-name="X" unicode="X" horiz-adv-x="945" 
d="M511 0l-72 242l-235 -242h-320l391 377l-120 343h281l72 -243l236 243h319l-392 -378l121 -342h-281z" />
    <glyph glyph-name="Y" unicode="Y" horiz-adv-x="946" 
d="M480 0h-283l97 265l-162 455h265l92 -264l271 264h318l-508 -473z" />
    <glyph glyph-name="Z" unicode="Z" horiz-adv-x="855" 
d="M682 0h-755l36 95q15 39 34.5 63.5t53.5 48.5l462 340h-369l63 173h720l-61 -162l-532 -384h411z" />
    <glyph glyph-name="bracketleft" unicode="[" horiz-adv-x="528" 
d="M-76 -149l371 1018h363l-54 -148h-164l-263 -722h162l-54 -148h-361z" />
    <glyph glyph-name="backslash" unicode="\" horiz-adv-x="561" 
d="M376 870v-1020h-189v1020h189z" />
    <glyph glyph-name="bracketright" unicode="]" horiz-adv-x="528" 
d="M-128 -149l54 148h165l262 722h-162l54 148h361l-370 -1018h-364z" />
    <glyph glyph-name="asciicircum" unicode="^" horiz-adv-x="771" 
d="M455 73l30 457l-350 -457h-172l448 574h221l-30 -574h-147z" />
    <glyph glyph-name="underscore" unicode="_" horiz-adv-x="700" 
d="M-210 -250l54 148h676l-54 -148h-676z" />
    <glyph glyph-name="grave" unicode="`" horiz-adv-x="860" 
d="M558 770l-129 161h263l98 -161h-232z" />
    <glyph glyph-name="a" unicode="a" horiz-adv-x="959" 
d="M571 298l7 295l-196 -295h189zM564 0l3 125h-299l-83 -125h-293l446 628q34 50 71.5 71t91.5 21h328v-720h-265z" />
    <glyph glyph-name="b" unicode="b" horiz-adv-x="950" 
d="M574 554h-135l-45 -123h128q51 0 77 13t37 44q24 66 -62 66zM502 295h-158l-47 -129h170q49 0 73.5 11t35.5 40q27 78 -74 78zM-46 0l262 720h503q134 0 187 -62.5t20 -154.5q-23 -64 -76 -101t-129 -45q79 -13 111 -71t3 -135q-29 -80 -102 -115.5t-209 -35.5h-570z" />
    <glyph glyph-name="c" unicode="c" horiz-adv-x="841" 
d="M833 510q-101 44 -224 44q-109 0 -179.5 -41.5t-107.5 -148.5q-36 -103 10.5 -150t170.5 -47q122 0 223 26l-68 -186q-96 -25 -237 -25q-254 0 -347 115.5t-18 318.5q33 91 88 155.5t127.5 100t153 51t178.5 15.5q157 0 294 -49z" />
    <glyph glyph-name="d" unicode="d" horiz-adv-x="960" 
d="M543 547h-107l-136 -373h113q88 0 139.5 40t87.5 139q36 95 13 144.5t-110 49.5zM-46 0l262 720h349q103 0 178.5 -20t119 -56t62.5 -87.5t14.5 -112t-30.5 -131.5q-61 -168 -184 -240.5t-314 -72.5h-457z" />
    <glyph glyph-name="e" unicode="e" horiz-adv-x="828" 
d="M-46 0l262 720h693l-60 -166h-410l-40 -110h369l-62 -166h-368l-41 -112h410l-60 -166h-693z" />
    <glyph glyph-name="f" unicode="f" horiz-adv-x="798" 
d="M692 238h-368l-87 -238h-283l262 720h693l-63 -173h-410l-49 -136h370z" />
    <glyph glyph-name="g" unicode="g" horiz-adv-x="921" 
d="M736 13q-126 -31 -309 -31q-258 0 -352 115t-19 319q33 91 88.5 155.5t129 100t154.5 51t180 15.5q159 0 309 -54l-64 -179q-111 49 -239 49q-111 0 -183 -41.5t-109 -148.5q-37 -106 5 -155t159 -49q24 0 37 1l64 178h267z" />
    <glyph glyph-name="h" unicode="h" horiz-adv-x="980" 
d="M483 0l98 270h-246l-98 -270h-283l262 720h283l-98 -269h246l98 269h283l-262 -720h-283z" />
    <glyph glyph-name="i" unicode="i" horiz-adv-x="451" 
d="M237 0h-283l262 720h283z" />
    <glyph glyph-name="j" unicode="j" horiz-adv-x="654" 
d="M258 274l163 446h283l-182 -502q-49 -134 -131 -185t-231 -51q-146 0 -254 44l66 180q73 -32 153 -32q97 0 133 100z" />
    <glyph glyph-name="k" unicode="k" horiz-adv-x="977" 
d="M547 0l-131 270h-81l-98 -270h-283l262 720h283l-98 -269h72l303 269h295l-415 -377l184 -343h-293z" />
    <glyph glyph-name="l" unicode="l" horiz-adv-x="764" 
d="M-46 0l262 720h283l-196 -539h371l-66 -181h-654z" />
    <glyph glyph-name="m" unicode="m" horiz-adv-x="1316" 
d="M391 0l2 532l-194 -532h-245l262 720h305q57 0 79.5 -28.5t21.5 -89.5l5 -315l299 433h438l-261 -720h-286l190 520l-372 -520h-244z" />
    <glyph glyph-name="n" unicode="n" horiz-adv-x="1059" 
d="M436 0l-45 527l-192 -527h-245l262 720h306q97 0 97 -109l45 -424l194 533h246l-262 -720h-406z" />
    <glyph glyph-name="o" unicode="o" horiz-adv-x="992" 
d="M412 -18q-133 0 -222 32.5t-127.5 89t-42.5 134t33 167.5q66 179 191 256t340 77q106 0 184 -21t124 -58.5t66.5 -90.5t15.5 -116t-32 -136q-67 -180 -191.5 -257t-338.5 -77zM440 160q85 0 137.5 39.5t90.5 142.5q39 106 12 162t-125 56q-86 0 -138.5 -39.5
t-89.5 -141.5q-79 -219 113 -219z" />
    <glyph glyph-name="p" unicode="p" horiz-adv-x="896" 
d="M520 554h-81l-80 -220h75q87 0 124 20.5t58 78.5q25 62 4 91.5t-100 29.5zM465 168h-167l-61 -168h-283l262 720h363q92 0 159 -16.5t106 -45t56 -70t14 -90t-24 -106.5q-25 -67 -65 -112t-96 -69t-118 -33.5t-146 -9.5z" />
    <glyph glyph-name="q" unicode="q" horiz-adv-x="992" 
d="M494 -251q-153 0 -208 57t-15 187q-89 16 -147 53.5t-82 92t-21 121.5t32 145q66 179 191 256t340 77q106 0 184 -21t124 -58.5t66.5 -90.5t15.5 -116t-32 -136q-62 -168 -174.5 -246t-298.5 -87q-12 -43 8.5 -61.5t74.5 -18.5q51 0 98 9l-54 -153q-44 -10 -102 -10z
M440 160q85 0 137.5 39.5t90.5 142.5q39 106 12 162t-125 56q-86 0 -138.5 -39.5t-89.5 -141.5q-79 -219 113 -219z" />
    <glyph glyph-name="r" unicode="r" horiz-adv-x="926" 
d="M524 554h-85l-66 -180h80q82 0 116 14t52 65q22 48 1 74.5t-98 26.5zM479 0l-76 208h-90l-76 -208h-283l262 720h385q206 0 277.5 -77.5t20.5 -218.5q-29 -80 -87.5 -120.5t-151.5 -53.5l110 -250h-291z" />
    <glyph glyph-name="s" unicode="s" horiz-adv-x="800" 
d="M301 -18q-219 0 -362 57l61 166q53 -23 127.5 -38.5t144.5 -15.5q78 0 113 11.5t48 41.5q22 55 -44 68l-109 19q-250 42 -175 251q37 103 136.5 149.5t264.5 46.5q179 0 327 -54l-59 -165q-118 50 -261 50q-67 0 -97.5 -10t-40.5 -36t-1.5 -39t40.5 -20l110 -19
q261 -43 176 -266q-41 -108 -139 -152.5t-260 -44.5z" />
    <glyph glyph-name="t" unicode="t" horiz-adv-x="771" 
d="M813 539h-214l-196 -539h-283l196 539h-221l66 181h718z" />
    <glyph glyph-name="u" unicode="u" horiz-adv-x="942" 
d="M1010 720l-151 -416q-65 -181 -177 -251.5t-315 -70.5q-213 0 -294.5 87t-26.5 237l151 414h283l-153 -423q-50 -133 86 -133q57 0 94.5 27t65.5 105l154 424h283z" />
    <glyph glyph-name="v" unicode="v" horiz-adv-x="964" 
d="M132 0v720h279l-6 -554l367 554h302l-446 -628q-35 -50 -71.5 -71t-88.5 -21h-336z" />
    <glyph glyph-name="w" unicode="w" horiz-adv-x="1473" 
d="M100 0l42 720h279l-45 -555l300 555h380l-75 -559l321 559h271l-380 -628q-53 -92 -167 -92h-309l66 538l-243 -446q-45 -92 -161 -92h-279z" />
    <glyph glyph-name="x" unicode="x" horiz-adv-x="945" 
d="M511 0l-72 242l-235 -242h-320l391 377l-120 343h281l72 -243l236 243h319l-392 -378l121 -342h-281z" />
    <glyph glyph-name="y" unicode="y" horiz-adv-x="946" 
d="M480 0h-283l97 265l-162 455h265l92 -264l271 264h318l-508 -473z" />
    <glyph glyph-name="z" unicode="z" horiz-adv-x="855" 
d="M682 0h-755l36 95q15 39 34.5 63.5t53.5 48.5l462 340h-369l63 173h720l-61 -162l-532 -384h411z" />
    <glyph glyph-name="braceleft" unicode="{" horiz-adv-x="589" 
d="M554 872q88 0 153 -23l-44 -128q-37 10 -83 10q-42 0 -61.5 -17.5t-36.5 -64.5l-41 -113q-30 -80 -61.5 -109t-104.5 -39q96 -49 46 -185l-51 -137q-16 -36 -7.5 -58t51.5 -22q31 0 85 3l-49 -129q-70 -8 -143 -8q-99 0 -133.5 63t4.5 166l66 181q13 34 3.5 47.5
t-45.5 13.5h-56l55 151h47q41 0 61 11.5t32 42.5l67 183q31 83 87.5 122t158.5 39z" />
    <glyph glyph-name="bar" unicode="|" horiz-adv-x="460" 
d="M318 870h198l-372 -1020h-198z" />
    <glyph glyph-name="braceright" unicode="}" horiz-adv-x="590" 
d="M38 -148q-82 0 -153 23l44 129q37 -10 84 -10q42 0 61 17.5t37 64.5l41 113q29 79 60.5 108t104.5 40q-95 49 -45 184l50 138q17 36 8.5 57.5t-51.5 21.5q-31 0 -85 -3l49 129q56 8 142 8q100 0 134 -62.5t-5 -166.5l-65 -181q-13 -34 -4 -47t46 -13h56l-55 -151h-47
q-41 0 -61.5 -11.5t-31.5 -42.5l-68 -184q-30 -83 -87 -122t-159 -39z" />
    <glyph glyph-name="asciitilde" unicode="~" horiz-adv-x="734" 
d="M652 336q-87 -98 -184 -98q-36 0 -68.5 12.5t-53 27t-47 27t-51.5 12.5q-50 0 -110 -66l-63 108q87 99 185 99q45 0 83.5 -20t71.5 -39.5t64 -19.5q49 0 111 66z" />
    <glyph glyph-name="exclamdown" unicode="&#xa1;" horiz-adv-x="393" 
d="M207 720h239l-63 -172h-238zM152 469h174l-89 -340l-47 -129h-250l46 129z" />
    <glyph glyph-name="cent" unicode="&#xa2;" 
d="M634 54q-90 -22 -194 -24l-51 -140h-88l52 143q-169 17 -237 116t-10 262q28 80 74.5 135.5t107.5 86.5t127.5 44t148.5 13q20 0 29 -1l48 131h87l-51 -139q77 -12 152 -39l-64 -179q-82 33 -152 41l-106 -289q108 2 195 25zM362 374q-25 -72 -10.5 -107t70.5 -46
l103 282q-61 -7 -101 -36.5t-62 -92.5z" />
    <glyph glyph-name="sterling" unicode="&#xa3;" 
d="M707 174l-63 -174h-702l51 140l64 18q44 12 66.5 31.5t36.5 58.5l1 4h-115l31 83h114l18 49h-115l30 83h114l11 30q44 119 135.5 181t250.5 62q158 0 268 -44l-66 -179q-70 31 -167 31q-57 0 -92 -19t-54 -62h196l-30 -83h-197l-18 -49h198l-31 -83h-200q-27 -51 -74 -78
h339z" />
    <glyph glyph-name="currency" unicode="&#xa4;" 
d="M498 73l-51 82q-35 -6 -75 -6q-65 0 -106 16l-124 -91l-74 116l105 77q-9 53 14 122q21 61 51 100l-39 62l130 94l49 -78q34 7 81 7q65 0 110 -17l125 92l73 -116l-109 -80q9 -51 -13 -118q-23 -63 -55 -103l42 -66zM388 257q43 0 68.5 20.5t44.5 74.5q35 114 -58 114
q-43 0 -69 -20.5t-44 -74.5q-35 -114 58 -114z" />
    <glyph glyph-name="yen" unicode="&#xa5;" 
d="M701 252h-193l-92 -252h-283l92 252h-195l31 83h195l18 49h-196l32 83h146l-99 253h249l63 -168l160 168h294l-278 -253h136l-32 -83h-192l-18 -49h193z" />
    <glyph glyph-name="brokenbar" unicode="&#xa6;" horiz-adv-x="470" 
d="M516 870l-147 -402h-198l147 402h198zM93 252h198l-147 -402h-198z" />
    <glyph glyph-name="section" unicode="&#xa7;" horiz-adv-x="670" 
d="M287 313l99 -18q35 20 44 57q11 45 -47 55l-98 18q-35 -19 -45 -57q-11 -45 47 -55zM219 -18q-147 0 -242 37l47 132q32 -14 89.5 -24t103.5 -10q54 0 74 6t26 22q9 26 -25 33l-92 17q-100 16 -132.5 62.5t-8.5 108.5q15 39 43.5 61.5t76.5 38.5q-63 51 -28 144
q23 65 95.5 96t204.5 31q146 0 242 -36l-47 -132q-32 14 -90 24t-103 10q-54 0 -74 -6t-26 -22q-9 -26 25 -33l92 -18q100 -16 132.5 -62t8.5 -108q-15 -40 -43 -62t-76 -39q61 -51 27 -144q-23 -65 -96 -96t-204 -31z" />
    <glyph glyph-name="dieresis" unicode="&#xa8;" horiz-adv-x="860" 
d="M819 780h-208l52 141h208zM557 780h-208l51 141h208z" />
    <glyph glyph-name="copyright" unicode="&#xa9;" horiz-adv-x="1032" 
d="M431 -20q-256 0 -353.5 119.5t-24.5 312.5q66 180 195 254t357 74q254 0 351.5 -119.5t26.5 -311.5q-68 -181 -197 -255t-355 -74zM450 70q168 0 263.5 56.5t147.5 194.5q124 329 -276 329q-169 0 -264 -56.5t-147 -194.5q-125 -329 276 -329zM757 439q-61 26 -140 26
q-64 0 -104 -22.5t-61 -82.5q-20 -57 7 -80.5t99 -23.5q70 0 139 15l-49 -133q-64 -15 -150 -15q-168 0 -228 72.5t-12 202.5q20 57 55 96.5t82.5 61.5t99.5 31.5t117 9.5q102 0 190 -30z" />
    <glyph glyph-name="ordfeminine" unicode="&#xaa;" horiz-adv-x="610" 
d="M404 458l6 178l-118 -178h112zM399 270l2 75h-183l-50 -75h-190l276 391q40 59 105 59h215l-3 -450h-172zM451 88h-477l41 113h477z" />
    <glyph glyph-name="guillemotleft" unicode="&#xab;" horiz-adv-x="782" 
d="M300 616h204l-238 -264l52 -248h-185l-73 261zM615 616h204l-238 -264l52 -248h-185l-73 261z" />
    <glyph glyph-name="logicalnot" unicode="&#xac;" 
d="M599 72h-150l77 213h-425l54 150h576z" />
    <glyph glyph-name="registered" unicode="&#xae;" horiz-adv-x="1032" 
d="M431 -20q-256 0 -353.5 119.5t-24.5 312.5q66 180 195 254t357 74q254 0 351.5 -119.5t26.5 -311.5q-68 -181 -197 -255t-355 -74zM450 70q168 0 263.5 56.5t147.5 194.5q124 329 -276 329q-169 0 -264 -56.5t-147 -194.5q-125 -329 276 -329zM572 491h-50l-40 -109h50
q40 0 58 10t29 40q20 59 -47 59zM532 151l-44 121h-46l-44 -121h-193l164 450h261q116 0 162 -56t14 -139q-19 -49 -55.5 -73t-97.5 -32l70 -150h-191z" />
    <glyph glyph-name="macron" unicode="&#xaf;" horiz-adv-x="860" 
d="M840 796h-508l41 114h508z" />
    <glyph glyph-name="degree" unicode="&#xb0;" horiz-adv-x="696" 
d="M347 265q-167 0 -222.5 73t-10.5 194q42 112 122 159t219 47q167 0 222.5 -73t10.5 -193q-42 -112 -122.5 -159.5t-218.5 -47.5zM366 380q54 0 86 23.5t55 86.5q46 133 -71 133q-54 0 -86 -23.5t-55 -86.5q-48 -133 71 -133z" />
    <glyph glyph-name="plusminus" unicode="&#xb1;" 
d="M711 380h-213l-43 -118h-150l43 118h-213l55 150h213l43 118h150l-43 -118h213zM23 72l55 150h576l-55 -150h-576z" />
    <glyph glyph-name="twosuperior" unicode="&#xb2;" horiz-adv-x="481" 
d="M485 405h-443l26 69q12 30 25 46.5t37 28.5l183 98q55 29 67 59q9 23 -6.5 36.5t-63.5 13.5q-77 0 -152 -22l41 112q91 21 167 21q132 0 181 -43.5t19 -120.5q-8 -21 -21.5 -39t-23 -28t-39.5 -27l-40 -22.5t-55 -27.5l-79 -41h218z" />
    <glyph glyph-name="threesuperior" unicode="&#xb3;" horiz-adv-x="504" 
d="M272 393q-122 0 -214 37l39 106q73 -32 165 -32q58 0 81.5 6t30.5 24q8 19 -2.5 30.5t-41.5 11.5h-149l34 93l179 74h-228l42 112h437l-25 -67q-12 -31 -25.5 -48.5t-35.5 -25.5l-135 -61q88 -2 117 -43.5t4 -109.5q-40 -107 -273 -107z" />
    <glyph glyph-name="acute" unicode="&#xb4;" horiz-adv-x="860" 
d="M618 770h-236l187 161h268z" />
    <glyph glyph-name="paragraph" unicode="&#xb6;" horiz-adv-x="745" 
d="M532 0h-131l262 720h131zM327 0h-131l109 299q-305 0 -218 243q36 97 110.5 137.5t186.5 40.5h205z" />
    <glyph glyph-name="periodcentered" unicode="&#xb7;" horiz-adv-x="393" 
d="M286 275h-239l63 172h238z" />
    <glyph glyph-name="cedilla" unicode="&#xb8;" horiz-adv-x="859" 
d="M91 -189l36 106q59 -17 100 -17t50 23q14 38 -40 86h150q39 -40 48 -76.5t-12 -84.5q-32 -69 -174 -69q-45 0 -90 9.5t-68 22.5z" />
    <glyph glyph-name="onesuperior" unicode="&#xb9;" horiz-adv-x="373" 
d="M338 405h-186l115 315l-143 -61l46 129l163 67h168z" />
    <glyph glyph-name="ordmasculine" unicode="&#xba;" horiz-adv-x="633" 
d="M312 255q-167 0 -222.5 73t-10.5 193q42 112 122 159.5t219 47.5q167 0 222 -73t11 -193q-43 -112 -123 -159.5t-218 -47.5zM331 369q53 0 85.5 24t55.5 86q46 134 -71 134q-54 0 -86 -23.5t-55 -86.5q-48 -134 71 -134zM457 88h-477l41 113h477z" />
    <glyph glyph-name="guillemotright" unicode="&#xbb;" horiz-adv-x="781" 
d="M485 104h-203l238 264l-53 248h186l73 -261zM170 104h-203l238 264l-53 248h186l73 -261z" />
    <glyph glyph-name="onequarter" unicode="&#xbc;" horiz-adv-x="1171" 
d="M717 720h186l-541 -720h-187zM289 270h-186l115 315l-143 -61l46 129l163 67h168zM874 201l66 181l-190 -181h124zM1074 98h-63l-35 -98h-175l36 98h-255l46 127l199 181q46 44 83 44h229l-90 -249h63z" />
    <glyph glyph-name="onehalf" unicode="&#xbd;" horiz-adv-x="1135" 
d="M692 720h186l-541 -720h-187zM289 270h-186l115 315l-143 -61l46 129l163 67h168zM992 0h-443l26 69q12 30 25 46.5t37 28.5l183 98q55 29 67 59q9 23 -6.5 36.5t-63.5 13.5q-77 0 -152 -22l41 112q91 21 167 21q132 0 181 -43.5t19 -120.5q-8 -21 -21.5 -39t-23 -28
t-39.5 -27l-40 -22.5t-55 -27.5l-79 -41h218z" />
    <glyph glyph-name="threequarters" unicode="&#xbe;" horiz-adv-x="1302" 
d="M846 720h186l-541 -720h-187zM223 258q-122 0 -214 37l39 106q73 -32 165 -32q58 0 81.5 6t30.5 24q8 19 -2.5 30.5t-41.5 11.5h-149l34 93l179 74h-228l42 112h437l-25 -67q-12 -31 -25.5 -48.5t-35.5 -25.5l-135 -61q88 -2 117 -43.5t4 -109.5q-40 -107 -273 -107z
M1005 201l66 181l-190 -181h124zM1205 98h-63l-35 -98h-175l36 98h-255l46 127l199 181q46 44 83 44h229l-90 -249h63z" />
    <glyph glyph-name="questiondown" unicode="&#xbf;" horiz-adv-x="698" 
d="M466 720h238l-63 -172h-237zM270 233q-15 -41 10.5 -65.5t112.5 -24.5q116 0 216 28l-60 -165q-107 -26 -261 -26q-180 0 -248 77.5t-22 197.5q60 160 295 178l85 7l16 43h191l-60 -170l-141 -12q-63 -5 -92.5 -19.5t-41.5 -48.5z" />
    <glyph glyph-name="Agrave" unicode="&#xc0;" horiz-adv-x="959" 
d="M529 770l-129 161h263l98 -161h-232zM571 298l7 295l-196 -295h189zM564 0l3 125h-299l-83 -125h-293l446 628q34 50 71.5 71t91.5 21h328v-720h-265z" />
    <glyph glyph-name="Aacute" unicode="&#xc1;" horiz-adv-x="959" 
d="M748 770h-236l187 161h268zM571 298l7 295l-196 -295h189zM564 0l3 125h-299l-83 -125h-293l446 628q34 50 71.5 71t91.5 21h328v-720h-265z" />
    <glyph glyph-name="Acircumflex" unicode="&#xc2;" horiz-adv-x="959" 
d="M692 770l-16 108l-96 -108h-222l162 161h339l43 -161h-210zM571 298l7 295l-196 -295h189zM564 0l3 125h-299l-83 -125h-293l446 628q34 50 71.5 71t91.5 21h328v-720h-265z" />
    <glyph glyph-name="Atilde" unicode="&#xc3;" horiz-adv-x="959" 
d="M358 770q35 103 72.5 136.5t114.5 33.5q44 0 85 -16t70.5 -32.5t47.5 -16.5q17 0 26 11t22 45h160q-35 -103 -72.5 -136.5t-114.5 -33.5q-45 0 -85.5 16.5t-69.5 33t-47 16.5q-17 0 -26.5 -11t-22.5 -46h-160zM571 298l7 295l-196 -295h189zM564 0l3 125h-299l-83 -125
h-293l446 628q34 50 71.5 71t91.5 21h328v-720h-265z" />
    <glyph glyph-name="Adieresis" unicode="&#xc4;" horiz-adv-x="959" 
d="M875 780h-208l52 141h208zM613 780h-208l51 141h208zM571 298l7 295l-196 -295h189zM564 0l3 125h-299l-83 -125h-293l446 628q34 50 71.5 71t91.5 21h328v-720h-265z" />
    <glyph glyph-name="Aring" unicode="&#xc5;" horiz-adv-x="959" 
d="M633 760q-136 0 -180.5 23.5t-25.5 78.5q17 45 78.5 62t170.5 17q136 0 181 -23.5t25 -77.5q-17 -46 -78 -63t-171 -17zM645 814q43 0 55 32q15 42 -35 42q-43 0 -56 -33q-14 -41 36 -41zM571 298l7 295l-196 -295h189zM564 0l3 125h-299l-83 -125h-293l446 628
q34 50 71.5 71t91.5 21h328v-720h-265z" />
    <glyph glyph-name="AE" unicode="&#xc6;" horiz-adv-x="1428" 
d="M676 338l100 274l-258 -274h158zM553 0l60 165h-258l-155 -165h-330l619 628q45 49 85.5 70.5t98.5 21.5h836l-61 -166h-410l-40 -110h369l-62 -166h-368l-41 -112h411l-60 -166h-694z" />
    <glyph glyph-name="Ccedilla" unicode="&#xc7;" horiz-adv-x="841" 
d="M267 -221q-45 0 -90 9.5t-68 22.5l36 106q59 -17 100 -17t50 23q12 34 -26 72q-167 33 -221.5 144t8.5 277q33 91 88 155.5t127.5 100t153 51t178.5 15.5q157 0 294 -49l-64 -179q-101 44 -224 44q-109 0 -179.5 -41.5t-107.5 -148.5q-36 -103 10.5 -150t170.5 -47
q122 0 223 26l-68 -186q-99 -25 -230 -25q47 -64 13 -134q-32 -69 -174 -69z" />
    <glyph glyph-name="Egrave" unicode="&#xc8;" horiz-adv-x="828" 
d="M466 770l-129 161h263l98 -161h-232zM-46 0l262 720h693l-60 -166h-410l-40 -110h369l-62 -166h-368l-41 -112h410l-60 -166h-693z" />
    <glyph glyph-name="Eacute" unicode="&#xc9;" horiz-adv-x="828" 
d="M685 770h-236l187 161h268zM-46 0l262 720h693l-60 -166h-410l-40 -110h369l-62 -166h-368l-41 -112h410l-60 -166h-693z" />
    <glyph glyph-name="Ecircumflex" unicode="&#xca;" horiz-adv-x="828" 
d="M628 770l-16 108l-96 -108h-222l162 161h339l43 -161h-210zM-46 0l262 720h693l-60 -166h-410l-40 -110h369l-62 -166h-368l-41 -112h410l-60 -166h-693z" />
    <glyph glyph-name="Edieresis" unicode="&#xcb;" horiz-adv-x="828" 
d="M812 780h-208l52 141h208zM550 780h-208l51 141h208zM-46 0l262 720h693l-60 -166h-410l-40 -110h369l-62 -166h-368l-41 -112h410l-60 -166h-693z" />
    <glyph glyph-name="Igrave" unicode="&#xcc;" horiz-adv-x="451" 
d="M268 770l-129 161h263l98 -161h-232zM237 0h-283l262 720h283z" />
    <glyph glyph-name="Iacute" unicode="&#xcd;" horiz-adv-x="451" 
d="M486 770h-236l187 161h268zM237 0h-283l262 720h283z" />
    <glyph glyph-name="Icircumflex" unicode="&#xce;" horiz-adv-x="451" 
d="M430 770l-16 108l-96 -108h-222l162 161h339l43 -161h-210zM237 0h-283l262 720h283z" />
    <glyph glyph-name="Idieresis" unicode="&#xcf;" horiz-adv-x="451" 
d="M614 780h-208l52 141h208zM352 780h-208l51 141h208zM237 0h-283l262 720h283z" />
    <glyph glyph-name="Eth" unicode="&#xd0;" horiz-adv-x="960" 
d="M487 307h-138l-49 -133h113q88 0 139.5 40t87.5 139q36 95 13 144.5t-110 49.5h-107l-46 -127h139zM-46 0l112 307h-84l41 113h84l109 300h349q103 0 178.5 -20t119 -56t62.5 -87.5t14.5 -112t-30.5 -131.5q-61 -168 -184 -240.5t-314 -72.5h-457z" />
    <glyph glyph-name="Ntilde" unicode="&#xd1;" horiz-adv-x="1059" 
d="M401 770q35 103 72.5 136.5t114.5 33.5q44 0 85 -16t70.5 -32.5t47.5 -16.5q17 0 26 11t22 45h160q-35 -103 -72.5 -136.5t-114.5 -33.5q-44 0 -85 16.5t-70 33t-47 16.5q-17 0 -26.5 -11t-22.5 -46h-160zM436 0l-45 527l-192 -527h-245l262 720h306q97 0 97 -109
l45 -424l194 533h246l-262 -720h-406z" />
    <glyph glyph-name="Ograve" unicode="&#xd2;" horiz-adv-x="992" 
d="M522 770l-129 161h263l98 -161h-232zM412 -18q-133 0 -222 32.5t-127.5 89t-42.5 134t33 167.5q66 179 191 256t340 77q106 0 184 -21t124 -58.5t66.5 -90.5t15.5 -116t-32 -136q-67 -180 -191.5 -257t-338.5 -77zM440 160q85 0 137.5 39.5t90.5 142.5q39 106 12 162
t-125 56q-86 0 -138.5 -39.5t-89.5 -141.5q-79 -219 113 -219z" />
    <glyph glyph-name="Oacute" unicode="&#xd3;" horiz-adv-x="992" 
d="M741 770h-236l187 161h268zM412 -18q-133 0 -222 32.5t-127.5 89t-42.5 134t33 167.5q66 179 191 256t340 77q106 0 184 -21t124 -58.5t66.5 -90.5t15.5 -116t-32 -136q-67 -180 -191.5 -257t-338.5 -77zM440 160q85 0 137.5 39.5t90.5 142.5q39 106 12 162t-125 56
q-86 0 -138.5 -39.5t-89.5 -141.5q-79 -219 113 -219z" />
    <glyph glyph-name="Ocircumflex" unicode="&#xd4;" horiz-adv-x="992" 
d="M685 770l-16 108l-96 -108h-222l162 161h339l43 -161h-210zM412 -18q-133 0 -222 32.5t-127.5 89t-42.5 134t33 167.5q66 179 191 256t340 77q106 0 184 -21t124 -58.5t66.5 -90.5t15.5 -116t-32 -136q-67 -180 -191.5 -257t-338.5 -77zM440 160q85 0 137.5 39.5
t90.5 142.5q39 106 12 162t-125 56q-86 0 -138.5 -39.5t-89.5 -141.5q-79 -219 113 -219z" />
    <glyph glyph-name="Otilde" unicode="&#xd5;" horiz-adv-x="992" 
d="M350 770q35 103 72.5 136.5t114.5 33.5q44 0 85 -16t70.5 -32.5t47.5 -16.5q17 0 26 11t22 45h160q-35 -103 -72.5 -136.5t-114.5 -33.5q-45 0 -85.5 16.5t-69.5 33t-47 16.5q-17 0 -26.5 -11t-22.5 -46h-160zM412 -18q-133 0 -222 32.5t-127.5 89t-42.5 134t33 167.5
q66 179 191 256t340 77q106 0 184 -21t124 -58.5t66.5 -90.5t15.5 -116t-32 -136q-67 -180 -191.5 -257t-338.5 -77zM440 160q85 0 137.5 39.5t90.5 142.5q39 106 12 162t-125 56q-86 0 -138.5 -39.5t-89.5 -141.5q-79 -219 113 -219z" />
    <glyph glyph-name="Odieresis" unicode="&#xd6;" horiz-adv-x="992" 
d="M868 780h-208l52 141h208zM606 780h-208l51 141h208zM412 -18q-133 0 -222 32.5t-127.5 89t-42.5 134t33 167.5q66 179 191 256t340 77q106 0 184 -21t124 -58.5t66.5 -90.5t15.5 -116t-32 -136q-67 -180 -191.5 -257t-338.5 -77zM440 160q85 0 137.5 39.5t90.5 142.5
q39 106 12 162t-125 56q-86 0 -138.5 -39.5t-89.5 -141.5q-79 -219 113 -219z" />
    <glyph glyph-name="multiply" unicode="&#xd7;" horiz-adv-x="829" 
d="M505 73l-112 179l-243 -178l-75 116l245 179l-114 182l131 94l114 -180l250 184l74 -116l-251 -184l116 -183z" />
    <glyph glyph-name="Oslash" unicode="&#xd8;" horiz-adv-x="992" 
d="M412 -18q-208 0 -308 79l-103 -61l-62 94l97 58q-39 102 17 253q66 179 191 256t340 77q207 0 307 -79l102 61l61 -94l-96 -57q40 -104 -16 -253q-67 -180 -191.5 -257t-338.5 -77zM327 379q-12 -33 -19 -66l357 212q-32 35 -110 35q-86 0 -138.5 -39.5t-89.5 -141.5z
M440 160q85 0 137.5 39.5t90.5 142.5q12 37 18 65l-357 -212q33 -35 111 -35z" />
    <glyph glyph-name="Ugrave" unicode="&#xd9;" horiz-adv-x="942" 
d="M513 770l-129 161h263l98 -161h-232zM1010 720l-151 -416q-65 -181 -177 -251.5t-315 -70.5q-213 0 -294.5 87t-26.5 237l151 414h283l-153 -423q-50 -133 86 -133q57 0 94.5 27t65.5 105l154 424h283z" />
    <glyph glyph-name="Uacute" unicode="&#xda;" horiz-adv-x="942" 
d="M732 770h-236l187 161h268zM1010 720l-151 -416q-65 -181 -177 -251.5t-315 -70.5q-213 0 -294.5 87t-26.5 237l151 414h283l-153 -423q-50 -133 86 -133q57 0 94.5 27t65.5 105l154 424h283z" />
    <glyph glyph-name="Ucircumflex" unicode="&#xdb;" horiz-adv-x="942" 
d="M676 770l-16 108l-96 -108h-222l162 161h339l43 -161h-210zM1010 720l-151 -416q-65 -181 -177 -251.5t-315 -70.5q-213 0 -294.5 87t-26.5 237l151 414h283l-153 -423q-50 -133 86 -133q57 0 94.5 27t65.5 105l154 424h283z" />
    <glyph glyph-name="Udieresis" unicode="&#xdc;" horiz-adv-x="942" 
d="M860 780h-208l52 141h208zM598 780h-208l51 141h208zM1010 720l-151 -416q-65 -181 -177 -251.5t-315 -70.5q-213 0 -294.5 87t-26.5 237l151 414h283l-153 -423q-50 -133 86 -133q57 0 94.5 27t65.5 105l154 424h283z" />
    <glyph glyph-name="Yacute" unicode="&#xdd;" horiz-adv-x="946" 
d="M714 770h-236l187 161h268zM480 0h-283l97 265l-162 455h265l92 -264l271 264h318l-508 -473z" />
    <glyph glyph-name="Thorn" unicode="&#xde;" horiz-adv-x="896" 
d="M487 467h-80l-80 -220h74q87 0 124.5 20.5t57.5 78.5q25 62 4 91.5t-100 29.5zM432 81h-166l-29 -81h-283l262 720h283l-32 -87h79q92 0 159.5 -16.5t106 -45t56 -70t14 -90t-24.5 -106.5q-25 -67 -64.5 -112t-95.5 -69t-118 -33.5t-147 -9.5z" />
    <glyph glyph-name="germandbls" unicode="&#xdf;" horiz-adv-x="1600" 
d="M1101 -18q-219 0 -362 57l61 166q53 -23 127.5 -38.5t144.5 -15.5q78 0 113 11.5t48 41.5q22 55 -44 68l-109 19q-250 42 -175 251q37 103 136.5 149.5t264.5 46.5q179 0 327 -54l-59 -165q-118 50 -261 50q-67 0 -97.5 -10t-40.5 -36t-1.5 -39t40.5 -20l110 -19
q261 -43 176 -266q-41 -108 -139 -152.5t-260 -44.5zM301 -18q-219 0 -362 57l61 166q53 -23 127.5 -38.5t144.5 -15.5q78 0 113 11.5t48 41.5q22 55 -44 68l-109 19q-250 42 -175 251q37 103 136.5 149.5t264.5 46.5q179 0 327 -54l-59 -165q-118 50 -261 50
q-67 0 -97.5 -10t-40.5 -36t-1.5 -39t40.5 -20l110 -19q261 -43 176 -266q-41 -108 -139 -152.5t-260 -44.5z" />
    <glyph glyph-name="agrave" unicode="&#xe0;" horiz-adv-x="959" 
d="M529 770l-129 161h263l98 -161h-232zM571 298l7 295l-196 -295h189zM564 0l3 125h-299l-83 -125h-293l446 628q34 50 71.5 71t91.5 21h328v-720h-265z" />
    <glyph glyph-name="aacute" unicode="&#xe1;" horiz-adv-x="959" 
d="M748 770h-236l187 161h268zM571 298l7 295l-196 -295h189zM564 0l3 125h-299l-83 -125h-293l446 628q34 50 71.5 71t91.5 21h328v-720h-265z" />
    <glyph glyph-name="acircumflex" unicode="&#xe2;" horiz-adv-x="959" 
d="M692 770l-16 108l-96 -108h-222l162 161h339l43 -161h-210zM571 298l7 295l-196 -295h189zM564 0l3 125h-299l-83 -125h-293l446 628q34 50 71.5 71t91.5 21h328v-720h-265z" />
    <glyph glyph-name="atilde" unicode="&#xe3;" horiz-adv-x="959" 
d="M358 770q35 103 72.5 136.5t114.5 33.5q44 0 85 -16t70.5 -32.5t47.5 -16.5q17 0 26 11t22 45h160q-35 -103 -72.5 -136.5t-114.5 -33.5q-45 0 -85.5 16.5t-69.5 33t-47 16.5q-17 0 -26.5 -11t-22.5 -46h-160zM571 298l7 295l-196 -295h189zM564 0l3 125h-299l-83 -125
h-293l446 628q34 50 71.5 71t91.5 21h328v-720h-265z" />
    <glyph glyph-name="adieresis" unicode="&#xe4;" horiz-adv-x="959" 
d="M875 780h-208l52 141h208zM613 780h-208l51 141h208zM571 298l7 295l-196 -295h189zM564 0l3 125h-299l-83 -125h-293l446 628q34 50 71.5 71t91.5 21h328v-720h-265z" />
    <glyph glyph-name="aring" unicode="&#xe5;" horiz-adv-x="959" 
d="M633 760q-136 0 -180.5 23.5t-25.5 78.5q17 45 78.5 62t170.5 17q136 0 181 -23.5t25 -77.5q-17 -46 -78 -63t-171 -17zM645 814q43 0 55 32q15 42 -35 42q-43 0 -56 -33q-14 -41 36 -41zM571 298l7 295l-196 -295h189zM564 0l3 125h-299l-83 -125h-293l446 628
q34 50 71.5 71t91.5 21h328v-720h-265z" />
    <glyph glyph-name="ae" unicode="&#xe6;" horiz-adv-x="1428" 
d="M676 338l100 274l-258 -274h158zM553 0l60 165h-258l-155 -165h-330l619 628q45 49 85.5 70.5t98.5 21.5h836l-61 -166h-410l-40 -110h369l-62 -166h-368l-41 -112h411l-60 -166h-694z" />
    <glyph glyph-name="ccedilla" unicode="&#xe7;" horiz-adv-x="841" 
d="M267 -221q-45 0 -90 9.5t-68 22.5l36 106q59 -17 100 -17t50 23q12 34 -26 72q-167 33 -221.5 144t8.5 277q33 91 88 155.5t127.5 100t153 51t178.5 15.5q157 0 294 -49l-64 -179q-101 44 -224 44q-109 0 -179.5 -41.5t-107.5 -148.5q-36 -103 10.5 -150t170.5 -47
q122 0 223 26l-68 -186q-99 -25 -230 -25q47 -64 13 -134q-32 -69 -174 -69z" />
    <glyph glyph-name="egrave" unicode="&#xe8;" horiz-adv-x="828" 
d="M466 770l-129 161h263l98 -161h-232zM-46 0l262 720h693l-60 -166h-410l-40 -110h369l-62 -166h-368l-41 -112h410l-60 -166h-693z" />
    <glyph glyph-name="eacute" unicode="&#xe9;" horiz-adv-x="828" 
d="M685 770h-236l187 161h268zM-46 0l262 720h693l-60 -166h-410l-40 -110h369l-62 -166h-368l-41 -112h410l-60 -166h-693z" />
    <glyph glyph-name="ecircumflex" unicode="&#xea;" horiz-adv-x="828" 
d="M628 770l-16 108l-96 -108h-222l162 161h339l43 -161h-210zM-46 0l262 720h693l-60 -166h-410l-40 -110h369l-62 -166h-368l-41 -112h410l-60 -166h-693z" />
    <glyph glyph-name="edieresis" unicode="&#xeb;" horiz-adv-x="828" 
d="M812 780h-208l52 141h208zM550 780h-208l51 141h208zM-46 0l262 720h693l-60 -166h-410l-40 -110h369l-62 -166h-368l-41 -112h410l-60 -166h-693z" />
    <glyph glyph-name="igrave" unicode="&#xec;" horiz-adv-x="451" 
d="M268 770l-129 161h263l98 -161h-232zM237 0h-283l262 720h283z" />
    <glyph glyph-name="iacute" unicode="&#xed;" horiz-adv-x="451" 
d="M486 770h-236l187 161h268zM237 0h-283l262 720h283z" />
    <glyph glyph-name="icircumflex" unicode="&#xee;" horiz-adv-x="451" 
d="M430 770l-16 108l-96 -108h-222l162 161h339l43 -161h-210zM237 0h-283l262 720h283z" />
    <glyph glyph-name="idieresis" unicode="&#xef;" horiz-adv-x="451" 
d="M614 780h-208l52 141h208zM352 780h-208l51 141h208zM237 0h-283l262 720h283z" />
    <glyph glyph-name="eth" unicode="&#xf0;" horiz-adv-x="960" 
d="M487 307h-138l-49 -133h113q88 0 139.5 40t87.5 139q36 95 13 144.5t-110 49.5h-107l-46 -127h139zM-46 0l112 307h-84l41 113h84l109 300h349q103 0 178.5 -20t119 -56t62.5 -87.5t14.5 -112t-30.5 -131.5q-61 -168 -184 -240.5t-314 -72.5h-457z" />
    <glyph glyph-name="ntilde" unicode="&#xf1;" horiz-adv-x="1059" 
d="M401 770q35 103 72.5 136.5t114.5 33.5q44 0 85 -16t70.5 -32.5t47.5 -16.5q17 0 26 11t22 45h160q-35 -103 -72.5 -136.5t-114.5 -33.5q-44 0 -85 16.5t-70 33t-47 16.5q-17 0 -26.5 -11t-22.5 -46h-160zM436 0l-45 527l-192 -527h-245l262 720h306q97 0 97 -109
l45 -424l194 533h246l-262 -720h-406z" />
    <glyph glyph-name="ograve" unicode="&#xf2;" horiz-adv-x="992" 
d="M522 770l-129 161h263l98 -161h-232zM412 -18q-133 0 -222 32.5t-127.5 89t-42.5 134t33 167.5q66 179 191 256t340 77q106 0 184 -21t124 -58.5t66.5 -90.5t15.5 -116t-32 -136q-67 -180 -191.5 -257t-338.5 -77zM440 160q85 0 137.5 39.5t90.5 142.5q39 106 12 162
t-125 56q-86 0 -138.5 -39.5t-89.5 -141.5q-79 -219 113 -219z" />
    <glyph glyph-name="oacute" unicode="&#xf3;" horiz-adv-x="992" 
d="M741 770h-236l187 161h268zM412 -18q-133 0 -222 32.5t-127.5 89t-42.5 134t33 167.5q66 179 191 256t340 77q106 0 184 -21t124 -58.5t66.5 -90.5t15.5 -116t-32 -136q-67 -180 -191.5 -257t-338.5 -77zM440 160q85 0 137.5 39.5t90.5 142.5q39 106 12 162t-125 56
q-86 0 -138.5 -39.5t-89.5 -141.5q-79 -219 113 -219z" />
    <glyph glyph-name="ocircumflex" unicode="&#xf4;" horiz-adv-x="992" 
d="M685 770l-16 108l-96 -108h-222l162 161h339l43 -161h-210zM412 -18q-133 0 -222 32.5t-127.5 89t-42.5 134t33 167.5q66 179 191 256t340 77q106 0 184 -21t124 -58.5t66.5 -90.5t15.5 -116t-32 -136q-67 -180 -191.5 -257t-338.5 -77zM440 160q85 0 137.5 39.5
t90.5 142.5q39 106 12 162t-125 56q-86 0 -138.5 -39.5t-89.5 -141.5q-79 -219 113 -219z" />
    <glyph glyph-name="otilde" unicode="&#xf5;" horiz-adv-x="992" 
d="M350 770q35 103 72.5 136.5t114.5 33.5q44 0 85 -16t70.5 -32.5t47.5 -16.5q17 0 26 11t22 45h160q-35 -103 -72.5 -136.5t-114.5 -33.5q-45 0 -85.5 16.5t-69.5 33t-47 16.5q-17 0 -26.5 -11t-22.5 -46h-160zM412 -18q-133 0 -222 32.5t-127.5 89t-42.5 134t33 167.5
q66 179 191 256t340 77q106 0 184 -21t124 -58.5t66.5 -90.5t15.5 -116t-32 -136q-67 -180 -191.5 -257t-338.5 -77zM440 160q85 0 137.5 39.5t90.5 142.5q39 106 12 162t-125 56q-86 0 -138.5 -39.5t-89.5 -141.5q-79 -219 113 -219z" />
    <glyph glyph-name="odieresis" unicode="&#xf6;" horiz-adv-x="992" 
d="M868 780h-208l52 141h208zM606 780h-208l51 141h208zM412 -18q-133 0 -222 32.5t-127.5 89t-42.5 134t33 167.5q66 179 191 256t340 77q106 0 184 -21t124 -58.5t66.5 -90.5t15.5 -116t-32 -136q-67 -180 -191.5 -257t-338.5 -77zM440 160q85 0 137.5 39.5t90.5 142.5
q39 106 12 162t-125 56q-86 0 -138.5 -39.5t-89.5 -141.5q-79 -219 113 -219z" />
    <glyph glyph-name="divide" unicode="&#xf7;" 
d="M443 648h156l-49 -132h-155zM101 285l54 150h576l-54 -150h-576zM282 205h155l-48 -133h-156z" />
    <glyph glyph-name="oslash" unicode="&#xf8;" horiz-adv-x="992" 
d="M412 -18q-208 0 -308 79l-103 -61l-62 94l97 58q-39 102 17 253q66 179 191 256t340 77q207 0 307 -79l102 61l61 -94l-96 -57q40 -104 -16 -253q-67 -180 -191.5 -257t-338.5 -77zM327 379q-12 -33 -19 -66l357 212q-32 35 -110 35q-86 0 -138.5 -39.5t-89.5 -141.5z
M440 160q85 0 137.5 39.5t90.5 142.5q12 37 18 65l-357 -212q33 -35 111 -35z" />
    <glyph glyph-name="ugrave" unicode="&#xf9;" horiz-adv-x="942" 
d="M513 770l-129 161h263l98 -161h-232zM1010 720l-151 -416q-65 -181 -177 -251.5t-315 -70.5q-213 0 -294.5 87t-26.5 237l151 414h283l-153 -423q-50 -133 86 -133q57 0 94.5 27t65.5 105l154 424h283z" />
    <glyph glyph-name="uacute" unicode="&#xfa;" horiz-adv-x="942" 
d="M732 770h-236l187 161h268zM1010 720l-151 -416q-65 -181 -177 -251.5t-315 -70.5q-213 0 -294.5 87t-26.5 237l151 414h283l-153 -423q-50 -133 86 -133q57 0 94.5 27t65.5 105l154 424h283z" />
    <glyph glyph-name="ucircumflex" unicode="&#xfb;" horiz-adv-x="942" 
d="M676 770l-16 108l-96 -108h-222l162 161h339l43 -161h-210zM1010 720l-151 -416q-65 -181 -177 -251.5t-315 -70.5q-213 0 -294.5 87t-26.5 237l151 414h283l-153 -423q-50 -133 86 -133q57 0 94.5 27t65.5 105l154 424h283z" />
    <glyph glyph-name="udieresis" unicode="&#xfc;" horiz-adv-x="942" 
d="M860 780h-208l52 141h208zM598 780h-208l51 141h208zM1010 720l-151 -416q-65 -181 -177 -251.5t-315 -70.5q-213 0 -294.5 87t-26.5 237l151 414h283l-153 -423q-50 -133 86 -133q57 0 94.5 27t65.5 105l154 424h283z" />
    <glyph glyph-name="yacute" unicode="&#xfd;" horiz-adv-x="946" 
d="M714 770h-236l187 161h268zM480 0h-283l97 265l-162 455h265l92 -264l271 264h318l-508 -473z" />
    <glyph glyph-name="thorn" unicode="&#xfe;" horiz-adv-x="896" 
d="M487 467h-80l-80 -220h74q87 0 124.5 20.5t57.5 78.5q25 62 4 91.5t-100 29.5zM432 81h-166l-29 -81h-283l262 720h283l-32 -87h79q92 0 159.5 -16.5t106 -45t56 -70t14 -90t-24.5 -106.5q-25 -67 -64.5 -112t-95.5 -69t-118 -33.5t-147 -9.5z" />
    <glyph glyph-name="ydieresis" unicode="&#xff;" horiz-adv-x="946" 
d="M842 780h-208l52 141h208zM580 780h-208l51 141h208zM480 0h-283l97 265l-162 455h265l92 -264l271 264h318l-508 -473z" />
    <glyph glyph-name="Amacron" unicode="&#x100;" horiz-adv-x="959" 
d="M897 796h-508l41 114h508zM571 298l7 295l-196 -295h189zM564 0l3 125h-299l-83 -125h-293l446 628q34 50 71.5 71t91.5 21h328v-720h-265z" />
    <glyph glyph-name="amacron" unicode="&#x101;" horiz-adv-x="959" 
d="M897 796h-508l41 114h508zM571 298l7 295l-196 -295h189zM564 0l3 125h-299l-83 -125h-293l446 628q34 50 71.5 71t91.5 21h328v-720h-265z" />
    <glyph glyph-name="Abreve" unicode="&#x102;" horiz-adv-x="959" 
d="M647 931q-28 -79 23 -79q52 0 81 79h184q-35 -95 -104 -133t-194 -38q-121 0 -162.5 41.5t-10.5 129.5h183zM571 298l7 295l-196 -295h189zM564 0l3 125h-299l-83 -125h-293l446 628q34 50 71.5 71t91.5 21h328v-720h-265z" />
    <glyph glyph-name="abreve" unicode="&#x103;" horiz-adv-x="959" 
d="M647 931q-28 -79 23 -79q52 0 81 79h184q-35 -95 -104 -133t-194 -38q-121 0 -162.5 41.5t-10.5 129.5h183zM571 298l7 295l-196 -295h189zM564 0l3 125h-299l-83 -125h-293l446 628q34 50 71.5 71t91.5 21h328v-720h-265z" />
    <glyph glyph-name="Aogonek" unicode="&#x104;" horiz-adv-x="959" 
d="M571 298l7 295l-196 -295h189zM752 -203q-67 -18 -137 -18q-103 0 -143.5 32.5t-20.5 87.5q22 59 113 102l3 124h-299l-83 -125h-293l446 628q34 50 71.5 71t91.5 21h328v-720h-101q-58 -38 -67 -66q-7 -24 6.5 -34.5t49.5 -10.5q25 0 72 7z" />
    <glyph glyph-name="aogonek" unicode="&#x105;" horiz-adv-x="959" 
d="M571 298l7 295l-196 -295h189zM752 -203q-67 -18 -137 -18q-103 0 -143.5 32.5t-20.5 87.5q22 59 113 102l3 124h-299l-83 -125h-293l446 628q34 50 71.5 71t91.5 21h328v-720h-101q-58 -38 -67 -66q-7 -24 6.5 -34.5t49.5 -10.5q25 0 72 7z" />
    <glyph glyph-name="Cacute" unicode="&#x106;" horiz-adv-x="841" 
d="M699 770h-236l187 161h268zM833 510q-101 44 -224 44q-109 0 -179.5 -41.5t-107.5 -148.5q-36 -103 10.5 -150t170.5 -47q122 0 223 26l-68 -186q-96 -25 -237 -25q-254 0 -347 115.5t-18 318.5q33 91 88 155.5t127.5 100t153 51t178.5 15.5q157 0 294 -49z" />
    <glyph glyph-name="cacute" unicode="&#x107;" horiz-adv-x="841" 
d="M699 770h-236l187 161h268zM833 510q-101 44 -224 44q-109 0 -179.5 -41.5t-107.5 -148.5q-36 -103 10.5 -150t170.5 -47q122 0 223 26l-68 -186q-96 -25 -237 -25q-254 0 -347 115.5t-18 318.5q33 91 88 155.5t127.5 100t153 51t178.5 15.5q157 0 294 -49z" />
    <glyph glyph-name="Ccircumflex" unicode="&#x108;" horiz-adv-x="841" 
d="M643 770l-16 108l-96 -108h-222l162 161h339l43 -161h-210zM833 510q-101 44 -224 44q-109 0 -179.5 -41.5t-107.5 -148.5q-36 -103 10.5 -150t170.5 -47q122 0 223 26l-68 -186q-96 -25 -237 -25q-254 0 -347 115.5t-18 318.5q33 91 88 155.5t127.5 100t153 51
t178.5 15.5q157 0 294 -49z" />
    <glyph glyph-name="ccircumflex" unicode="&#x109;" horiz-adv-x="841" 
d="M643 770l-16 108l-96 -108h-222l162 161h339l43 -161h-210zM833 510q-101 44 -224 44q-109 0 -179.5 -41.5t-107.5 -148.5q-36 -103 10.5 -150t170.5 -47q122 0 223 26l-68 -186q-96 -25 -237 -25q-254 0 -347 115.5t-18 318.5q33 91 88 155.5t127.5 100t153 51
t178.5 15.5q157 0 294 -49z" />
    <glyph glyph-name="Cdotaccent" unicode="&#x10a;" horiz-adv-x="841" 
d="M749 780h-283l52 141h283zM833 510q-101 44 -224 44q-109 0 -179.5 -41.5t-107.5 -148.5q-36 -103 10.5 -150t170.5 -47q122 0 223 26l-68 -186q-96 -25 -237 -25q-254 0 -347 115.5t-18 318.5q33 91 88 155.5t127.5 100t153 51t178.5 15.5q157 0 294 -49z" />
    <glyph glyph-name="cdotaccent" unicode="&#x10b;" horiz-adv-x="841" 
d="M749 780h-283l52 141h283zM833 510q-101 44 -224 44q-109 0 -179.5 -41.5t-107.5 -148.5q-36 -103 10.5 -150t170.5 -47q122 0 223 26l-68 -186q-96 -25 -237 -25q-254 0 -347 115.5t-18 318.5q33 91 88 155.5t127.5 100t153 51t178.5 15.5q157 0 294 -49z" />
    <glyph glyph-name="Ccaron" unicode="&#x10c;" horiz-adv-x="841" 
d="M421 770l-43 161h211l15 -108l96 108h222l-162 -161h-339zM833 510q-101 44 -224 44q-109 0 -179.5 -41.5t-107.5 -148.5q-36 -103 10.5 -150t170.5 -47q122 0 223 26l-68 -186q-96 -25 -237 -25q-254 0 -347 115.5t-18 318.5q33 91 88 155.5t127.5 100t153 51
t178.5 15.5q157 0 294 -49z" />
    <glyph glyph-name="ccaron" unicode="&#x10d;" horiz-adv-x="841" 
d="M421 770l-43 161h211l15 -108l96 108h222l-162 -161h-339zM833 510q-101 44 -224 44q-109 0 -179.5 -41.5t-107.5 -148.5q-36 -103 10.5 -150t170.5 -47q122 0 223 26l-68 -186q-96 -25 -237 -25q-254 0 -347 115.5t-18 318.5q33 91 88 155.5t127.5 100t153 51
t178.5 15.5q157 0 294 -49z" />
    <glyph glyph-name="Dcaron" unicode="&#x10e;" horiz-adv-x="960" 
d="M435 770l-43 161h211l15 -108l96 108h222l-162 -161h-339zM543 547h-107l-136 -373h113q88 0 139.5 40t87.5 139q36 95 13 144.5t-110 49.5zM-46 0l262 720h349q103 0 178.5 -20t119 -56t62.5 -87.5t14.5 -112t-30.5 -131.5q-61 -168 -184 -240.5t-314 -72.5h-457z" />
    <glyph glyph-name="dcaron" unicode="&#x10f;" horiz-adv-x="960" 
d="M435 770l-43 161h211l15 -108l96 108h222l-162 -161h-339zM543 547h-107l-136 -373h113q88 0 139.5 40t87.5 139q36 95 13 144.5t-110 49.5zM-46 0l262 720h349q103 0 178.5 -20t119 -56t62.5 -87.5t14.5 -112t-30.5 -131.5q-61 -168 -184 -240.5t-314 -72.5h-457z" />
    <glyph glyph-name="Dcroat" unicode="&#x110;" horiz-adv-x="960" 
d="M487 307h-138l-49 -133h113q88 0 139.5 40t87.5 139q36 95 13 144.5t-110 49.5h-107l-46 -127h139zM-46 0l112 307h-84l41 113h84l109 300h349q103 0 178.5 -20t119 -56t62.5 -87.5t14.5 -112t-30.5 -131.5q-61 -168 -184 -240.5t-314 -72.5h-457z" />
    <glyph glyph-name="dcroat" unicode="&#x111;" horiz-adv-x="960" 
d="M487 307h-138l-49 -133h113q88 0 139.5 40t87.5 139q36 95 13 144.5t-110 49.5h-107l-46 -127h139zM-46 0l112 307h-84l41 113h84l109 300h349q103 0 178.5 -20t119 -56t62.5 -87.5t14.5 -112t-30.5 -131.5q-61 -168 -184 -240.5t-314 -72.5h-457z" />
    <glyph glyph-name="Emacron" unicode="&#x112;" horiz-adv-x="828" 
d="M833 796h-508l41 114h508zM-46 0l262 720h693l-60 -166h-410l-40 -110h369l-62 -166h-368l-41 -112h410l-60 -166h-693z" />
    <glyph glyph-name="emacron" unicode="&#x113;" horiz-adv-x="828" 
d="M833 796h-508l41 114h508zM-46 0l262 720h693l-60 -166h-410l-40 -110h369l-62 -166h-368l-41 -112h410l-60 -166h-693z" />
    <glyph glyph-name="Ebreve" unicode="&#x114;" horiz-adv-x="828" 
d="M584 931q-28 -79 23 -79q52 0 81 79h184q-35 -95 -104 -133t-194 -38q-121 0 -162.5 41.5t-10.5 129.5h183zM-46 0l262 720h693l-60 -166h-410l-40 -110h369l-62 -166h-368l-41 -112h410l-60 -166h-693z" />
    <glyph glyph-name="ebreve" unicode="&#x115;" horiz-adv-x="828" 
d="M584 931q-28 -79 23 -79q52 0 81 79h184q-35 -95 -104 -133t-194 -38q-121 0 -162.5 41.5t-10.5 129.5h183zM-46 0l262 720h693l-60 -166h-410l-40 -110h369l-62 -166h-368l-41 -112h410l-60 -166h-693z" />
    <glyph glyph-name="Edotaccent" unicode="&#x116;" horiz-adv-x="828" 
d="M718 780h-283l52 141h283zM-46 0l262 720h693l-60 -166h-410l-40 -110h369l-62 -166h-368l-41 -112h410l-60 -166h-693z" />
    <glyph glyph-name="edotaccent" unicode="&#x117;" horiz-adv-x="828" 
d="M718 780h-283l52 141h283zM-46 0l262 720h693l-60 -166h-410l-40 -110h369l-62 -166h-368l-41 -112h410l-60 -166h-693z" />
    <glyph glyph-name="Eogonek" unicode="&#x118;" horiz-adv-x="828" 
d="M579 -203q-67 -18 -137 -18q-103 0 -143.5 32.5t-20.5 87.5q20 57 111 101h-435l262 720h693l-60 -166h-410l-40 -110h369l-62 -166h-368l-41 -112h410l-60 -166h-92q-58 -38 -67 -66q-7 -24 6.5 -34.5t49.5 -10.5q25 0 72 7z" />
    <glyph glyph-name="eogonek" unicode="&#x119;" horiz-adv-x="828" 
d="M579 -203q-67 -18 -137 -18q-103 0 -143.5 32.5t-20.5 87.5q20 57 111 101h-435l262 720h693l-60 -166h-410l-40 -110h369l-62 -166h-368l-41 -112h410l-60 -166h-92q-58 -38 -67 -66q-7 -24 6.5 -34.5t49.5 -10.5q25 0 72 7z" />
    <glyph glyph-name="Ecaron" unicode="&#x11a;" horiz-adv-x="828" 
d="M406 770l-43 161h211l15 -108l96 108h222l-162 -161h-339zM-46 0l262 720h693l-60 -166h-410l-40 -110h369l-62 -166h-368l-41 -112h410l-60 -166h-693z" />
    <glyph glyph-name="ecaron" unicode="&#x11b;" horiz-adv-x="828" 
d="M406 770l-43 161h211l15 -108l96 108h222l-162 -161h-339zM-46 0l262 720h693l-60 -166h-410l-40 -110h369l-62 -166h-368l-41 -112h410l-60 -166h-693z" />
    <glyph glyph-name="Gcircumflex" unicode="&#x11c;" horiz-adv-x="921" 
d="M667 770l-16 108l-96 -108h-222l162 161h339l43 -161h-210zM736 13q-126 -31 -309 -31q-258 0 -352 115t-19 319q33 91 88.5 155.5t129 100t154.5 51t180 15.5q159 0 309 -54l-64 -179q-111 49 -239 49q-111 0 -183 -41.5t-109 -148.5q-37 -106 5 -155t159 -49q24 0 37 1
l64 178h267z" />
    <glyph glyph-name="gcircumflex" unicode="&#x11d;" horiz-adv-x="921" 
d="M667 770l-16 108l-96 -108h-222l162 161h339l43 -161h-210zM736 13q-126 -31 -309 -31q-258 0 -352 115t-19 319q33 91 88.5 155.5t129 100t154.5 51t180 15.5q159 0 309 -54l-64 -179q-111 49 -239 49q-111 0 -183 -41.5t-109 -148.5q-37 -106 5 -155t159 -49q24 0 37 1
l64 178h267z" />
    <glyph glyph-name="Gbreve" unicode="&#x11e;" horiz-adv-x="921" 
d="M622 931q-28 -79 23 -79q52 0 81 79h184q-35 -95 -104 -133t-194 -38q-121 0 -162.5 41.5t-10.5 129.5h183zM736 13q-126 -31 -309 -31q-258 0 -352 115t-19 319q33 91 88.5 155.5t129 100t154.5 51t180 15.5q159 0 309 -54l-64 -179q-111 49 -239 49q-111 0 -183 -41.5
t-109 -148.5q-37 -106 5 -155t159 -49q24 0 37 1l64 178h267z" />
    <glyph glyph-name="gbreve" unicode="&#x11f;" horiz-adv-x="921" 
d="M622 931q-28 -79 23 -79q52 0 81 79h184q-35 -95 -104 -133t-194 -38q-121 0 -162.5 41.5t-10.5 129.5h183zM736 13q-126 -31 -309 -31q-258 0 -352 115t-19 319q33 91 88.5 155.5t129 100t154.5 51t180 15.5q159 0 309 -54l-64 -179q-111 49 -239 49q-111 0 -183 -41.5
t-109 -148.5q-37 -106 5 -155t159 -49q24 0 37 1l64 178h267z" />
    <glyph glyph-name="Gdotaccent" unicode="&#x120;" horiz-adv-x="921" 
d="M756 780h-283l52 141h283zM736 13q-126 -31 -309 -31q-258 0 -352 115t-19 319q33 91 88.5 155.5t129 100t154.5 51t180 15.5q159 0 309 -54l-64 -179q-111 49 -239 49q-111 0 -183 -41.5t-109 -148.5q-37 -106 5 -155t159 -49q24 0 37 1l64 178h267z" />
    <glyph glyph-name="gdotaccent" unicode="&#x121;" horiz-adv-x="921" 
d="M756 780h-283l52 141h283zM736 13q-126 -31 -309 -31q-258 0 -352 115t-19 319q33 91 88.5 155.5t129 100t154.5 51t180 15.5q159 0 309 -54l-64 -179q-111 49 -239 49q-111 0 -183 -41.5t-109 -148.5q-37 -106 5 -155t159 -49q24 0 37 1l64 178h267z" />
    <glyph glyph-name="Gcommaaccent" unicode="&#x122;" horiz-adv-x="921" 
d="M736 13q-126 -31 -309 -31q-258 0 -352 115t-19 319q33 91 88.5 155.5t129 100t154.5 51t180 15.5q159 0 309 -54l-64 -179q-111 49 -239 49q-111 0 -183 -41.5t-109 -148.5q-37 -106 5 -155t159 -49q24 0 37 1l64 178h267zM346 -211h-232l166 161h268z" />
    <glyph glyph-name="gcommaaccent" unicode="&#x123;" horiz-adv-x="921" 
d="M736 13q-126 -31 -309 -31q-258 0 -352 115t-19 319q33 91 88.5 155.5t129 100t154.5 51t180 15.5q159 0 309 -54l-64 -179q-111 49 -239 49q-111 0 -183 -41.5t-109 -148.5q-37 -106 5 -155t159 -49q24 0 37 1l64 178h267zM346 -211h-232l166 161h268z" />
    <glyph glyph-name="Hcircumflex" unicode="&#x124;" horiz-adv-x="980" 
d="M696 770l-16 108l-96 -108h-222l162 161h339l43 -161h-210zM483 0l98 270h-246l-98 -270h-283l262 720h283l-98 -269h246l98 269h283l-262 -720h-283z" />
    <glyph glyph-name="hcircumflex" unicode="&#x125;" horiz-adv-x="980" 
d="M696 770l-16 108l-96 -108h-222l162 161h339l43 -161h-210zM483 0l98 270h-246l-98 -270h-283l262 720h283l-98 -269h246l98 269h283l-262 -720h-283z" />
    <glyph glyph-name="Hbar" unicode="&#x126;" horiz-adv-x="980" 
d="M647 451l30 83h-246l-30 -83h246zM483 0l98 270h-246l-98 -270h-283l194 534h-83l41 114h84l26 72h283l-26 -72h246l26 72h283l-26 -72h84l-41 -114h-85l-194 -534h-283z" />
    <glyph glyph-name="hbar" unicode="&#x127;" horiz-adv-x="980" 
d="M647 451l30 83h-246l-30 -83h246zM483 0l98 270h-246l-98 -270h-283l194 534h-83l41 114h84l26 72h283l-26 -72h246l26 72h283l-26 -72h84l-41 -114h-85l-194 -534h-283z" />
    <glyph glyph-name="Itilde" unicode="&#x128;" horiz-adv-x="451" 
d="M96 770q35 103 72.5 136.5t114.5 33.5q44 0 85 -16t70.5 -32.5t47.5 -16.5q17 0 26 11t22 45h160q-35 -103 -72.5 -136.5t-114.5 -33.5q-45 0 -85.5 16.5t-69.5 33t-47 16.5q-17 0 -26.5 -11t-22.5 -46h-160zM237 0h-283l262 720h283z" />
    <glyph glyph-name="itilde" unicode="&#x129;" horiz-adv-x="451" 
d="M96 770q35 103 72.5 136.5t114.5 33.5q44 0 85 -16t70.5 -32.5t47.5 -16.5q17 0 26 11t22 45h160q-35 -103 -72.5 -136.5t-114.5 -33.5q-45 0 -85.5 16.5t-69.5 33t-47 16.5q-17 0 -26.5 -11t-22.5 -46h-160zM237 0h-283l262 720h283z" />
    <glyph glyph-name="Imacron" unicode="&#x12a;" horiz-adv-x="451" 
d="M635 796h-508l41 114h508zM237 0h-283l262 720h283z" />
    <glyph glyph-name="imacron" unicode="&#x12b;" horiz-adv-x="451" 
d="M635 796h-508l41 114h508zM237 0h-283l262 720h283z" />
    <glyph glyph-name="Ibreve" unicode="&#x12c;" horiz-adv-x="451" 
d="M386 931q-28 -79 23 -79q52 0 81 79h184q-35 -95 -104 -133t-194 -38q-121 0 -162.5 41.5t-10.5 129.5h183zM237 0h-283l262 720h283z" />
    <glyph glyph-name="ibreve" unicode="&#x12d;" horiz-adv-x="451" 
d="M386 931q-28 -79 23 -79q52 0 81 79h184q-35 -95 -104 -133t-194 -38q-121 0 -162.5 41.5t-10.5 129.5h183zM237 0h-283l262 720h283z" />
    <glyph glyph-name="Iogonek" unicode="&#x12e;" horiz-adv-x="451" 
d="M209 -203q-67 -18 -137 -18q-103 0 -143.5 32.5t-20.5 87.5q20 57 111 101h-65l262 720h283l-262 -720h-52q-58 -38 -67 -66q-7 -24 6.5 -34.5t49.5 -10.5q25 0 72 7z" />
    <glyph glyph-name="iogonek" unicode="&#x12f;" horiz-adv-x="451" 
d="M209 -203q-67 -18 -137 -18q-103 0 -143.5 32.5t-20.5 87.5q20 57 111 101h-65l262 720h283l-262 -720h-52q-58 -38 -67 -66q-7 -24 6.5 -34.5t49.5 -10.5q25 0 72 7z" />
    <glyph glyph-name="Idotaccent" unicode="&#x130;" horiz-adv-x="451" 
d="M520 780h-283l52 141h283zM237 0h-283l262 720h283z" />
    <glyph glyph-name="dotlessi" unicode="&#x131;" horiz-adv-x="451" 
d="M237 0h-283l262 720h283z" />
    <glyph glyph-name="IJ" unicode="&#x132;" horiz-adv-x="1104" 
d="M237 0h-283l262 720h283zM709 274l163 446h283l-182 -502q-49 -134 -131 -185t-231 -51q-146 0 -254 44l66 180q73 -32 153 -32q97 0 133 100z" />
    <glyph glyph-name="ij" unicode="&#x133;" horiz-adv-x="1104" 
d="M237 0h-283l262 720h283zM709 274l163 446h283l-182 -502q-49 -134 -131 -185t-231 -51q-146 0 -254 44l66 180q73 -32 153 -32q97 0 133 100z" />
    <glyph glyph-name="Jcircumflex" unicode="&#x134;" horiz-adv-x="654" 
d="M637 770l-16 108l-96 -108h-222l162 161h339l43 -161h-210zM258 274l163 446h283l-182 -502q-49 -134 -131 -185t-231 -51q-146 0 -254 44l66 180q73 -32 153 -32q97 0 133 100z" />
    <glyph glyph-name="jcircumflex" unicode="&#x135;" horiz-adv-x="654" 
d="M637 770l-16 108l-96 -108h-222l162 161h339l43 -161h-210zM258 274l163 446h283l-182 -502q-49 -134 -131 -185t-231 -51q-146 0 -254 44l66 180q73 -32 153 -32q97 0 133 100z" />
    <glyph glyph-name="Kcommaaccent" unicode="&#x136;" horiz-adv-x="977" 
d="M547 0l-131 270h-81l-98 -270h-283l262 720h283l-98 -269h72l303 269h295l-415 -377l184 -343h-293zM312 -211h-232l166 161h268z" />
    <glyph glyph-name="kcommaaccent" unicode="&#x137;" horiz-adv-x="977" 
d="M547 0l-131 270h-81l-98 -270h-283l262 720h283l-98 -269h72l303 269h295l-415 -377l184 -343h-293zM312 -211h-232l166 161h268z" />
    <glyph glyph-name="Lacute" unicode="&#x139;" horiz-adv-x="764" 
d="M499 770h-236l187 161h268zM-46 0l262 720h283l-196 -539h371l-66 -181h-654z" />
    <glyph glyph-name="lacute" unicode="&#x13a;" horiz-adv-x="764" 
d="M499 770h-236l187 161h268zM-46 0l262 720h283l-196 -539h371l-66 -181h-654z" />
    <glyph glyph-name="Lcommaaccent" unicode="&#x13b;" horiz-adv-x="764" 
d="M-46 0l262 720h283l-196 -539h371l-66 -181h-654zM235 -211h-232l166 161h268z" />
    <glyph glyph-name="lcommaaccent" unicode="&#x13c;" horiz-adv-x="764" 
d="M-46 0l262 720h283l-196 -539h371l-66 -181h-654zM235 -211h-232l166 161h268z" />
    <glyph glyph-name="Lcaron" unicode="&#x13d;" horiz-adv-x="764" 
d="M621 441h-174l158 279h231zM-46 0l262 720h283l-196 -539h371l-66 -181h-654z" />
    <glyph glyph-name="lcaron" unicode="&#x13e;" horiz-adv-x="764" 
d="M621 441h-174l158 279h231zM-46 0l262 720h283l-196 -539h371l-66 -181h-654z" />
    <glyph glyph-name="Ldot" unicode="&#x13f;" horiz-adv-x="764" 
d="M722 342h-239l63 172h238zM-46 0l262 720h283l-196 -539h371l-66 -181h-654z" />
    <glyph glyph-name="ldot" unicode="&#x140;" horiz-adv-x="764" 
d="M722 342h-239l63 172h238zM-46 0l262 720h283l-196 -539h371l-66 -181h-654z" />
    <glyph glyph-name="Lslash" unicode="&#x141;" horiz-adv-x="764" 
d="M-46 0l101 277l-116 -41l50 139l116 40l111 305h283l-78 -216l180 64l-49 -138l-182 -63l-67 -186h371l-66 -181h-654z" />
    <glyph glyph-name="lslash" unicode="&#x142;" horiz-adv-x="764" 
d="M-46 0l101 277l-116 -41l50 139l116 40l111 305h283l-78 -216l180 64l-49 -138l-182 -63l-67 -186h371l-66 -181h-654z" />
    <glyph glyph-name="Nacute" unicode="&#x143;" horiz-adv-x="1059" 
d="M791 770h-236l187 161h268zM436 0l-45 527l-192 -527h-245l262 720h306q97 0 97 -109l45 -424l194 533h246l-262 -720h-406z" />
    <glyph glyph-name="nacute" unicode="&#x144;" horiz-adv-x="1059" 
d="M791 770h-236l187 161h268zM436 0l-45 527l-192 -527h-245l262 720h306q97 0 97 -109l45 -424l194 533h246l-262 -720h-406z" />
    <glyph glyph-name="Ncommaaccent" unicode="&#x145;" horiz-adv-x="1059" 
d="M436 0l-45 527l-192 -527h-245l262 720h306q97 0 97 -109l45 -424l194 533h246l-262 -720h-406zM359 -211h-232l166 161h268z" />
    <glyph glyph-name="ncommaaccent" unicode="&#x146;" horiz-adv-x="1059" 
d="M436 0l-45 527l-192 -527h-245l262 720h306q97 0 97 -109l45 -424l194 533h246l-262 -720h-406zM359 -211h-232l166 161h268z" />
    <glyph glyph-name="Ncaron" unicode="&#x147;" horiz-adv-x="1059" 
d="M513 770l-43 161h211l15 -108l96 108h222l-162 -161h-339zM436 0l-45 527l-192 -527h-245l262 720h306q97 0 97 -109l45 -424l194 533h246l-262 -720h-406z" />
    <glyph glyph-name="ncaron" unicode="&#x148;" horiz-adv-x="1059" 
d="M513 770l-43 161h211l15 -108l96 108h222l-162 -161h-339zM436 0l-45 527l-192 -527h-245l262 720h306q97 0 97 -109l45 -424l194 533h246l-262 -720h-406z" />
    <glyph glyph-name="Eng" unicode="&#x14a;" horiz-adv-x="1059" 
d="M517 -260q-118 0 -200 34l66 180q69 -23 112 -23q77 0 93 46l8 23l-199 542l-198 -542h-245l262 720h266q52 0 77 -21.5t46 -87.5l107 -293l146 402h246l-287 -788q-68 -192 -300 -192z" />
    <glyph glyph-name="eng" unicode="&#x14b;" horiz-adv-x="1059" 
d="M517 -260q-118 0 -200 34l66 180q69 -23 112 -23q77 0 93 46l8 23l-199 542l-198 -542h-245l262 720h266q52 0 77 -21.5t46 -87.5l107 -293l146 402h246l-287 -788q-68 -192 -300 -192z" />
    <glyph glyph-name="Omacron" unicode="&#x14c;" horiz-adv-x="992" 
d="M889 796h-508l41 114h508zM412 -18q-133 0 -222 32.5t-127.5 89t-42.5 134t33 167.5q66 179 191 256t340 77q106 0 184 -21t124 -58.5t66.5 -90.5t15.5 -116t-32 -136q-67 -180 -191.5 -257t-338.5 -77zM440 160q85 0 137.5 39.5t90.5 142.5q39 106 12 162t-125 56
q-86 0 -138.5 -39.5t-89.5 -141.5q-79 -219 113 -219z" />
    <glyph glyph-name="omacron" unicode="&#x14d;" horiz-adv-x="992" 
d="M889 796h-508l41 114h508zM412 -18q-133 0 -222 32.5t-127.5 89t-42.5 134t33 167.5q66 179 191 256t340 77q106 0 184 -21t124 -58.5t66.5 -90.5t15.5 -116t-32 -136q-67 -180 -191.5 -257t-338.5 -77zM440 160q85 0 137.5 39.5t90.5 142.5q39 106 12 162t-125 56
q-86 0 -138.5 -39.5t-89.5 -141.5q-79 -219 113 -219z" />
    <glyph glyph-name="Obreve" unicode="&#x14e;" horiz-adv-x="992" 
d="M640 931q-28 -79 23 -79q52 0 81 79h184q-35 -95 -104 -133t-194 -38q-121 0 -162.5 41.5t-10.5 129.5h183zM412 -18q-133 0 -222 32.5t-127.5 89t-42.5 134t33 167.5q66 179 191 256t340 77q106 0 184 -21t124 -58.5t66.5 -90.5t15.5 -116t-32 -136
q-67 -180 -191.5 -257t-338.5 -77zM440 160q85 0 137.5 39.5t90.5 142.5q39 106 12 162t-125 56q-86 0 -138.5 -39.5t-89.5 -141.5q-79 -219 113 -219z" />
    <glyph glyph-name="obreve" unicode="&#x14f;" horiz-adv-x="992" 
d="M640 931q-28 -79 23 -79q52 0 81 79h184q-35 -95 -104 -133t-194 -38q-121 0 -162.5 41.5t-10.5 129.5h183zM412 -18q-133 0 -222 32.5t-127.5 89t-42.5 134t33 167.5q66 179 191 256t340 77q106 0 184 -21t124 -58.5t66.5 -90.5t15.5 -116t-32 -136
q-67 -180 -191.5 -257t-338.5 -77zM440 160q85 0 137.5 39.5t90.5 142.5q39 106 12 162t-125 56q-86 0 -138.5 -39.5t-89.5 -141.5q-79 -219 113 -219z" />
    <glyph glyph-name="Ohungarumlaut" unicode="&#x150;" horiz-adv-x="992" 
d="M890 770h-213l187 161h245zM578 770h-213l186 161h246zM412 -18q-133 0 -222 32.5t-127.5 89t-42.5 134t33 167.5q66 179 191 256t340 77q106 0 184 -21t124 -58.5t66.5 -90.5t15.5 -116t-32 -136q-67 -180 -191.5 -257t-338.5 -77zM440 160q85 0 137.5 39.5t90.5 142.5
q39 106 12 162t-125 56q-86 0 -138.5 -39.5t-89.5 -141.5q-79 -219 113 -219z" />
    <glyph glyph-name="ohungarumlaut" unicode="&#x151;" horiz-adv-x="992" 
d="M890 770h-213l187 161h245zM578 770h-213l186 161h246zM412 -18q-133 0 -222 32.5t-127.5 89t-42.5 134t33 167.5q66 179 191 256t340 77q106 0 184 -21t124 -58.5t66.5 -90.5t15.5 -116t-32 -136q-67 -180 -191.5 -257t-338.5 -77zM440 160q85 0 137.5 39.5t90.5 142.5
q39 106 12 162t-125 56q-86 0 -138.5 -39.5t-89.5 -141.5q-79 -219 113 -219z" />
    <glyph glyph-name="OE" unicode="&#x152;" horiz-adv-x="1336" 
d="M417 174h108l136 373h-114q-89 0 -140.5 -40t-86.5 -140q-35 -95 -12.5 -144t109.5 -49zM395 0q-103 0 -178.5 20t-119 56t-62.5 87.5t-14.5 112.5t30.5 132q61 167 184 239.5t314 72.5h869l-61 -166h-410l-40 -110h369l-62 -166h-368l-41 -112h411l-60 -166h-761z" />
    <glyph glyph-name="oe" unicode="&#x153;" horiz-adv-x="1336" 
d="M417 174h108l136 373h-114q-89 0 -140.5 -40t-86.5 -140q-35 -95 -12.5 -144t109.5 -49zM395 0q-103 0 -178.5 20t-119 56t-62.5 87.5t-14.5 112.5t30.5 132q61 167 184 239.5t314 72.5h869l-61 -166h-410l-40 -110h369l-62 -166h-368l-41 -112h411l-60 -166h-761z" />
    <glyph glyph-name="Racute" unicode="&#x154;" horiz-adv-x="926" 
d="M693 770h-236l187 161h268zM524 554h-85l-66 -180h80q82 0 116 14t52 65q22 48 1 74.5t-98 26.5zM479 0l-76 208h-90l-76 -208h-283l262 720h385q206 0 277.5 -77.5t20.5 -218.5q-29 -80 -87.5 -120.5t-151.5 -53.5l110 -250h-291z" />
    <glyph glyph-name="racute" unicode="&#x155;" horiz-adv-x="926" 
d="M693 770h-236l187 161h268zM524 554h-85l-66 -180h80q82 0 116 14t52 65q22 48 1 74.5t-98 26.5zM479 0l-76 208h-90l-76 -208h-283l262 720h385q206 0 277.5 -77.5t20.5 -218.5q-29 -80 -87.5 -120.5t-151.5 -53.5l110 -250h-291z" />
    <glyph glyph-name="Rcommaaccent" unicode="&#x156;" horiz-adv-x="926" 
d="M524 554h-85l-66 -180h80q82 0 116 14t52 65q22 48 1 74.5t-98 26.5zM479 0l-76 208h-90l-76 -208h-283l262 720h385q206 0 277.5 -77.5t20.5 -218.5q-29 -80 -87.5 -120.5t-151.5 -53.5l110 -250h-291zM279 -211h-232l166 161h268z" />
    <glyph glyph-name="rcommaaccent" unicode="&#x157;" horiz-adv-x="926" 
d="M524 554h-85l-66 -180h80q82 0 116 14t52 65q22 48 1 74.5t-98 26.5zM479 0l-76 208h-90l-76 -208h-283l262 720h385q206 0 277.5 -77.5t20.5 -218.5q-29 -80 -87.5 -120.5t-151.5 -53.5l110 -250h-291zM279 -211h-232l166 161h268z" />
    <glyph glyph-name="Rcaron" unicode="&#x158;" horiz-adv-x="926" 
d="M415 770l-43 161h211l15 -108l96 108h222l-162 -161h-339zM524 554h-85l-66 -180h80q82 0 116 14t52 65q22 48 1 74.5t-98 26.5zM479 0l-76 208h-90l-76 -208h-283l262 720h385q206 0 277.5 -77.5t20.5 -218.5q-29 -80 -87.5 -120.5t-151.5 -53.5l110 -250h-291z" />
    <glyph glyph-name="rcaron" unicode="&#x159;" horiz-adv-x="926" 
d="M415 770l-43 161h211l15 -108l96 108h222l-162 -161h-339zM524 554h-85l-66 -180h80q82 0 116 14t52 65q22 48 1 74.5t-98 26.5zM479 0l-76 208h-90l-76 -208h-283l262 720h385q206 0 277.5 -77.5t20.5 -218.5q-29 -80 -87.5 -120.5t-151.5 -53.5l110 -250h-291z" />
    <glyph glyph-name="Sacute" unicode="&#x15a;" horiz-adv-x="800" 
d="M651 770h-236l187 161h268zM301 -18q-219 0 -362 57l61 166q53 -23 127.5 -38.5t144.5 -15.5q78 0 113 11.5t48 41.5q22 55 -44 68l-109 19q-250 42 -175 251q37 103 136.5 149.5t264.5 46.5q179 0 327 -54l-59 -165q-118 50 -261 50q-67 0 -97.5 -10t-40.5 -36t-1.5 -39
t40.5 -20l110 -19q261 -43 176 -266q-41 -108 -139 -152.5t-260 -44.5z" />
    <glyph glyph-name="sacute" unicode="&#x15b;" horiz-adv-x="800" 
d="M651 770h-236l187 161h268zM301 -18q-219 0 -362 57l61 166q53 -23 127.5 -38.5t144.5 -15.5q78 0 113 11.5t48 41.5q22 55 -44 68l-109 19q-250 42 -175 251q37 103 136.5 149.5t264.5 46.5q179 0 327 -54l-59 -165q-118 50 -261 50q-67 0 -97.5 -10t-40.5 -36t-1.5 -39
t40.5 -20l110 -19q261 -43 176 -266q-41 -108 -139 -152.5t-260 -44.5z" />
    <glyph glyph-name="Scircumflex" unicode="&#x15c;" horiz-adv-x="800" 
d="M595 770l-16 108l-96 -108h-222l162 161h339l43 -161h-210zM301 -18q-219 0 -362 57l61 166q53 -23 127.5 -38.5t144.5 -15.5q78 0 113 11.5t48 41.5q22 55 -44 68l-109 19q-250 42 -175 251q37 103 136.5 149.5t264.5 46.5q179 0 327 -54l-59 -165q-118 50 -261 50
q-67 0 -97.5 -10t-40.5 -36t-1.5 -39t40.5 -20l110 -19q261 -43 176 -266q-41 -108 -139 -152.5t-260 -44.5z" />
    <glyph glyph-name="scircumflex" unicode="&#x15d;" horiz-adv-x="800" 
d="M595 770l-16 108l-96 -108h-222l162 161h339l43 -161h-210zM301 -18q-219 0 -362 57l61 166q53 -23 127.5 -38.5t144.5 -15.5q78 0 113 11.5t48 41.5q22 55 -44 68l-109 19q-250 42 -175 251q37 103 136.5 149.5t264.5 46.5q179 0 327 -54l-59 -165q-118 50 -261 50
q-67 0 -97.5 -10t-40.5 -36t-1.5 -39t40.5 -20l110 -19q261 -43 176 -266q-41 -108 -139 -152.5t-260 -44.5z" />
    <glyph glyph-name="Scedilla" unicode="&#x15e;" horiz-adv-x="800" 
d="M187 -221q-45 0 -90 9.5t-68 22.5l36 106q59 -17 100 -17t50 23q10 29 -16 62q-150 10 -260 54l61 166q53 -23 127.5 -38.5t144.5 -15.5q78 0 113 11.5t48 41.5q22 55 -44 68l-109 19q-250 42 -175 251q37 103 136.5 149.5t264.5 46.5q179 0 327 -54l-59 -165
q-118 50 -261 50q-67 0 -97.5 -10t-40.5 -36t-1.5 -39t40.5 -20l110 -19q261 -43 176 -266q-38 -100 -125.5 -145t-227.5 -51q49 -64 14 -135q-32 -69 -174 -69z" />
    <glyph glyph-name="scedilla" unicode="&#x15f;" horiz-adv-x="800" 
d="M187 -221q-45 0 -90 9.5t-68 22.5l36 106q59 -17 100 -17t50 23q10 29 -16 62q-150 10 -260 54l61 166q53 -23 127.5 -38.5t144.5 -15.5q78 0 113 11.5t48 41.5q22 55 -44 68l-109 19q-250 42 -175 251q37 103 136.5 149.5t264.5 46.5q179 0 327 -54l-59 -165
q-118 50 -261 50q-67 0 -97.5 -10t-40.5 -36t-1.5 -39t40.5 -20l110 -19q261 -43 176 -266q-38 -100 -125.5 -145t-227.5 -51q49 -64 14 -135q-32 -69 -174 -69z" />
    <glyph glyph-name="Scaron" unicode="&#x160;" horiz-adv-x="800" 
d="M373 770l-43 161h211l15 -108l96 108h222l-162 -161h-339zM301 -18q-219 0 -362 57l61 166q53 -23 127.5 -38.5t144.5 -15.5q78 0 113 11.5t48 41.5q22 55 -44 68l-109 19q-250 42 -175 251q37 103 136.5 149.5t264.5 46.5q179 0 327 -54l-59 -165q-118 50 -261 50
q-67 0 -97.5 -10t-40.5 -36t-1.5 -39t40.5 -20l110 -19q261 -43 176 -266q-41 -108 -139 -152.5t-260 -44.5z" />
    <glyph glyph-name="scaron" unicode="&#x161;" horiz-adv-x="800" 
d="M373 770l-43 161h211l15 -108l96 108h222l-162 -161h-339zM301 -18q-219 0 -362 57l61 166q53 -23 127.5 -38.5t144.5 -15.5q78 0 113 11.5t48 41.5q22 55 -44 68l-109 19q-250 42 -175 251q37 103 136.5 149.5t264.5 46.5q179 0 327 -54l-59 -165q-118 50 -261 50
q-67 0 -97.5 -10t-40.5 -36t-1.5 -39t40.5 -20l110 -19q261 -43 176 -266q-41 -108 -139 -152.5t-260 -44.5z" />
    <glyph glyph-name="Tcommaaccent" unicode="&#x162;" horiz-adv-x="771" 
d="M813 539h-214l-196 -539h-283l196 539h-221l66 181h718zM181 -211h-232l166 161h268z" />
    <glyph glyph-name="tcommaaccent" unicode="&#x163;" horiz-adv-x="771" 
d="M813 539h-214l-196 -539h-283l196 539h-221l66 181h718zM181 -211h-232l166 161h268z" />
    <glyph glyph-name="Tcaron" unicode="&#x164;" horiz-adv-x="771" 
d="M368 770l-43 161h211l15 -108l96 108h222l-162 -161h-339zM813 539h-214l-196 -539h-283l196 539h-221l66 181h718z" />
    <glyph glyph-name="tcaron" unicode="&#x165;" horiz-adv-x="771" 
d="M368 770l-43 161h211l15 -108l96 108h222l-162 -161h-339zM813 539h-214l-196 -539h-283l196 539h-221l66 181h718z" />
    <glyph glyph-name="Tbar" unicode="&#x166;" horiz-adv-x="771" 
d="M614 247h-121l-90 -247h-283l90 247h-127l42 113h126l65 179h-221l66 181h718l-66 -181h-214l-65 -179h122z" />
    <glyph glyph-name="tbar" unicode="&#x167;" horiz-adv-x="771" 
d="M614 247h-121l-90 -247h-283l90 247h-127l42 113h126l65 179h-221l66 181h718l-66 -181h-214l-65 -179h122z" />
    <glyph glyph-name="Utilde" unicode="&#x168;" horiz-adv-x="942" 
d="M342 770q35 103 72.5 136.5t114.5 33.5q44 0 85 -16t70.5 -32.5t47.5 -16.5q17 0 26 11t22 45h160q-35 -103 -72.5 -136.5t-114.5 -33.5q-45 0 -85.5 16.5t-69.5 33t-47 16.5q-17 0 -26.5 -11t-22.5 -46h-160zM1010 720l-151 -416q-65 -181 -177 -251.5t-315 -70.5
q-213 0 -294.5 87t-26.5 237l151 414h283l-153 -423q-50 -133 86 -133q57 0 94.5 27t65.5 105l154 424h283z" />
    <glyph glyph-name="utilde" unicode="&#x169;" horiz-adv-x="942" 
d="M342 770q35 103 72.5 136.5t114.5 33.5q44 0 85 -16t70.5 -32.5t47.5 -16.5q17 0 26 11t22 45h160q-35 -103 -72.5 -136.5t-114.5 -33.5q-45 0 -85.5 16.5t-69.5 33t-47 16.5q-17 0 -26.5 -11t-22.5 -46h-160zM1010 720l-151 -416q-65 -181 -177 -251.5t-315 -70.5
q-213 0 -294.5 87t-26.5 237l151 414h283l-153 -423q-50 -133 86 -133q57 0 94.5 27t65.5 105l154 424h283z" />
    <glyph glyph-name="Umacron" unicode="&#x16a;" horiz-adv-x="942" 
d="M881 796h-508l41 114h508zM1010 720l-151 -416q-65 -181 -177 -251.5t-315 -70.5q-213 0 -294.5 87t-26.5 237l151 414h283l-153 -423q-50 -133 86 -133q57 0 94.5 27t65.5 105l154 424h283z" />
    <glyph glyph-name="umacron" unicode="&#x16b;" horiz-adv-x="942" 
d="M881 796h-508l41 114h508zM1010 720l-151 -416q-65 -181 -177 -251.5t-315 -70.5q-213 0 -294.5 87t-26.5 237l151 414h283l-153 -423q-50 -133 86 -133q57 0 94.5 27t65.5 105l154 424h283z" />
    <glyph glyph-name="Ubreve" unicode="&#x16c;" horiz-adv-x="942" 
d="M631 931q-28 -79 23 -79q52 0 81 79h184q-35 -95 -104 -133t-194 -38q-121 0 -162.5 41.5t-10.5 129.5h183zM1010 720l-151 -416q-65 -181 -177 -251.5t-315 -70.5q-213 0 -294.5 87t-26.5 237l151 414h283l-153 -423q-50 -133 86 -133q57 0 94.5 27t65.5 105l154 424
h283z" />
    <glyph glyph-name="ubreve" unicode="&#x16d;" horiz-adv-x="942" 
d="M631 931q-28 -79 23 -79q52 0 81 79h184q-35 -95 -104 -133t-194 -38q-121 0 -162.5 41.5t-10.5 129.5h183zM1010 720l-151 -416q-65 -181 -177 -251.5t-315 -70.5q-213 0 -294.5 87t-26.5 237l151 414h283l-153 -423q-50 -133 86 -133q57 0 94.5 27t65.5 105l154 424
h283z" />
    <glyph glyph-name="Uring" unicode="&#x16e;" horiz-adv-x="942" 
d="M617 760q-136 0 -180.5 23.5t-25.5 78.5q17 45 78.5 62t170.5 17q136 0 181 -23.5t25 -77.5q-17 -46 -78 -63t-171 -17zM629 814q43 0 55 32q15 42 -35 42q-43 0 -56 -33q-14 -41 36 -41zM1010 720l-151 -416q-65 -181 -177 -251.5t-315 -70.5q-213 0 -294.5 87
t-26.5 237l151 414h283l-153 -423q-50 -133 86 -133q57 0 94.5 27t65.5 105l154 424h283z" />
    <glyph glyph-name="uring" unicode="&#x16f;" horiz-adv-x="942" 
d="M617 760q-136 0 -180.5 23.5t-25.5 78.5q17 45 78.5 62t170.5 17q136 0 181 -23.5t25 -77.5q-17 -46 -78 -63t-171 -17zM629 814q43 0 55 32q15 42 -35 42q-43 0 -56 -33q-14 -41 36 -41zM1010 720l-151 -416q-65 -181 -177 -251.5t-315 -70.5q-213 0 -294.5 87
t-26.5 237l151 414h283l-153 -423q-50 -133 86 -133q57 0 94.5 27t65.5 105l154 424h283z" />
    <glyph glyph-name="Uhungarumlaut" unicode="&#x170;" horiz-adv-x="942" 
d="M881 770h-213l187 161h245zM569 770h-213l186 161h246zM1010 720l-151 -416q-65 -181 -177 -251.5t-315 -70.5q-213 0 -294.5 87t-26.5 237l151 414h283l-153 -423q-50 -133 86 -133q57 0 94.5 27t65.5 105l154 424h283z" />
    <glyph glyph-name="uhungarumlaut" unicode="&#x171;" horiz-adv-x="942" 
d="M881 770h-213l187 161h245zM569 770h-213l186 161h246zM1010 720l-151 -416q-65 -181 -177 -251.5t-315 -70.5q-213 0 -294.5 87t-26.5 237l151 414h283l-153 -423q-50 -133 86 -133q57 0 94.5 27t65.5 105l154 424h283z" />
    <glyph glyph-name="Uogonek" unicode="&#x172;" horiz-adv-x="942" 
d="M347 -221q-103 0 -143.5 32.5t-20.5 87.5q18 51 87 89q-159 19 -215 103t-9 215l151 414h283l-153 -423q-50 -133 86 -133q57 0 94.5 27t65.5 105l154 424h283l-151 -416q-60 -165 -157.5 -237.5t-264.5 -82.5q-36 -27 -44 -50q-7 -24 6.5 -34.5t49.5 -10.5q25 0 72 7
l-37 -99q-67 -18 -137 -18z" />
    <glyph glyph-name="uogonek" unicode="&#x173;" horiz-adv-x="942" 
d="M347 -221q-103 0 -143.5 32.5t-20.5 87.5q18 51 87 89q-159 19 -215 103t-9 215l151 414h283l-153 -423q-50 -133 86 -133q57 0 94.5 27t65.5 105l154 424h283l-151 -416q-60 -165 -157.5 -237.5t-264.5 -82.5q-36 -27 -44 -50q-7 -24 6.5 -34.5t49.5 -10.5q25 0 72 7
l-37 -99q-67 -18 -137 -18z" />
    <glyph glyph-name="Wcircumflex" unicode="&#x174;" horiz-adv-x="1473" 
d="M942 770l-16 108l-96 -108h-222l162 161h339l43 -161h-210zM100 0l42 720h279l-45 -555l300 555h380l-75 -559l321 559h271l-380 -628q-53 -92 -167 -92h-309l66 538l-243 -446q-45 -92 -161 -92h-279z" />
    <glyph glyph-name="wcircumflex" unicode="&#x175;" horiz-adv-x="1473" 
d="M942 770l-16 108l-96 -108h-222l162 161h339l43 -161h-210zM100 0l42 720h279l-45 -555l300 555h380l-75 -559l321 559h271l-380 -628q-53 -92 -167 -92h-309l66 538l-243 -446q-45 -92 -161 -92h-279z" />
    <glyph glyph-name="Ycircumflex" unicode="&#x176;" horiz-adv-x="946" 
d="M658 770l-16 108l-96 -108h-222l162 161h339l43 -161h-210zM480 0h-283l97 265l-162 455h265l92 -264l271 264h318l-508 -473z" />
    <glyph glyph-name="ycircumflex" unicode="&#x177;" horiz-adv-x="946" 
d="M658 770l-16 108l-96 -108h-222l162 161h339l43 -161h-210zM480 0h-283l97 265l-162 455h265l92 -264l271 264h318l-508 -473z" />
    <glyph glyph-name="Ydieresis" unicode="&#x178;" horiz-adv-x="946" 
d="M842 780h-208l52 141h208zM580 780h-208l51 141h208zM480 0h-283l97 265l-162 455h265l92 -264l271 264h318l-508 -473z" />
    <glyph glyph-name="Zacute" unicode="&#x179;" horiz-adv-x="855" 
d="M692 770h-236l187 161h268zM682 0h-755l36 95q15 39 34.5 63.5t53.5 48.5l462 340h-369l63 173h720l-61 -162l-532 -384h411z" />
    <glyph glyph-name="zacute" unicode="&#x17a;" horiz-adv-x="855" 
d="M692 770h-236l187 161h268zM682 0h-755l36 95q15 39 34.5 63.5t53.5 48.5l462 340h-369l63 173h720l-61 -162l-532 -384h411z" />
    <glyph glyph-name="Zdotaccent" unicode="&#x17b;" horiz-adv-x="855" 
d="M725 780h-283l52 141h283zM682 0h-755l36 95q15 39 34.5 63.5t53.5 48.5l462 340h-369l63 173h720l-61 -162l-532 -384h411z" />
    <glyph glyph-name="zdotaccent" unicode="&#x17c;" horiz-adv-x="855" 
d="M725 780h-283l52 141h283zM682 0h-755l36 95q15 39 34.5 63.5t53.5 48.5l462 340h-369l63 173h720l-61 -162l-532 -384h411z" />
    <glyph glyph-name="Zcaron" unicode="&#x17d;" horiz-adv-x="855" 
d="M414 770l-43 161h211l15 -108l96 108h222l-162 -161h-339zM682 0h-755l36 95q15 39 34.5 63.5t53.5 48.5l462 340h-369l63 173h720l-61 -162l-532 -384h411z" />
    <glyph glyph-name="zcaron" unicode="&#x17e;" horiz-adv-x="855" 
d="M414 770l-43 161h211l15 -108l96 108h222l-162 -161h-339zM682 0h-755l36 95q15 39 34.5 63.5t53.5 48.5l462 340h-369l63 173h720l-61 -162l-532 -384h411z" />
    <glyph glyph-name="Scommaaccent" unicode="&#x218;" horiz-adv-x="800" 
d="M301 -18q-219 0 -362 57l61 166q53 -23 127.5 -38.5t144.5 -15.5q78 0 113 11.5t48 41.5q22 55 -44 68l-109 19q-250 42 -175 251q37 103 136.5 149.5t264.5 46.5q179 0 327 -54l-59 -165q-118 50 -261 50q-67 0 -97.5 -10t-40.5 -36t-1.5 -39t40.5 -20l110 -19
q261 -43 176 -266q-41 -108 -139 -152.5t-260 -44.5zM225 -211h-232l166 161h268z" />
    <glyph glyph-name="scommaaccent" unicode="&#x219;" horiz-adv-x="800" 
d="M301 -18q-219 0 -362 57l61 166q53 -23 127.5 -38.5t144.5 -15.5q78 0 113 11.5t48 41.5q22 55 -44 68l-109 19q-250 42 -175 251q37 103 136.5 149.5t264.5 46.5q179 0 327 -54l-59 -165q-118 50 -261 50q-67 0 -97.5 -10t-40.5 -36t-1.5 -39t40.5 -20l110 -19
q261 -43 176 -266q-41 -108 -139 -152.5t-260 -44.5zM225 -211h-232l166 161h268z" />
    <glyph glyph-name="circumflex" unicode="&#x2c6;" horiz-adv-x="860" 
d="M642 770l-16 108l-96 -108h-222l162 161h339l43 -161h-210z" />
    <glyph glyph-name="caron" unicode="&#x2c7;" horiz-adv-x="860" 
d="M410 770l-43 161h211l15 -108l96 108h222l-162 -161h-339z" />
    <glyph glyph-name="breve" unicode="&#x2d8;" horiz-adv-x="859" 
d="M585 931q-28 -79 23 -79q52 0 81 79h184q-35 -95 -104 -133t-194 -38q-121 0 -162.5 41.5t-10.5 129.5h183z" />
    <glyph glyph-name="dotaccent" unicode="&#x2d9;" horiz-adv-x="860" 
d="M725 780h-283l52 141h283z" />
    <glyph glyph-name="ring" unicode="&#x2da;" horiz-adv-x="859" 
d="M588 760q-136 0 -180.5 23.5t-25.5 78.5q17 45 78.5 62t170.5 17q136 0 181 -23.5t25 -77.5q-17 -46 -78 -63t-171 -17zM600 814q43 0 55 32q15 42 -35 42q-43 0 -56 -33q-14 -41 36 -41z" />
    <glyph glyph-name="ogonek" unicode="&#x2db;" horiz-adv-x="868" 
d="M415 -203q-67 -18 -137 -18q-103 0 -143.5 32.5t-20.5 87.5q13 34 43.5 59.5t86.5 50.5h161q-72 -46 -81 -75q-7 -24 6.5 -34.5t49.5 -10.5q25 0 72 7z" />
    <glyph glyph-name="tilde" unicode="&#x2dc;" horiz-adv-x="869" 
d="M315 770q35 103 72.5 136.5t114.5 33.5q44 0 85 -16t70.5 -32.5t47.5 -16.5q17 0 26 11t22 45h160q-35 -103 -72.5 -136.5t-114.5 -33.5q-45 0 -85.5 16.5t-69.5 33t-47 16.5q-17 0 -26.5 -11t-22.5 -46h-160z" />
    <glyph glyph-name="hungarumlaut" unicode="&#x2dd;" horiz-adv-x="860" 
d="M760 770h-213l187 161h245zM448 770h-213l186 161h246z" />
    <glyph glyph-name="Delta" unicode="&#x394;" horiz-adv-x="959" 
d="M568 174l10 419l-278 -419h268zM-108 0l446 628q34 50 71.5 71t91.5 21h328v-720h-937z" />
    <glyph glyph-name="Omega" unicode="&#x3a9;" horiz-adv-x="992" 
d="M383 162l-55 -162h-383l63 174h161q-68 42 -92.5 121.5t9.5 182.5q48 130 169 195t329 65q87 0 155.5 -14.5t111.5 -40t72 -57.5t39.5 -69t9.5 -72.5t-13 -70.5q-31 -92 -79 -146t-150 -94h171l-64 -174h-398l62 162q69 35 109.5 82.5t66.5 127.5q59 188 -122 188
q-83 0 -135 -35.5t-85 -121.5q-21 -54 -21 -97.5t17 -76t52 -67.5z" />
    <glyph glyph-name="mu" unicode="&#x3bc;" horiz-adv-x="1316" 
d="M391 0l2 532l-194 -532h-245l262 720h305q57 0 79.5 -28.5t21.5 -89.5l5 -315l299 433h438l-261 -720h-286l190 520l-372 -520h-244z" />
    <glyph glyph-name="pi" unicode="&#x3c0;" horiz-adv-x="980" 
d="M483 0l196 539h-246l-196 -539h-283l262 720h812l-262 -720h-283z" />
    <glyph glyph-name="uni2009" unicode="&#x2009;" horiz-adv-x="30" 
 />
    <glyph glyph-name="endash" unicode="&#x2013;" horiz-adv-x="700" 
d="M-14 286l54 148h676l-54 -148h-676z" />
    <glyph glyph-name="emdash" unicode="&#x2014;" horiz-adv-x="1400" 
d="M-14 286l55 148h1376l-55 -148h-1376z" />
    <glyph glyph-name="quoteleft" unicode="&#x2018;" horiz-adv-x="394" 
d="M303 720h176l-159 -279h-236z" />
    <glyph glyph-name="quoteright" unicode="&#x2019;" horiz-adv-x="394" 
d="M260 441h-176l158 279h237z" />
    <glyph glyph-name="quotesinglbase" unicode="&#x201a;" horiz-adv-x="436" 
d="M77 -107h-176l159 279h236z" />
    <glyph glyph-name="quotedblleft" unicode="&#x201c;" horiz-adv-x="733" 
d="M622 720h176l-159 -279h-236zM324 720h176l-159 -279h-236z" />
    <glyph glyph-name="quotedblright" unicode="&#x201d;" horiz-adv-x="733" 
d="M579 441h-176l158 279h237zM281 441h-176l158 279h237z" />
    <glyph glyph-name="quotedblbase" unicode="&#x201e;" horiz-adv-x="734" 
d="M375 -107h-176l159 279h236zM77 -107h-176l159 279h236z" />
    <glyph glyph-name="dagger" unicode="&#x2020;" horiz-adv-x="561" 
d="M573 434h-174l-157 -434h-168l157 434h-173l45 126h174l58 160h168l-58 -160h173z" />
    <glyph glyph-name="daggerdbl" unicode="&#x2021;" horiz-adv-x="561" 
d="M473 160h-173l-58 -160h-168l58 160h-174l46 126h174l53 148h-173l45 126h174l58 160h168l-58 -160h173l-45 -126h-174l-53 -148h173z" />
    <glyph glyph-name="bullet" unicode="&#x2022;" horiz-adv-x="515" 
d="M218 197q-103 0 -138.5 52.5t-3.5 136.5q30 81 82.5 114t145.5 33q102 0 137.5 -52t3.5 -136q-30 -81 -82.5 -114.5t-144.5 -33.5z" />
    <glyph glyph-name="ellipsis" unicode="&#x2026;" horiz-adv-x="1275" 
d="M1047 0h-239l63 172h238zM627 0h-239l63 172h238zM207 0h-239l63 172h238z" />
    <glyph glyph-name="perthousand" unicode="&#x2030;" horiz-adv-x="1913" 
d="M278 258q-144 0 -193.5 75.5t-4.5 193.5q42 111 105.5 158t181.5 47q143 0 192 -75t6 -194q-44 -111 -107 -158t-180 -47zM863 720h186l-541 -720h-187zM358 617q-35 0 -56 -24.5t-46 -92.5q-23 -63 -16 -95t48 -32q33 0 54 25t46 92q44 127 -30 127zM1549 -12
q-144 0 -193.5 75.5t-4.5 193.5q42 111 105.5 158t181.5 47q143 0 192 -75t6 -194q-44 -111 -107 -158t-180 -47zM1005 -12q-144 0 -193.5 75.5t-4.5 193.5q42 111 105.5 158t181.5 47q143 0 192 -75t6 -194q-44 -111 -107 -158t-180 -47zM1629 347q-35 0 -56 -24.5
t-46 -92.5q-23 -63 -16 -95t48 -32q33 0 54 25t46 92q44 127 -30 127zM1085 347q-35 0 -56 -24.5t-46 -92.5q-23 -63 -16 -95t48 -32q33 0 54 25t46 92q44 127 -30 127z" />
    <glyph glyph-name="guilsinglleft" unicode="&#x2039;" horiz-adv-x="468" 
d="M300 616h204l-238 -264l52 -248h-185l-73 261z" />
    <glyph glyph-name="guilsinglright" unicode="&#x203a;" horiz-adv-x="468" 
d="M171 104h-203l238 264l-53 248h186l73 -261z" />
    <glyph glyph-name="fraction" unicode="&#x2044;" horiz-adv-x="281" 
d="M319 720h186l-541 -720h-187z" />
    <glyph glyph-name="zerosuperior" unicode="&#x2070;" horiz-adv-x="544" 
d="M327 393q-144 0 -193.5 75.5t-4.5 193.5q42 111 105.5 158t181.5 47q143 0 192 -75t6 -194q-44 -111 -107 -158t-180 -47zM407 752q-35 0 -56 -24.5t-46 -92.5q-23 -63 -16 -95t48 -32q33 0 54 25t46 92q44 127 -30 127z" />
    <glyph glyph-name="foursuperior" unicode="&#x2074;" horiz-adv-x="517" 
d="M367 606l66 181l-190 -181h124zM567 503h-63l-35 -98h-175l36 98h-255l46 127l199 181q46 44 83 44h229l-90 -249h63z" />
    <glyph glyph-name="fivesuperior" unicode="&#x2075;" horiz-adv-x="498" 
d="M268 393q-119 0 -213 36l39 107q71 -32 164 -32q56 0 80 6.5t32 24.5q9 23 -4.5 35t-54.5 12q-84 0 -182 -6l101 279h405l-40 -112h-251l-20 -59q16 2 47 2q127 0 164.5 -48.5t8.5 -127.5q-24 -63 -93 -90t-183 -27z" />
    <glyph glyph-name="sixsuperior" unicode="&#x2076;" horiz-adv-x="527" 
d="M575 522q-26 -71 -83.5 -100t-169.5 -29q-146 0 -194.5 74t-3.5 199q43 114 120.5 157.5t211.5 43.5q113 0 199 -31l-38 -107q-64 28 -156 28q-62 0 -94 -16t-47 -51q46 11 90 11q103 0 149 -48.5t16 -130.5zM333 494q54 0 74 53q20 60 -54 60q-28 0 -65 -8
q-34 -105 45 -105z" />
    <glyph glyph-name="sevensuperior" unicode="&#x2077;" horiz-adv-x="474" 
d="M276 405h-186l19 54q14 42 32.5 67.5t63.5 62.5l180 154h-241l42 112h456l-24 -66q-4 -9 -8.5 -17.5t-8.5 -14t-10.5 -12.5t-10 -10l-12.5 -10.5t-12 -10.5l-192 -165q-34 -28 -48.5 -47.5t-23.5 -47.5z" />
    <glyph glyph-name="eightsuperior" unicode="&#x2078;" horiz-adv-x="531" 
d="M318 393q-150 0 -201.5 42.5t-27.5 111.5q31 85 150 92q-43 10 -60 44t-1 79q21 59 78.5 82t156.5 23q130 0 181.5 -40t28.5 -108q-30 -87 -132 -97q49 -7 67.5 -42.5t1.5 -83.5q-20 -54 -74.5 -78.5t-167.5 -24.5zM378 660q29 0 44.5 10.5t26.5 38.5q20 59 -45 59
q-30 0 -45.5 -11t-26.5 -38q-20 -59 46 -59zM321 495q54 0 70 44q22 62 -44 62q-29 0 -45 -10.5t-25 -35.5q-22 -60 44 -60z" />
    <glyph glyph-name="ninesuperior" unicode="&#x2079;" horiz-adv-x="527" 
d="M371 653q28 0 65 8q34 105 -45 105q-55 0 -73 -53q-21 -60 53 -60zM269 393q-109 0 -200 32l37 106q64 -27 158 -27q62 0 93.5 15.5t46.5 50.5q-44 -11 -90 -11q-103 0 -149 49t-15 130q26 71 83 100t169 29q146 0 194 -74t3 -198q-41 -114 -119 -158t-211 -44z" />
    <glyph glyph-name="zeroinferior" unicode="&#x2080;" horiz-adv-x="544" 
d="M131 -147q-144 0 -193.5 75.5t-4.5 193.5q42 111 105.5 158t181.5 47q143 0 192 -75t6 -194q-44 -111 -107 -158t-180 -47zM211 212q-35 0 -56 -24.5t-46 -92.5q-23 -63 -16 -95t48 -32q33 0 54 25t46 92q44 127 -30 127z" />
    <glyph glyph-name="oneinferior" unicode="&#x2081;" horiz-adv-x="373" 
d="M142 -135h-186l115 315l-143 -61l46 129l163 67h168z" />
    <glyph glyph-name="twoinferior" unicode="&#x2082;" horiz-adv-x="481" 
d="M289 -135h-443l26 69q12 30 25 46.5t37 28.5l183 98q55 29 67 59q9 23 -6.5 36.5t-63.5 13.5q-77 0 -152 -22l41 112q91 21 167 21q132 0 181 -43.5t19 -120.5q-8 -21 -21.5 -39t-23 -28t-39.5 -27l-40 -22.5t-55 -27.5l-79 -41h218z" />
    <glyph glyph-name="threeinferior" unicode="&#x2083;" horiz-adv-x="504" 
d="M76 -147q-122 0 -214 37l39 106q73 -32 165 -32q58 0 81.5 6t30.5 24q8 19 -2.5 30.5t-41.5 11.5h-149l34 93l179 74h-228l42 112h437l-25 -67q-12 -31 -25.5 -48.5t-35.5 -25.5l-135 -61q88 -2 117 -43.5t4 -109.5q-40 -107 -273 -107z" />
    <glyph glyph-name="fourinferior" unicode="&#x2084;" horiz-adv-x="517" 
d="M171 66l66 181l-190 -181h124zM371 -37h-63l-35 -98h-175l36 98h-255l46 127l199 181q46 44 83 44h229l-90 -249h63z" />
    <glyph glyph-name="fiveinferior" unicode="&#x2085;" horiz-adv-x="498" 
d="M72 -147q-119 0 -213 36l39 107q71 -32 164 -32q56 0 80 6.5t32 24.5q9 23 -4.5 35t-54.5 12q-84 0 -182 -6l101 279h405l-40 -112h-251l-20 -59q16 2 47 2q127 0 164.5 -48.5t8.5 -127.5q-24 -63 -93 -90t-183 -27z" />
    <glyph glyph-name="sixinferior" unicode="&#x2086;" horiz-adv-x="527" 
d="M379 -18q-26 -71 -83.5 -100t-169.5 -29q-146 0 -194.5 74t-3.5 199q43 114 120.5 157.5t211.5 43.5q113 0 199 -31l-38 -107q-64 28 -156 28q-62 0 -94 -16t-47 -51q46 11 90 11q103 0 149 -48.5t16 -130.5zM137 -46q54 0 74 53q20 60 -54 60q-28 0 -65 -8
q-34 -105 45 -105z" />
    <glyph glyph-name="seveninferior" unicode="&#x2087;" horiz-adv-x="474" 
d="M80 -135h-186l19 54q14 42 32.5 67.5t63.5 62.5l180 154h-241l42 112h456l-24 -66q-4 -9 -8.5 -17.5t-8.5 -14t-10.5 -12.5t-10 -10l-12.5 -10.5t-12 -10.5l-192 -165q-34 -28 -48.5 -47.5t-23.5 -47.5z" />
    <glyph glyph-name="eightinferior" unicode="&#x2088;" horiz-adv-x="531" 
d="M122 -147q-150 0 -201.5 42.5t-27.5 111.5q31 85 150 92q-43 10 -60 44t-1 79q21 59 78.5 82t156.5 23q130 0 181.5 -40t28.5 -108q-30 -87 -132 -97q49 -7 67.5 -42.5t1.5 -83.5q-20 -54 -74.5 -78.5t-167.5 -24.5zM182 120q29 0 44.5 10.5t26.5 38.5q20 59 -45 59
q-30 0 -45.5 -11t-26.5 -38q-20 -59 46 -59zM125 -45q29 0 45 10t25 34q22 62 -44 62q-29 0 -45 -10.5t-25 -35.5q-22 -60 44 -60z" />
    <glyph glyph-name="nineinferior" unicode="&#x2089;" horiz-adv-x="527" 
d="M175 113q28 0 65 8q34 105 -45 105q-55 0 -73 -53q-21 -60 53 -60zM73 -147q-109 0 -200 32l37 106q64 -27 158 -27q62 0 93.5 15.5t46.5 50.5q-44 -11 -90 -11q-103 0 -149 49t-15 130q26 71 83 100t169 29q146 0 194 -74t3 -198q-41 -114 -119 -158t-211 -44z" />
    <glyph glyph-name="Euro" unicode="&#x20ac;" 
d="M652 7q-96 -25 -207 -25q-166 0 -254 69.5t-86 200.5h-109l31 83h88q4 23 12 49h-83l31 83h81q64 146 179.5 208.5t282.5 62.5q124 0 263 -49l-64 -179q-106 44 -186 44q-64 0 -107 -19.5t-74 -67.5h266l-31 -83h-275q-1 -2 -4 -10q-8 -21 -12 -39h274l-31 -83h-253
q4 -45 39 -65t103 -20q92 0 194 26z" />
    <glyph glyph-name="litre" unicode="&#x2113;" horiz-adv-x="587" 
d="M232 -20q-54 0 -92 7.5t-69 30t-41.5 61.5t-2 104.5t41.5 155.5q42 117 87 196.5t93 123t96 61.5t105 18q209 0 138 -190q-84 -230 -365 -351q-2 -38 16.5 -52t61.5 -14q60 0 113 25l-55 -152q-54 -24 -127 -24zM264 348l-3 -9q131 66 178 193q26 76 -16 76
q-22 0 -39.5 -14t-48 -73.5t-71.5 -172.5z" />
    <glyph glyph-name="trademark" unicode="&#x2122;" horiz-adv-x="1379" 
d="M570 590h-121l-117 -320h-207l116 320h-125l46 130h455zM793 270l13 314l-113 -314h-179l164 450h228q38 0 53 -20.5t13 -62.5l-4 -150l149 233h319l-164 -450h-209l110 301l-205 -301h-175z" />
    <glyph glyph-name="estimated" unicode="&#x212e;" 
d="M416 626q-90 0 -160 -54v-138h319v137q-69 55 -159 55zM758 218q-40 -104 -134 -170.5t-208 -66.5q-153 0 -261 111.5t-108 267.5q0 155 108 264.5t261 109.5q152 0 260 -109.5t108 -264.5q0 -11 -1 -17h-527v-196q71 -58 160 -58q74 0 133 34t84 95h125z" />
    <glyph glyph-name="partialdiff" unicode="&#x2202;" horiz-adv-x="828" 
d="M289 -18q-187 0 -270.5 80.5t-32.5 216.5q39 104 125 149t248 45q111 0 204 -31q19 65 -15 96.5t-146 31.5q-152 0 -272 -32l64 171q140 29 301 29q216 0 294.5 -106.5t14.5 -285.5q-72 -205 -187 -284.5t-328 -79.5zM325 137q68 0 109.5 39t77.5 129q-64 23 -123 23
q-61 0 -93.5 -20t-49.5 -64q-19 -48 1 -77.5t78 -29.5z" />
    <glyph glyph-name="product" unicode="&#x220f;" horiz-adv-x="980" 
d="M407 -210l272 749h-246l-272 -749h-283l338 930h812l-338 -930h-283z" />
    <glyph glyph-name="summation" unicode="&#x2211;" horiz-adv-x="854" 
d="M606 -210h-755l36 94q15 39 34 64t53 49l372 277l-209 303l52 144h720l-63 -174h-390l125 -198q31 -45 12 -105l-18 -52l-319 -229h413z" />
    <glyph glyph-name="minus" unicode="&#x2212;" 
d="M101 285l54 150h576l-54 -150h-576z" />
    <glyph glyph-name="radical" unicode="&#x221a;" horiz-adv-x="673" 
d="M42 0l32 446h182l-25 -279l354 552h191l-468 -719h-266z" />
    <glyph glyph-name="infinity" unicode="&#x221e;" horiz-adv-x="825" 
d="M509 159q-96 0 -134 99q-108 -99 -201 -99q-64 0 -97.5 28.5t-33.5 75t21 107.5q34 97 101 155.5t161 58.5q96 0 134 -99q108 99 201 99q64 0 97 -28.5t33.5 -75.5t-20.5 -108q-35 -97 -101.5 -155t-160.5 -58zM554 305q70 0 95 75q28 74 -41 74q-41 0 -115 -76
q11 -36 24.5 -54.5t36.5 -18.5zM227 289q42 0 115 76q-21 72 -61 72q-69 0 -96 -75q-26 -73 42 -73z" />
    <glyph glyph-name="integral" unicode="&#x222b;" horiz-adv-x="575" 
d="M-43 -210q-75 0 -132 23l52 145q47 -14 80 -14q45 0 73 23.5t47 76.5l166 458q44 119 117.5 177t189.5 58q74 0 132 -23l-52 -145q-47 14 -80 14q-45 0 -73 -23.5t-47 -76.5l-166 -458q-44 -119 -117.5 -177t-189.5 -58z" />
    <glyph glyph-name="approxequal" unicode="&#x2248;" horiz-adv-x="859" 
d="M769 475q-90 -99 -185 -99q-45 0 -84 20t-72 39.5t-64 19.5q-50 0 -110 -66l-63 109q86 98 185 98q45 0 84 -20t72 -39.5t64 -19.5q47 0 110 66zM676 222q-89 -98 -185 -98q-45 0 -83.5 20t-72 39.5t-64.5 19.5q-49 0 -109 -66l-63 108q85 99 185 99q45 0 83.5 -20
t71.5 -39.5t64 -19.5q48 0 111 66z" />
    <glyph glyph-name="notequal" unicode="&#x2260;" 
d="M631 158h-379l-90 -85h-105l90 85h-93l55 150h198l112 105h-272l54 150h378l90 85h104l-90 -85h95l-55 -150h-200l-111 -105h273z" />
    <glyph glyph-name="lessequal" unicode="&#x2264;" 
d="M641 188l-525 142l55 150l32 86l627 143l-58 -161l-471 -101l397 -101zM2 15l54 150h577l-55 -150h-576z" />
    <glyph glyph-name="greaterequal" unicode="&#x2265;" 
d="M693 330l-628 -142l58 160l470 102l-396 101l57 158l525 -143l-55 -150zM578 15h-576l54 150h577z" />
    <glyph glyph-name="lozenge" unicode="&#x25ca;" horiz-adv-x="615" 
d="M54 -1l9 367l249 354h252l-9 -365l-249 -356h-252zM220 363l-5 -264l183 258l5 264z" />
    <glyph glyph-name="dotlessj" unicode="&#xf6be;" horiz-adv-x="654" 
d="M258 274l163 446h283l-182 -502q-49 -134 -131 -185t-231 -51q-146 0 -254 44l66 180q73 -32 153 -32q97 0 133 100z" />
    <glyph glyph-name="commaaccent" unicode="&#xf6c3;" horiz-adv-x="859" 
d="M262 -211h-232l166 161h268z" />
    <glyph glyph-name="caron.alt" horiz-adv-x="859" 
d="M488 441h-174l158 279h231z" />
    <glyph glyph-name="germandbls.cap" horiz-adv-x="1600" 
d="M1101 -18q-219 0 -362 57l61 166q53 -23 127.5 -38.5t144.5 -15.5q78 0 113 11.5t48 41.5q22 55 -44 68l-109 19q-250 42 -175 251q37 103 136.5 149.5t264.5 46.5q179 0 327 -54l-59 -165q-118 50 -261 50q-67 0 -97.5 -10t-40.5 -36t-1.5 -39t40.5 -20l110 -19
q261 -43 176 -266q-41 -108 -139 -152.5t-260 -44.5zM301 -18q-219 0 -362 57l61 166q53 -23 127.5 -38.5t144.5 -15.5q78 0 113 11.5t48 41.5q22 55 -44 68l-109 19q-250 42 -175 251q37 103 136.5 149.5t264.5 46.5q179 0 327 -54l-59 -165q-118 50 -261 50
q-67 0 -97.5 -10t-40.5 -36t-1.5 -39t40.5 -20l110 -19q261 -43 176 -266q-41 -108 -139 -152.5t-260 -44.5z" />
    <glyph glyph-name="i.trk" horiz-adv-x="451" 
d="M520 780h-283l52 141h283zM237 0h-283l262 720h283z" />
    <glyph glyph-name="dollar.lt" 
d="M392 464l35 -4l39 108q-53 -3 -79.5 -13.5t-33.5 -31.5q-10 -26 -1 -39.5t40 -19.5zM442 273l-19 2l-44 -121q89 8 107 50q22 57 -44 69zM316 -18l-34 -92h-88l34 94q-152 8 -273 55l61 166q53 -23 127.5 -38.5t143.5 -15.5h2l50 135l-43 6q-132 16 -172.5 82t-3.5 168
q37 103 137 149.5t264 46.5h8l30 82h87l-31 -86q124 -10 234 -50l-59 -165q-105 45 -235 49l-44 -119l28 -4q91 -12 140.5 -50t55 -93t-18.5 -123q-42 -108 -140 -152.5t-260 -44.5z" />
    <glyph glyph-name="Euro.lt" 
d="M652 7q-96 -25 -207 -25q-166 0 -254 69.5t-86 200.5h-109l31 83h88q4 23 12 49h-83l31 83h81q64 146 179.5 208.5t282.5 62.5q124 0 263 -49l-64 -179q-106 44 -186 44q-64 0 -107 -19.5t-74 -67.5h266l-31 -83h-275q-1 -2 -4 -10q-8 -21 -12 -39h274l-31 -83h-253
q4 -45 39 -65t103 -20q92 0 194 26z" />
    <glyph glyph-name="cent.lt" 
d="M634 54q-90 -22 -194 -24l-51 -140h-88l52 143q-169 17 -237 116t-10 262q28 80 74.5 135.5t107.5 86.5t127.5 44t148.5 13q20 0 29 -1l48 131h87l-51 -139q77 -12 152 -39l-64 -179q-82 33 -152 41l-106 -289q108 2 195 25zM362 374q-25 -72 -10.5 -107t70.5 -46
l103 282q-61 -7 -101 -36.5t-62 -92.5z" />
    <glyph glyph-name="sterling.lt" 
d="M707 174l-63 -174h-702l51 140l64 18q44 12 66.5 31.5t36.5 58.5l1 4h-115l31 83h114l18 49h-115l30 83h114l11 30q44 119 135.5 181t250.5 62q158 0 268 -44l-66 -179q-70 31 -167 31q-57 0 -92 -19t-54 -62h196l-30 -83h-197l-18 -49h198l-31 -83h-200q-27 -51 -74 -78
h339z" />
    <glyph glyph-name="yen.lt" 
d="M701 252h-193l-92 -252h-283l92 252h-195l31 83h195l18 49h-196l32 83h146l-99 253h249l63 -168l160 168h294l-278 -253h136l-32 -83h-192l-18 -49h193z" />
    <glyph glyph-name="zero.lt" 
d="M488 738q110 0 186.5 -33t110 -91t36.5 -136t-33 -167q-68 -179 -165 -254t-277 -75q-89 0 -156 21.5t-106.5 60t-57.5 92t-12.5 117.5t32.5 136q45 120 99.5 189.5t137 104.5t205.5 35zM474 560q-54 0 -87 -38.5t-72 -154.5q-37 -121 -24.5 -164t68.5 -43q54 0 87 38.5
t73 154.5q37 121 24 164t-69 43z" />
    <glyph glyph-name="one.lt" 
d="M492 0h-283l186 510l-285 -118l72 198l315 130h257z" />
    <glyph glyph-name="two.lt" 
d="M646 0h-703l41 107q17 46 37.5 71.5t57.5 44.5l296 158q32 18 50.5 29.5t38.5 31t27 39.5q15 41 -10.5 64t-106.5 23q-115 0 -243 -36l63 172q139 34 265 34q208 0 286 -70t31 -192q-9 -24 -22.5 -45t-25.5 -36.5t-36 -33.5l-38 -28t-49.5 -28.5l-52 -27t-62.5 -30.5
l-141 -73h360z" />
    <glyph glyph-name="three.lt" 
d="M290 -18q-194 0 -341 59l61 165q121 -54 265 -54q93 0 134 11t53 42q14 33 -5 53t-73 20h-235l50 143l294 125h-366l63 174h695l-39 -102q-18 -48 -38.5 -74.5t-54.5 -40.5l-228 -105q143 -3 191 -70t8 -175q-35 -92 -143 -131.5t-291 -39.5z" />
    <glyph glyph-name="four.lt" 
d="M438 319l109 299l-320 -299h211zM750 161h-101l-59 -161h-268l59 161h-414l72 195l332 297q71 67 129 67h352l-146 -401h102z" />
    <glyph glyph-name="five.lt" 
d="M292 -18q-195 0 -338 58l60 164q119 -52 263 -52q91 0 132 11.5t54 43.5q15 39 -8 60t-92 21q-132 0 -290 -10l159 442h643l-63 -173h-404l-36 -102q36 4 82 4q84 0 144 -15t93 -40.5t47.5 -61.5t11 -76.5t-21.5 -86.5q-39 -102 -147 -144.5t-289 -42.5z" />
    <glyph glyph-name="six.lt" 
d="M752 187q-41 -112 -131.5 -158.5t-267.5 -46.5q-232 0 -308.5 118t-4.5 317q66 181 190.5 251t336.5 70q178 0 314 -50l-58 -164q-102 45 -249 45q-107 0 -162 -27t-81 -89q82 20 159 20q164 0 237.5 -78t24.5 -208zM370 137q51 0 79.5 21.5t44.5 66.5q35 103 -91 103
q-58 0 -122 -19q-28 -91 -6.5 -131.5t95.5 -40.5z" />
    <glyph glyph-name="seven.lt" 
d="M323 0h-283l28 83q22 66 52.5 107.5t106.5 108.5l280 248h-391l63 173h725l-39 -102q-7 -17 -14 -30.5t-18.5 -27t-16.5 -18.5t-23 -20.5t-21 -18.5l-302 -267q-60 -52 -84 -84t-39 -78z" />
    <glyph glyph-name="eight.lt" 
d="M341 -17q-98 0 -171 12.5t-115 34.5t-65 53t-22.5 67.5t12.5 77.5q49 133 236 146q-66 16 -92.5 70t-1.5 125q34 95 125 132t248 37q206 0 287.5 -63.5t44.5 -172.5q-23 -67 -77 -107t-130 -48q77 -13 105.5 -70.5t-0.5 -131.5q-31 -85 -118.5 -123.5t-265.5 -38.5z
M437 407q50 0 75 17t42 61q16 44 -2 68.5t-72 24.5q-50 0 -75.5 -17t-41.5 -60q-17 -45 1.5 -69.5t72.5 -24.5zM346 141q51 0 79 17t44 59q37 101 -79 101q-51 0 -79.5 -17.5t-42.5 -57.5q-38 -102 78 -102z" />
    <glyph glyph-name="nine.lt" 
d="M429 392q59 0 123 19q28 91 6.5 131.5t-96.5 40.5q-50 0 -79.5 -21.5t-44.5 -66.5q-35 -103 91 -103zM266 -18q-177 0 -315 50l58 164q99 -44 250 -44q107 0 161 26.5t81 88.5q-82 -20 -158 -20q-165 0 -238 77.5t-25 208.5q42 112 132.5 158.5t267.5 46.5
q232 0 308.5 -118t3.5 -317q-66 -181 -190 -251t-336 -70z" />
    <glyph glyph-name="zero.numr" horiz-adv-x="544" 
d="M278 258q-144 0 -193.5 75.5t-4.5 193.5q42 111 105.5 158t181.5 47q143 0 192 -75t6 -194q-44 -111 -107 -158t-180 -47zM358 617q-35 0 -56 -24.5t-46 -92.5q-23 -63 -16 -95t48 -32q33 0 54 25t46 92q44 127 -30 127z" />
    <glyph glyph-name="one.numr" horiz-adv-x="373" 
d="M289 270h-186l115 315l-143 -61l46 129l163 67h168z" />
    <glyph glyph-name="two.numr" horiz-adv-x="481" 
d="M436 270h-443l26 69q12 30 25 46.5t37 28.5l183 98q55 29 67 59q9 23 -6.5 36.5t-63.5 13.5q-77 0 -152 -22l41 112q91 21 167 21q132 0 181 -43.5t19 -120.5q-8 -21 -21.5 -39t-23 -28t-39.5 -27l-40 -22.5t-55 -27.5l-79 -41h218z" />
    <glyph glyph-name="three.numr" horiz-adv-x="504" 
d="M223 258q-122 0 -214 37l39 106q73 -32 165 -32q58 0 81.5 6t30.5 24q8 19 -2.5 30.5t-41.5 11.5h-149l34 93l179 74h-228l42 112h437l-25 -67q-12 -31 -25.5 -48.5t-35.5 -25.5l-135 -61q88 -2 117 -43.5t4 -109.5q-40 -107 -273 -107z" />
    <glyph glyph-name="four.numr" horiz-adv-x="517" 
d="M318 471l66 181l-190 -181h124zM518 368h-63l-35 -98h-175l36 98h-255l46 127l199 181q46 44 83 44h229l-90 -249h63z" />
    <glyph glyph-name="five.numr" horiz-adv-x="498" 
d="M219 258q-119 0 -213 36l39 107q71 -32 164 -32q56 0 80 6.5t32 24.5q9 23 -4.5 35t-54.5 12q-84 0 -182 -6l101 279h405l-40 -112h-251l-20 -59q16 2 47 2q127 0 164.5 -48.5t8.5 -127.5q-24 -63 -93 -90t-183 -27z" />
    <glyph glyph-name="six.numr" horiz-adv-x="527" 
d="M526 387q-26 -71 -83.5 -100t-169.5 -29q-146 0 -194.5 74t-3.5 199q43 114 120.5 157.5t211.5 43.5q113 0 199 -31l-38 -107q-64 28 -156 28q-62 0 -94 -16t-47 -51q46 11 90 11q103 0 149 -48.5t16 -130.5zM284 359q54 0 74 53q20 60 -54 60q-28 0 -65 -8
q-34 -105 45 -105z" />
    <glyph glyph-name="seven.numr" horiz-adv-x="474" 
d="M227 270h-186l19 54q14 42 32.5 67.5t63.5 62.5l180 154h-241l42 112h456l-24 -66q-4 -9 -8.5 -17.5t-8.5 -14t-10.5 -12.5t-10 -10l-12.5 -10.5t-12 -10.5l-192 -165q-34 -28 -48.5 -47.5t-23.5 -47.5z" />
    <glyph glyph-name="eight.numr" horiz-adv-x="531" 
d="M269 258q-150 0 -201.5 42.5t-27.5 111.5q31 85 150 92q-43 10 -60 44t-1 79q21 59 78.5 82t156.5 23q130 0 181.5 -40t28.5 -108q-30 -87 -132 -97q49 -7 67.5 -42.5t1.5 -83.5q-20 -54 -74.5 -78.5t-167.5 -24.5zM329 525q29 0 44.5 10.5t26.5 38.5q20 59 -45 59
q-30 0 -45.5 -11t-26.5 -38q-20 -59 46 -59zM272 360q54 0 70 44q22 62 -44 62q-29 0 -45 -10.5t-25 -35.5q-22 -60 44 -60z" />
    <glyph glyph-name="nine.numr" horiz-adv-x="527" 
d="M322 518q28 0 65 8q34 105 -45 105q-55 0 -73 -53q-21 -60 53 -60zM220 258q-109 0 -200 32l37 106q64 -27 158 -27q62 0 93.5 15.5t46.5 50.5q-44 -11 -90 -11q-103 0 -149 49t-15 130q26 71 83 100t169 29q146 0 194 -74t3 -198q-41 -114 -119 -158t-211 -44z" />
    <glyph glyph-name="zero.dnom" horiz-adv-x="544" 
d="M180 -12q-144 0 -193.5 75.5t-4.5 193.5q42 111 105.5 158t181.5 47q143 0 192 -75t6 -194q-44 -111 -107 -158t-180 -47zM260 347q-35 0 -56 -24.5t-46 -92.5q-23 -63 -16 -95t48 -32q33 0 54 25t46 92q44 127 -30 127z" />
    <glyph glyph-name="one.dnom" horiz-adv-x="373" 
d="M191 0h-186l115 315l-143 -61l46 129l163 67h168z" />
    <glyph glyph-name="two.dnom" horiz-adv-x="481" 
d="M338 0h-443l26 69q12 30 25 46.5t37 28.5l183 98q55 29 67 59q9 23 -6.5 36.5t-63.5 13.5q-77 0 -152 -22l41 112q91 21 167 21q132 0 181 -43.5t19 -120.5q-8 -21 -21.5 -39t-23 -28t-39.5 -27l-40 -22.5t-55 -27.5l-79 -41h218z" />
    <glyph glyph-name="three.dnom" horiz-adv-x="504" 
d="M125 -12q-122 0 -214 37l39 106q73 -32 165 -32q58 0 81.5 6t30.5 24q8 19 -2.5 30.5t-41.5 11.5h-149l34 93l179 74h-228l42 112h437l-25 -67q-12 -31 -25.5 -48.5t-35.5 -25.5l-135 -61q88 -2 117 -43.5t4 -109.5q-40 -107 -273 -107z" />
    <glyph glyph-name="four.dnom" horiz-adv-x="517" 
d="M220 201l66 181l-190 -181h124zM420 98h-63l-35 -98h-175l36 98h-255l46 127l199 181q46 44 83 44h229l-90 -249h63z" />
    <glyph glyph-name="five.dnom" horiz-adv-x="498" 
d="M121 -12q-119 0 -213 36l39 107q71 -32 164 -32q56 0 80 6.5t32 24.5q9 23 -4.5 35t-54.5 12q-84 0 -182 -6l101 279h405l-40 -112h-251l-20 -59q16 2 47 2q127 0 164.5 -48.5t8.5 -127.5q-24 -63 -93 -90t-183 -27z" />
    <glyph glyph-name="six.dnom" horiz-adv-x="527" 
d="M428 117q-26 -71 -83.5 -100t-169.5 -29q-146 0 -194.5 74t-3.5 199q43 114 120.5 157.5t211.5 43.5q113 0 199 -31l-38 -107q-64 28 -156 28q-62 0 -94 -16t-47 -51q46 11 90 11q103 0 149 -48.5t16 -130.5zM186 89q54 0 74 53q20 60 -54 60q-28 0 -65 -8
q-34 -105 45 -105z" />
    <glyph glyph-name="seven.dnom" horiz-adv-x="474" 
d="M129 0h-186l19 54q14 42 32.5 67.5t63.5 62.5l180 154h-241l42 112h456l-24 -66q-4 -9 -8.5 -17.5t-8.5 -14t-10.5 -12.5t-10 -10l-12.5 -10.5t-12 -10.5l-192 -165q-34 -28 -48.5 -47.5t-23.5 -47.5z" />
    <glyph glyph-name="eight.dnom" horiz-adv-x="531" 
d="M171 -12q-150 0 -201.5 42.5t-27.5 111.5q31 85 150 92q-43 10 -60 44t-1 79q21 59 78.5 82t156.5 23q130 0 181.5 -40t28.5 -108q-30 -87 -132 -97q49 -7 67.5 -42.5t1.5 -83.5q-20 -54 -74.5 -78.5t-167.5 -24.5zM231 255q29 0 44.5 10.5t26.5 38.5q20 59 -45 59
q-30 0 -45.5 -11t-26.5 -38q-20 -59 46 -59zM174 90q54 0 70 44q22 62 -44 62q-29 0 -45 -10.5t-25 -35.5q-22 -60 44 -60z" />
    <glyph glyph-name="nine.dnom" horiz-adv-x="527" 
d="M224 248q28 0 65 8q34 105 -45 105q-55 0 -73 -53q-21 -60 53 -60zM122 -12q-109 0 -200 32l37 106q64 -27 158 -27q62 0 93.5 15.5t46.5 50.5q-44 -11 -90 -11q-103 0 -149 49t-15 130q26 71 83 100t169 29q146 0 194 -74t3 -198q-41 -114 -119 -158t-211 -44z" />
    <glyph glyph-name="numero" horiz-adv-x="1592" 
d="M1316 258q-144 0 -193.5 75.5t-4.5 193.5q42 111 105.5 158t181.5 47q143 0 192 -75t6 -194q-44 -111 -107 -158t-180 -47zM1396 617q-35 0 -56 -24.5t-46 -92.5q-23 -63 -16 -95t48 -32q33 0 54 25t46 92q44 127 -30 127zM436 0l-45 527l-192 -527h-245l262 720h306
q97 0 97 -109l45 -424l194 533h246l-262 -720h-406zM1433 88h-433l41 113h433z" />
    <glyph glyph-name="bar.alt" horiz-adv-x="0" 
d="M-5 -259v1200h10v-1200h-10z" />
    <glyph glyph-name="space.alt" horiz-adv-x="218" 
 />
    </font>
</defs>
</svg>
