<?xml version="1.0" standalone="no"?>
<!DOCTYPE svg PUBLIC "-//W3C//DTD SVG 1.1//EN" "http://www.w3.org/Graphics/SVG/1.1/DTD/svg11.dtd" >
<svg>
<metadata>
Created by FontForge 20090622 at Wed Mar 21 08:09:34 2018
 By deploy user
Mathieu Reguer for Michelin
</metadata>
<defs>
<font id="Michelin-Regular" horiz-adv-x="919" >
  <font-face 
    font-family="Michelin"
    font-weight="400"
    font-style="italic"
    font-stretch="semi-condensed"
    units-per-em="1000"
    panose-1="2 0 0 0 0 0 0 0 0 0"
    ascent="750"
    descent="-250"
    x-height="720"
    cap-height="720"
    bbox="-209 -260 1800.93 941"
    underline-thickness="83"
    underline-position="-127"
    slope="-20"
    unicode-range="U+0020-U+F6C3"
  />
<missing-glyph horiz-adv-x="453" 
d="M-24 -170v900h501v-900h-501zM224 518q-204 0 -204 -175l141 -10q0 38 13.5 53t41.5 15q50 0 50 -36v-6q0 -24 -28 -34l-21 -9q-46 -18 -61 -47.5t-10 -98.5h119q0 28 7 37t39 24l35 15q77 36 77 129v6q0 62 -50 99.5t-149 37.5zM125 73q0 -35 22 -57.5t58 -22.5t57.5 22
t21.5 58t-21.5 58t-57.5 22t-58 -22t-22 -58z" />
    <glyph glyph-name=".notdef" horiz-adv-x="453" 
d="M-24 -170v900h501v-900h-501zM224 518q-204 0 -204 -175l141 -10q0 38 13.5 53t41.5 15q50 0 50 -36v-6q0 -24 -28 -34l-21 -9q-46 -18 -61 -47.5t-10 -98.5h119q0 28 7 37t39 24l35 15q77 36 77 129v6q0 62 -50 99.5t-149 37.5zM125 73q0 -35 22 -57.5t58 -22.5t57.5 22
t21.5 58t-21.5 58t-57.5 22t-58 -22t-22 -58z" />
    <glyph glyph-name=".null" horiz-adv-x="0" 
 />
    <glyph glyph-name="nonmarkingreturn" horiz-adv-x="333" 
 />
    <glyph glyph-name="space" unicode=" " horiz-adv-x="300" 
 />
    <glyph glyph-name="exclam" unicode="!" horiz-adv-x="387" 
d="M182 212h-89l128 406l36 102h137l-37 -102zM135 0h-142l43 120h142z" />
    <glyph glyph-name="quotedbl" unicode="&#x22;" horiz-adv-x="611" 
d="M475 469h-83l59 216l12 35h125l-12 -35zM298 469h-83l59 216l12 35h125l-12 -35z" />
    <glyph glyph-name="numbersign" unicode="#" horiz-adv-x="830" 
d="M480 265l69 189h-198l-69 -189h198zM383 -1l68 187h-198l-68 -187h-99l68 187h-153l29 79h153l69 189h-142l28 79h143l68 187h99l-68 -187h198l68 187h99l-68 -187h153l-29 -79h-153l-69 -189h143l-29 -79h-143l-68 -187h-99z" />
    <glyph glyph-name="dollar" unicode="$" horiz-adv-x="830" 
d="M374 434l40 -8l78 213q-169 -1 -201 -87q-20 -46 -3 -74t86 -44zM460 318l-17 3l-87 -238q165 6 200 99q22 52 1 85.5t-97 50.5zM329 -12h-7l-36 -98h-80l37 101q-148 10 -258 59l37 101q123 -59 255 -67l92 253l-45 9q-211 42 -146 222q59 164 333 164h15l32 88h80
l-34 -94q105 -12 215 -55l-33 -96q-104 47 -215 60l-82 -225l27 -5q112 -23 148 -86t3 -156q-35 -95 -118.5 -135t-219.5 -40z" />
    <glyph glyph-name="percent" unicode="%" horiz-adv-x="1329" 
d="M272 262q-133 0 -177 72.5t-4 182.5q41 110 105.5 160.5t173.5 50.5q132 1 176.5 -72t4.5 -183q-41 -110 -105.5 -160.5t-173.5 -50.5zM882 720h111l-545 -719h-111zM365 657q-64 0 -105 -35t-73 -120q-29 -80 -6.5 -124.5t97.5 -44.5q65 0 105.5 34.5t70.5 120.5
q30 80 7.5 124.5t-96.5 44.5zM961 -8q-133 0 -177 72.5t-4 182.5q41 110 105.5 160.5t173.5 50.5q132 1 176.5 -72t4.5 -183q-41 -110 -105.5 -160.5t-173.5 -50.5zM1054 387q-64 0 -105 -35t-73 -120q-29 -80 -6.5 -124.5t97.5 -44.5q65 0 105.5 34.5t70.5 120.5
q30 80 7.5 124.5t-96.5 44.5z" />
    <glyph glyph-name="ampersand" unicode="&#x26;" horiz-adv-x="914" 
d="M294 578q-31 -81 44 -161q94 22 137 48.5t57 66.5q19 52 -9.5 82.5t-97.5 30.5q-54 0 -85.5 -15t-45.5 -52zM276 74q64 0 110.5 17t94.5 59l-178 164q-3 3 -8.5 8t-8.5 7q-74 -19 -108.5 -42.5t-50.5 -70.5q-25 -72 18.5 -107t130.5 -35zM643 0l-98 90
q-58 -53 -124.5 -77.5t-161.5 -24.5q-152 0 -216.5 68.5t-22.5 181.5q41 110 210 151q-42 53 -52 102t11 113q47 127 245 127q125 0 179.5 -61t26.5 -145q-22 -64 -82 -102t-160 -64l154 -143l138 144h117l-191 -204l168 -156h-141z" />
    <glyph glyph-name="quotesingle" unicode="'" horiz-adv-x="386" 
d="M274 469h-83l59 216l12 35h125l-12 -35z" />
    <glyph glyph-name="parenleft" unicode="(" horiz-adv-x="455" 
d="M212 -150h-91q-74 104 -85.5 256t40.5 299q44 128 142.5 254t246.5 211h121q-288 -172 -405 -491q-29 -81 -38.5 -172.5t7.5 -188.5t62 -168z" />
    <glyph glyph-name="parenright" unicode=")" horiz-adv-x="455" 
d="M245 870h91q74 -104 85.5 -256t-40.5 -299q-28 -82 -76.5 -161.5t-130.5 -162.5t-182 -141h-120q287 171 404 491q29 81 38.5 172.5t-7.5 188.5t-62 168z" />
    <glyph glyph-name="asterisk" unicode="*" horiz-adv-x="509" 
d="M404 298l-90 148l-90 -148l-77 55l113 131l-168 40l29 90l159 -66l-14 172h95l-14 -173l159 67l30 -90l-168 -40l112 -131z" />
    <glyph glyph-name="plus" unicode="+" horiz-adv-x="829" 
d="M688 316h-244l-89 -244h-89l89 244h-244l32 89h244l89 244h89l-89 -244h244z" />
    <glyph glyph-name="comma" unicode="," horiz-adv-x="388" 
d="M14 -131h-94l159 251h138z" />
    <glyph glyph-name="hyphen" unicode="-" horiz-adv-x="387" 
d="M38 312l35 97h278l-36 -97h-277z" />
    <glyph glyph-name="period" unicode="." horiz-adv-x="387" 
d="M135 0h-142l43 120h142z" />
    <glyph glyph-name="slash" unicode="/" horiz-adv-x="517" 
d="M587 870h117l-772 -1020h-117z" />
    <glyph glyph-name="zero" unicode="0" horiz-adv-x="836" 
d="M338 -12q-106 0 -177.5 32.5t-102.5 88.5t-31.5 127.5t29.5 153.5q65 176 169 259t274 83q106 0 177.5 -32.5t102.5 -88.5t31.5 -127.5t-29.5 -153.5q-65 -177 -168.5 -259.5t-274.5 -82.5zM492 635q-116 0 -189 -59.5t-125 -205.5q-50 -133 -8 -209t175 -76
q116 0 189 59.5t126 205.5q50 133 7.5 209t-175.5 76z" />
    <glyph glyph-name="one" unicode="1" horiz-adv-x="500" 
d="M253 0h-127l219 603l-281 -117l39 110l299 124h113z" />
    <glyph glyph-name="two" unicode="2" horiz-adv-x="736" 
d="M565 0h-639l25 69q16 39 51 58l348 190l40.5 22l39.5 21.5t33 19.5t32 20.5t24.5 19t23 22t15.5 22t13 25.5q26 71 -17 109t-172 38q-106 0 -231 -34l37 100q102 30 230 30q175 0 247 -69.5t29 -187.5q-11 -30 -32 -57t-42.5 -46.5t-60.5 -44t-63.5 -38l-73.5 -39.5
l-287 -154h465z" />
    <glyph glyph-name="three" unicode="3" horiz-adv-x="771" 
d="M276 -12q-171 0 -315 68l36 98q144 -71 279 -71q117 0 182 23.5t85 77.5q22 62 -10 105.5t-136 43.5h-227l28 82l409 209h-440l35 95h637l-19 -51q-16 -42 -46 -56l-380 -196h32q153 0 213.5 -73t21.5 -179q-36 -97 -131 -136.5t-254 -39.5z" />
    <glyph glyph-name="four" unicode="4" horiz-adv-x="786" 
d="M484 295l130 357l-461 -357h331zM705 203h-130l-74 -203h-124l74 203h-463l36 99l504 387q39 31 81 31h154l-155 -425h131z" />
    <glyph glyph-name="five" unicode="5" horiz-adv-x="753" 
d="M283 -12q-173 0 -307 66l36 95q138 -66 270 -66q222 0 262 110q25 68 -11.5 109t-158.5 41q-145 0 -280 -10l137 387h575l-35 -95h-456l-71 -195q84 6 162 6q73 0 127.5 -14.5t85.5 -39.5t46 -60t13 -74t-18 -82q-65 -178 -377 -178z" />
    <glyph glyph-name="six" unicode="6" horiz-adv-x="765" 
d="M673 179q-37 -103 -122 -147t-225 -44q-196 0 -265.5 119t1.5 312q62 171 182.5 242t308.5 71q140 0 264 -50l-32 -95q-109 50 -238 50q-138 0 -227.5 -48.5t-129.5 -167.5q104 37 234 37q162 0 228 -77.5t21 -201.5zM340 79q91 0 142.5 29t73.5 93q59 167 -167 167
q-113 0 -230 -40q-63 -249 181 -249z" />
    <glyph glyph-name="seven" unicode="7" horiz-adv-x="675" 
d="M182 0h-127l28 85q28 82 80.5 148t173.5 173l247 219h-474l35 95h642l-19 -52q-9 -25 -45 -55l-290 -255q-118 -103 -160 -157.5t-69 -133.5z" />
    <glyph glyph-name="eight" unicode="8" horiz-adv-x="823" 
d="M323 -11q-198 0 -272.5 65.5t-32.5 179.5q22 57 78.5 95.5t134.5 46.5q-55 21 -75 74t3 113q19 50 51.5 83.5t78.5 52t98 26t119 7.5q183 0 254.5 -64t31.5 -171q-23 -60 -72.5 -99.5t-117.5 -50.5q65 -19 88 -73t-2 -117q-36 -94 -125.5 -131t-239.5 -37zM440 398
q104 0 155.5 23t73.5 84q23 67 -17 100.5t-148 33.5q-105 0 -157 -22.5t-74 -82.5q-23 -69 17.5 -102.5t149.5 -33.5zM322 82q114 0 171 22t78 79q25 69 -19 105t-165 36q-112 0 -169.5 -22t-75.5 -77q-25 -70 19.5 -106.5t160.5 -36.5z" />
    <glyph glyph-name="nine" unicode="9" horiz-adv-x="764" 
d="M378 352q113 0 230 40q64 249 -181 249q-91 0 -142.5 -29.5t-73.5 -92.5q-59 -167 167 -167zM214 -12q-140 0 -264 50l32 94q105 -49 238 -49q67 0 120 10t100 34t81.5 67t55.5 105q-106 -37 -233 -37q-163 0 -229 77.5t-21 201.5q37 102 122.5 146.5t224.5 44.5
q196 0 265.5 -119t-1.5 -312q-62 -171 -182.5 -242t-308.5 -71z" />
    <glyph glyph-name="colon" unicode=":" horiz-adv-x="436" 
d="M278 328h-142l43 120h142zM158 0h-142l43 120h142z" />
    <glyph glyph-name="semicolon" unicode=";" horiz-adv-x="436" 
d="M279 328h-142l43 120h142zM38 -131h-94l159 251h138z" />
    <glyph glyph-name="less" unicode="&#x3c;" horiz-adv-x="829" 
d="M610 105l-508 188l30 80l20 58l646 188l-35 -98l-563 -163l443 -163z" />
    <glyph glyph-name="equal" unicode="=" horiz-adv-x="829" 
d="M155 438l32 88h577l-32 -88h-577zM67 195l32 88h577l-32 -88h-577z" />
    <glyph glyph-name="greater" unicode="&#x3e;" horiz-adv-x="830" 
d="M34 105l35 98l563 163l-443 163l33 90l508 -188l-30 -80l-20 -58z" />
    <glyph glyph-name="question" unicode="?" horiz-adv-x="620" 
d="M525 493q11 30 11 53.5t-14.5 47.5t-59 37t-116.5 13q-94 0 -209 -33l36 100q100 27 214 27q75 0 130 -15t85.5 -40.5t44.5 -59.5t12 -70.5t-17 -76.5q-33 -91 -107.5 -132t-199.5 -51l-97 -8l-27 -76h-101l58 160l116 8q110 8 164.5 31t76.5 85zM165 0h-142l44 120h141z
" />
    <glyph glyph-name="at" unicode="@" horiz-adv-x="1032" 
d="M431 -20q-241 0 -336.5 120.5t-23.5 311.5q65 178 194.5 253t339.5 75q105 0 184.5 -22.5t125 -60.5t68 -88.5t21 -105.5t-22.5 -112q-36 -96 -101.5 -148.5t-152.5 -52.5q-109 0 -131 82q-44 -40 -85 -59.5t-95 -19.5q-63 0 -101 31.5t-42.5 80.5t14.5 109
q70 188 294 188h198l-88 -243q-33 -91 53 -91q50 0 91 36.5t66 109.5q13 46 15.5 89t-17.5 81t-56 66.5t-100 45t-149 16.5q-170 0 -276.5 -62.5t-160.5 -211.5q-59 -156 13 -252.5t273 -96.5q140 0 286 48l-29 -79q-124 -38 -269 -38zM441 234q74 0 143 79l62 167h-91
q-65 0 -105.5 -27t-62.5 -92q-23 -67 -10 -97t64 -30z" />
    <glyph glyph-name="A" unicode="A" horiz-adv-x="809" 
d="M542 274l-21 383l-284 -383h305zM558 0l-10 179h-381l-132 -179h-137l513 674q32 46 86 46h134l48 -720h-121z" />
    <glyph glyph-name="B" unicode="B" horiz-adv-x="885" 
d="M572 626h-230l-81 -221h205q104 0 160 22t76 81q23 64 -7.5 91t-122.5 27zM476 317h-247l-81 -223h273q98 0 144 19t65 70q23 66 -15.5 100t-138.5 34zM-13 0l262 720h372q138 0 190.5 -60.5t16.5 -159.5q-42 -112 -180 -142q73 -20 99.5 -76.5t-0.5 -127.5
q-59 -154 -294 -154h-466z" />
    <glyph glyph-name="C" unicode="C" horiz-adv-x="795" 
d="M783 587q-104 47 -229 47q-275 0 -360 -257q-48 -143 9.5 -217t209.5 -74q130 0 227 29l-36 -99q-83 -28 -225 -28q-205 0 -288.5 113.5t-14.5 301.5q121 329 485 329q134 0 257 -48z" />
    <glyph glyph-name="D" unicode="D" horiz-adv-x="889" 
d="M540 625h-199l-192 -529h200q142 0 220.5 56.5t129.5 197.5q46 126 4.5 200.5t-163.5 74.5zM-13 0l262 720h299q99 0 167.5 -31.5t98.5 -85t33.5 -124t-27.5 -148.5q-63 -172 -173.5 -251.5t-301.5 -79.5h-358z" />
    <glyph glyph-name="E" unicode="E" horiz-adv-x="769" 
d="M-13 0l262 720h598l-35 -94h-470l-80 -219h423l-35 -94h-422l-80 -219h471l-34 -94h-598z" />
    <glyph glyph-name="F" unicode="F" horiz-adv-x="739" 
d="M639 273h-426l-99 -273h-127l262 720h598l-35 -95h-471l-93 -256h426z" />
    <glyph glyph-name="G" unicode="G" horiz-adv-x="845" 
d="M638 17q-92 -29 -240 -29q-217 0 -304.5 112.5t-17.5 302.5q120 329 502 329q132 0 260 -49l-35 -97q-108 48 -232 48q-293 0 -377 -257q-97 -292 234 -292q61 0 113 7l80 221h123z" />
    <glyph glyph-name="H" unicode="H" horiz-adv-x="920" 
d="M546 0l114 312h-432l-114 -312h-127l262 720h127l-113 -311h432l113 311h127l-262 -720h-127z" />
    <glyph glyph-name="I" unicode="I" horiz-adv-x="361" 
d="M114 0h-127l262 720h127z" />
    <glyph glyph-name="J" unicode="J" horiz-adv-x="590" 
d="M307 231l178 489h126l-181 -504q-45 -124 -118.5 -176t-198.5 -52q-128 0 -215 42l35 95q79 -37 178 -37q144 0 196 143z" />
    <glyph glyph-name="K" unicode="K" horiz-adv-x="850" 
d="M557 0l-224 312h-105l-114 -312h-127l262 720h127l-113 -311h101l427 311h150l-496 -371l249 -349h-137z" />
    <glyph glyph-name="L" unicode="L" horiz-adv-x="733" 
d="M-13 0l262 720h127l-227 -623h463l-35 -97h-590z" />
    <glyph glyph-name="M" unicode="M" horiz-adv-x="1175" 
d="M389 0l-55 629l-229 -629h-118l262 720h119q41 0 58 -16t20 -56l49 -536l485 608h210l-261 -720h-128l227 623l-503 -623h-136z" />
    <glyph glyph-name="N" unicode="N" horiz-adv-x="975" 
d="M538 0l-206 623l-227 -623h-118l262 720h113q61 0 71 -48l197 -578l228 626h120l-262 -720h-178z" />
    <glyph glyph-name="O" unicode="O" 
d="M378 -12q-93 0 -161.5 21t-107.5 58t-56 88t-11.5 109.5t29.5 124.5q64 177 177 260t296 83q116 0 193.5 -32.5t109 -87.5t34.5 -127.5t-30 -153.5q-65 -177 -178 -260t-295 -83zM386 85q129 0 209.5 59t133.5 204q52 135 4 211t-199 76q-128 0 -208.5 -59t-132.5 -203
q-53 -136 -5.5 -212t198.5 -76z" />
    <glyph glyph-name="P" unicode="P" horiz-adv-x="804" 
d="M487 626h-145l-117 -322h177q125 0 179.5 28t84.5 109q37 100 -2.5 142.5t-176.5 42.5zM396 210h-206l-76 -210h-127l262 720h262q200 0 264 -81.5t13 -216.5q-46 -122 -133.5 -167t-258.5 -45z" />
    <glyph glyph-name="Q" unicode="Q" 
d="M386 85q129 0 209.5 59t133.5 204q52 135 4 211t-199 76q-128 0 -208.5 -59t-132.5 -203q-53 -136 -5.5 -212t198.5 -76zM548 -240q-44 -10 -102 -10q-124 0 -175 60.5t-3 186.5q-82 14 -135 51t-74 89.5t-18 116t30 135.5q64 177 177 260t296 83q116 0 193.5 -32.5
t109 -87.5t34.5 -127.5t-30 -153.5q-65 -177 -178 -260t-295 -83h-4q-25 -56 -17 -88.5t37.5 -45.5t85.5 -13q51 0 98 9z" />
    <glyph glyph-name="R" unicode="R" horiz-adv-x="844" 
d="M501 626h-159l-103 -282h172q125 0 180.5 23.5t79.5 93.5q32 91 -3.5 128t-166.5 37zM518 0l-90 250h-223l-91 -250h-127l262 720h282q185 0 248 -73.5t15 -202.5q-58 -159 -250 -178l104 -266h-130z" />
    <glyph glyph-name="S" unicode="S" horiz-adv-x="763" 
d="M295 -12q-207 0 -343 62l36 101q143 -69 302 -69q189 0 225 100q22 52 1 84.5t-97 49.5l-129 28q-209 45 -146 224q59 164 334 164q147 0 308 -61l-34 -96q-138 64 -286 64q-170 0 -201 -87q-20 -46 -3 -73t86 -43l134 -29q113 -24 149 -87.5t3 -156.5
q-35 -95 -118.5 -135t-220.5 -40z" />
    <glyph glyph-name="T" unicode="T" horiz-adv-x="745" 
d="M815 623h-281l-227 -623h-127l227 623h-285l36 97h693z" />
    <glyph glyph-name="U" unicode="U" horiz-adv-x="882" 
d="M916 720l-155 -431q-62 -173 -157 -237t-261 -64q-186 0 -251.5 84.5t-16.5 219.5l154 428h127l-155 -429q-39 -108 -0.5 -156.5t161.5 -48.5q101 0 164 41t108 164l155 429h127z" />
    <glyph glyph-name="V" unicode="V" horiz-adv-x="804" 
d="M180 0l-48 720h124l37 -636l469 636h146l-513 -674q-32 -46 -77 -46h-138z" />
    <glyph glyph-name="W" unicode="W" horiz-adv-x="1301" 
d="M142 0v720h124l-7 -638l417 638h178l-15 -634l419 634h137l-456 -674q-31 -46 -79 -46h-136l10 629l-388 -583q-27 -46 -81 -46h-123z" />
    <glyph glyph-name="X" unicode="X" horiz-adv-x="843" 
d="M545 0l-140 299l-354 -299h-157l446 372l-169 348h131l140 -300l356 300h153l-446 -373l169 -347h-129z" />
    <glyph glyph-name="Y" unicode="Y" horiz-adv-x="813" 
d="M335 0h-127l114 313l-190 407h124l151 -320l386 320h152l-499 -416z" />
    <glyph glyph-name="Z" unicode="Z" horiz-adv-x="797" 
d="M618 0h-673l19 50q12 31 45 55l653 520h-476l35 95h649l-30 -81l-686 -543h498z" />
    <glyph glyph-name="bracketleft" unicode="[" horiz-adv-x="425" 
d="M-82 -149l371 1018h301l-30 -82h-198l-312 -854h198l-30 -82h-300z" />
    <glyph glyph-name="backslash" unicode="\" horiz-adv-x="468" 
d="M283 870v-1020h-96v1020h96z" />
    <glyph glyph-name="bracketright" unicode="]" horiz-adv-x="426" 
d="M-162 -149l30 82h198l312 854h-198l30 82h300l-372 -1018h-300z" />
    <glyph glyph-name="asciicircum" unicode="^" horiz-adv-x="819" 
d="M524 73l-18 515l-402 -515h-103l452 574h138l21 -574h-88z" />
    <glyph glyph-name="underscore" unicode="_" horiz-adv-x="699" 
d="M-209 -250l30 82h675l-30 -82h-675z" />
    <glyph glyph-name="grave" unicode="`" horiz-adv-x="837" 
d="M614 770l-142 161h130l122 -161h-110z" />
    <glyph glyph-name="a" unicode="a" horiz-adv-x="809" 
d="M542 274l-21 383l-284 -383h305zM558 0l-10 179h-381l-132 -179h-137l513 674q32 46 86 46h134l48 -720h-121z" />
    <glyph glyph-name="b" unicode="b" horiz-adv-x="885" 
d="M572 626h-230l-81 -221h205q104 0 160 22t76 81q23 64 -7.5 91t-122.5 27zM476 317h-247l-81 -223h273q98 0 144 19t65 70q23 66 -15.5 100t-138.5 34zM-13 0l262 720h372q138 0 190.5 -60.5t16.5 -159.5q-42 -112 -180 -142q73 -20 99.5 -76.5t-0.5 -127.5
q-59 -154 -294 -154h-466z" />
    <glyph glyph-name="c" unicode="c" horiz-adv-x="795" 
d="M783 587q-104 47 -229 47q-275 0 -360 -257q-48 -143 9.5 -217t209.5 -74q130 0 227 29l-36 -99q-83 -28 -225 -28q-205 0 -288.5 113.5t-14.5 301.5q121 329 485 329q134 0 257 -48z" />
    <glyph glyph-name="d" unicode="d" horiz-adv-x="889" 
d="M540 625h-199l-192 -529h200q142 0 220.5 56.5t129.5 197.5q46 126 4.5 200.5t-163.5 74.5zM-13 0l262 720h299q99 0 167.5 -31.5t98.5 -85t33.5 -124t-27.5 -148.5q-63 -172 -173.5 -251.5t-301.5 -79.5h-358z" />
    <glyph glyph-name="e" unicode="e" horiz-adv-x="769" 
d="M-13 0l262 720h598l-35 -94h-470l-80 -219h423l-35 -94h-422l-80 -219h471l-34 -94h-598z" />
    <glyph glyph-name="f" unicode="f" horiz-adv-x="739" 
d="M639 273h-426l-99 -273h-127l262 720h598l-35 -95h-471l-93 -256h426z" />
    <glyph glyph-name="g" unicode="g" horiz-adv-x="845" 
d="M638 17q-92 -29 -240 -29q-217 0 -304.5 112.5t-17.5 302.5q120 329 502 329q132 0 260 -49l-35 -97q-108 48 -232 48q-293 0 -377 -257q-97 -292 234 -292q61 0 113 7l80 221h123z" />
    <glyph glyph-name="h" unicode="h" horiz-adv-x="920" 
d="M546 0l114 312h-432l-114 -312h-127l262 720h127l-113 -311h432l113 311h127l-262 -720h-127z" />
    <glyph glyph-name="i" unicode="i" horiz-adv-x="361" 
d="M114 0h-127l262 720h127z" />
    <glyph glyph-name="j" unicode="j" horiz-adv-x="590" 
d="M307 231l178 489h126l-181 -504q-45 -124 -118.5 -176t-198.5 -52q-128 0 -215 42l35 95q79 -37 178 -37q144 0 196 143z" />
    <glyph glyph-name="k" unicode="k" horiz-adv-x="850" 
d="M557 0l-224 312h-105l-114 -312h-127l262 720h127l-113 -311h101l427 311h150l-496 -371l249 -349h-137z" />
    <glyph glyph-name="l" unicode="l" horiz-adv-x="724" 
d="M-13 0l262 720h127l-227 -623h463l-35 -97h-590z" />
    <glyph glyph-name="m" unicode="m" horiz-adv-x="1175" 
d="M389 0l-55 629l-229 -629h-118l262 720h119q41 0 58 -16t20 -56l49 -536l485 608h210l-261 -720h-128l227 623l-503 -623h-136z" />
    <glyph glyph-name="n" unicode="n" horiz-adv-x="975" 
d="M538 0l-206 623l-227 -623h-118l262 720h113q61 0 71 -48l197 -578l228 626h120l-262 -720h-178z" />
    <glyph glyph-name="o" unicode="o" 
d="M378 -12q-93 0 -161.5 21t-107.5 58t-56 88t-11.5 109.5t29.5 124.5q64 177 177 260t296 83q116 0 193.5 -32.5t109 -87.5t34.5 -127.5t-30 -153.5q-65 -177 -178 -260t-295 -83zM386 85q129 0 209.5 59t133.5 204q52 135 4 211t-199 76q-128 0 -208.5 -59t-132.5 -203
q-53 -136 -5.5 -212t198.5 -76z" />
    <glyph glyph-name="p" unicode="p" horiz-adv-x="804" 
d="M487 626h-145l-117 -322h177q125 0 179.5 28t84.5 109q37 100 -2.5 142.5t-176.5 42.5zM396 210h-206l-76 -210h-127l262 720h262q200 0 264 -81.5t13 -216.5q-46 -122 -133.5 -167t-258.5 -45z" />
    <glyph glyph-name="q" unicode="q" 
d="M386 85q129 0 209.5 59t133.5 204q52 135 4 211t-199 76q-128 0 -208.5 -59t-132.5 -203q-53 -136 -5.5 -212t198.5 -76zM548 -240q-44 -10 -102 -10q-124 0 -175 60.5t-3 186.5q-82 14 -135 51t-74 89.5t-18 116t30 135.5q64 177 177 260t296 83q116 0 193.5 -32.5
t109 -87.5t34.5 -127.5t-30 -153.5q-65 -177 -178 -260t-295 -83h-4q-25 -56 -17 -88.5t37.5 -45.5t85.5 -13q51 0 98 9z" />
    <glyph glyph-name="r" unicode="r" horiz-adv-x="844" 
d="M501 626h-159l-103 -282h172q125 0 180.5 23.5t79.5 93.5q32 91 -3.5 128t-166.5 37zM518 0l-90 250h-223l-91 -250h-127l262 720h282q185 0 248 -73.5t15 -202.5q-58 -159 -250 -178l104 -266h-130z" />
    <glyph glyph-name="s" unicode="s" horiz-adv-x="763" 
d="M295 -12q-207 0 -343 62l36 101q143 -69 302 -69q189 0 225 100q22 52 1 84.5t-97 49.5l-129 28q-209 45 -146 224q59 164 334 164q147 0 308 -61l-34 -96q-138 64 -286 64q-170 0 -201 -87q-20 -46 -3 -73t86 -43l134 -29q113 -24 149 -87.5t3 -156.5
q-35 -95 -118.5 -135t-220.5 -40z" />
    <glyph glyph-name="t" unicode="t" horiz-adv-x="728" 
d="M815 623h-281l-227 -623h-127l227 623h-285l36 97h693z" />
    <glyph glyph-name="u" unicode="u" horiz-adv-x="882" 
d="M916 720l-155 -431q-62 -173 -157 -237t-261 -64q-186 0 -251.5 84.5t-16.5 219.5l154 428h127l-155 -429q-39 -108 -0.5 -156.5t161.5 -48.5q101 0 164 41t108 164l155 429h127z" />
    <glyph glyph-name="v" unicode="v" horiz-adv-x="804" 
d="M180 0l-48 720h124l37 -636l469 636h146l-513 -674q-32 -46 -77 -46h-138z" />
    <glyph glyph-name="w" unicode="w" horiz-adv-x="1301" 
d="M142 0v720h124l-7 -638l417 638h178l-15 -634l419 634h137l-456 -674q-31 -46 -79 -46h-136l10 629l-388 -583q-27 -46 -81 -46h-123z" />
    <glyph glyph-name="x" unicode="x" horiz-adv-x="843" 
d="M545 0l-140 299l-354 -299h-157l446 372l-169 348h131l140 -300l356 300h153l-446 -373l169 -347h-129z" />
    <glyph glyph-name="y" unicode="y" horiz-adv-x="813" 
d="M335 0h-127l114 313l-190 407h124l151 -320l386 320h152l-499 -416z" />
    <glyph glyph-name="z" unicode="z" horiz-adv-x="797" 
d="M618 0h-673l19 50q12 31 45 55l653 520h-476l35 95h649l-30 -81l-686 -543h498z" />
    <glyph glyph-name="braceleft" unicode="{" horiz-adv-x="463" 
d="M502 870q60 0 112 -20l-22 -72q-44 11 -83 11q-48 0 -72.5 -15.5t-41.5 -64.5l-58 -159q-33 -92 -63 -124t-92 -41q85 -31 42 -145l-85 -232q-18 -39 -5 -61t68 -22q56 0 82 3l-28 -69q-38 -8 -101 -8q-82 0 -111.5 45t1.5 133l89 241q15 44 3 60t-53 16h-36l33 91h21
q93 0 126 92l76 207q26 72 71.5 103t126.5 31z" />
    <glyph glyph-name="bar" unicode="|" horiz-adv-x="460" 
d="M366 870h102l-372 -1020h-102z" />
    <glyph glyph-name="braceright" unicode="}" horiz-adv-x="462" 
d="M-38 -149q-60 0 -112 20l22 72q44 -11 83 -11q48 0 72.5 15.5t41.5 64.5l58 159q33 92 63 124t92 41q-85 30 -42 145l85 232q18 39 5 61t-68 22q-28 0 -82 -3l28 69q40 8 101 8q82 0 111.5 -45t-1.5 -133l-89 -241q-15 -43 -3 -59.5t53 -16.5h37l-34 -91h-21
q-93 0 -126 -92l-76 -207q-27 -74 -71.5 -104t-126.5 -30z" />
    <glyph glyph-name="asciitilde" unicode="~" horiz-adv-x="811" 
d="M676 349q-44 -46 -81.5 -67.5t-80.5 -21.5q-49 0 -89.5 20t-74.5 39.5t-68 19.5q-53 0 -118 -65l-39 63q84 89 161 89q39 0 73 -12.5t54.5 -27t48 -27t55.5 -12.5t54 13.5t66 51.5z" />
    <glyph glyph-name="exclamdown" unicode="&#xa1;" horiz-adv-x="387" 
d="M251 720h142l-43 -120h-142zM204 508h89l-128 -406l-36 -102h-137l37 102z" />
    <glyph glyph-name="cent" unicode="&#xa2;" horiz-adv-x="831" 
d="M231 379q-68 -200 102 -241l165 452q-204 -20 -267 -211zM403 30q-19 0 -29 1l-51 -141h-80l55 150q-137 27 -186 121t3 241q100 279 420 288l47 130h80l-48 -133q98 -8 192 -44l-35 -98q-87 40 -192 46l-169 -462q9 -1 27 -1q130 0 223 28l-36 -99q-82 -27 -221 -27z
" />
    <glyph glyph-name="sterling" unicode="&#xa3;" horiz-adv-x="830" 
d="M651 96l-35 -96h-659l32 86l47 10q116 25 149 117l11 30h-134l28 78h134l28 78h-133l27 78h134l11 30q43 120 131.5 174.5t230.5 54.5q129 0 217 -42l-35 -95q-78 38 -181 38q-188 0 -240 -143l-6 -17h298l-27 -78h-299l-29 -78h299l-28 -78h-299l-12 -34
q-16 -45 -40.5 -71t-60.5 -42h441z" />
    <glyph glyph-name="currency" unicode="&#xa4;" horiz-adv-x="830" 
d="M536 74l-48 77q-48 -16 -114 -16q-91 0 -145 32l-127 -93l-45 70l118 87q-25 62 8 152q29 81 75 129l-53 84l76 52l53 -83q56 26 140 26q94 0 147 -33l123 90l45 -70l-115 -84q24 -62 -8 -151q-38 -99 -97 -148l42 -67zM382 204q72 0 117 33.5t76 116.5q58 167 -109 167
q-72 0 -117.5 -33.5t-75.5 -116.5q-59 -167 109 -167z" />
    <glyph glyph-name="yen" unicode="&#xa5;" horiz-adv-x="829" 
d="M647 243h-213l-89 -243h-127l89 243h-211l27 78h212l28 78h-211l28 78h169l-174 243h131l153 -214l298 214h159l-347 -243h162l-28 -78h-213l-28 -78h212z" />
    <glyph glyph-name="brokenbar" unicode="&#xa6;" horiz-adv-x="494" 
d="M468 870l-146 -401h-102l146 401h102zM140 252h102l-146 -402h-102z" />
    <glyph glyph-name="section" unicode="&#xa7;" horiz-adv-x="670" 
d="M382 272q8 -2 14 -4q42 20 60.5 36.5t26.5 41.5q17 53 -47 67l-149 36q-2 1 -6.5 2t-6.5 1q-42 -19 -61 -36t-27 -42q-15 -51 47 -67zM219 -10q-116 0 -212 36l32 87q79 -37 193 -37q70 0 103 12.5t44 40.5q18 51 -44 65l-139 33q-74 17 -100.5 57.5t-6.5 91.5
q15 42 41.5 65t77.5 42q-57 46 -24 133q42 115 266 115q116 0 212 -36l-32 -88q-78 38 -193 38q-70 0 -103 -12.5t-43 -40.5q-19 -51 43 -65l139 -33q75 -17 101.5 -58t6.5 -92q-16 -41 -42.5 -64t-77.5 -43q57 -45 24 -132q-42 -115 -266 -115z" />
    <glyph glyph-name="dieresis" unicode="&#xa8;" horiz-adv-x="836" 
d="M735 804h-112l34 93h112zM539 804h-112l33 93h112z" />
    <glyph glyph-name="copyright" unicode="&#xa9;" horiz-adv-x="1032" 
d="M431 -20q-244 0 -338 120t-22 312q66 180 190.5 254t343.5 74q122 0 209 -32.5t129.5 -90t50.5 -136.5t-29 -172q-68 -181 -192 -255t-342 -74zM443 48q178 0 279 61t158 209q32 76 30 140.5t-33 112t-103.5 74.5t-181.5 27q-179 0 -280 -61t-157 -209
q-30 -77 -30 -140.5t32 -112t104.5 -75t181.5 -26.5zM738 489q-65 29 -142 29q-163 0 -214 -149q-53 -167 131 -167q81 0 142 18l-28 -76q-53 -17 -143 -17q-136 0 -189.5 71t-9.5 191q74 204 313 204q89 0 167 -29z" />
    <glyph glyph-name="ordfeminine" unicode="&#xaa;" horiz-adv-x="543" 
d="M393 445l-9 229l-166 -229h175zM400 270l-4 104h-230l-75 -104h-106l311 416q27 34 65 34h111l23 -450h-95zM404 114h-406l24 71h406z" />
    <glyph glyph-name="guillemotleft" unicode="&#xab;" horiz-adv-x="656" 
d="M330 616h115l-280 -259l96 -253h-102l-109 261zM585 616h115l-280 -259l96 -253h-102l-109 261z" />
    <glyph glyph-name="logicalnot" unicode="&#xac;" horiz-adv-x="829" 
d="M599 72h-88l88 244h-488l32 89h577z" />
    <glyph glyph-name="registered" unicode="&#xae;" horiz-adv-x="1032" 
d="M431 -20q-244 0 -338 120t-22 312q66 180 190.5 254t343.5 74q122 0 209 -32.5t129.5 -90t50.5 -136.5t-29 -172q-68 -181 -192 -255t-342 -74zM443 48q178 0 279 61t158 209q32 76 30 140.5t-33 112t-103.5 74.5t-181.5 27q-179 0 -280 -61t-157 -209
q-30 -77 -30 -140.5t32 -112t104.5 -75t181.5 -26.5zM573 531h-89l-60 -163h96q70 0 101.5 14t46.5 55q18 51 -2.5 72.5t-92.5 21.5zM574 150l-54 149h-121l-54 -149h-102l164 450h193q116 0 157 -47.5t10 -128.5q-37 -98 -156 -111l66 -163h-103z" />
    <glyph glyph-name="macron" unicode="&#xaf;" horiz-adv-x="836" 
d="M794 823h-412l24 72h412z" />
    <glyph glyph-name="degree" unicode="&#xb0;" horiz-adv-x="615" 
d="M305 260q-147 0 -194.5 71.5t-6.5 182.5t113.5 161.5t191.5 50.5q146 1 194 -71t7 -182q-41 -111 -113.5 -162t-191.5 -51zM313 331q74 0 121 34t78 119q62 171 -111 171q-75 0 -121.5 -34t-77.5 -119q-62 -171 111 -171z" />
    <glyph glyph-name="plusminus" unicode="&#xb1;" horiz-adv-x="829" 
d="M715 391h-244l-62 -169h-88l61 169h-244l33 89h244l61 169h89l-62 -169h245zM22 72l33 88h577l-33 -88h-577z" />
    <glyph glyph-name="twosuperior" unicode="&#xb2;" horiz-adv-x="480" 
d="M466 405h-408l18 48q11 31 38 44l209 115q6 3 22.5 12t22 12.5t18.5 11t18 11.5l14 11t13.5 12.5t9 12.5t7.5 15q14 39 -10.5 61t-97.5 22q-68 0 -147 -21l27 72q71 19 149 19q114 0 159.5 -43t18.5 -118q-11 -31 -40 -57.5t-54 -41t-78 -42.5l-158 -85h275z" />
    <glyph glyph-name="threesuperior" unicode="&#xb3;" horiz-adv-x="502" 
d="M279 397q-113 0 -200 41l26 70q86 -42 171 -42q71 0 108 13t48 44q13 35 -5 59t-76 24h-144l22 59l241 120h-267l26 69h406l-14 -39q-13 -32 -36 -43l-217 -109h15q95 0 131.5 -45t11.5 -112q-22 -59 -83.5 -84t-163.5 -25z" />
    <glyph glyph-name="acute" unicode="&#xb4;" horiz-adv-x="835" 
d="M543 770h-123l205 161h149z" />
    <glyph glyph-name="paragraph" unicode="&#xb6;" horiz-adv-x="700" 
d="M454 0h-89l262 720h89zM285 0h-89l130 357h-20q-264 0 -189 210q30 83 94.5 118t161.5 35h174z" />
    <glyph glyph-name="periodcentered" unicode="&#xb7;" horiz-adv-x="387" 
d="M245 301h-142l43 120h142z" />
    <glyph glyph-name="cedilla" unicode="&#xb8;" horiz-adv-x="836" 
d="M145 -195l20 66q54 -20 97 -20q52 0 65 34q9 26 -1 54t-47 70h90q19 -26 30 -43t17.5 -36t5.5 -37.5t-10 -40.5q-29 -73 -139 -73q-80 0 -128 26z" />
    <glyph glyph-name="onesuperior" unicode="&#xb9;" horiz-adv-x="340" 
d="M281 405h-101l131 364l-168 -71l29 81l182 76h90z" />
    <glyph glyph-name="ordmasculine" unicode="&#xba;" horiz-adv-x="603" 
d="M298 258q-147 0 -194.5 71.5t-6.5 182.5q41 110 113.5 161t191.5 51q146 1 194 -71t7 -182q-41 -111 -113.5 -162t-191.5 -51zM306 329q74 0 121 34t78 119q62 171 -111 171q-75 0 -121.5 -34t-77.5 -119q-62 -171 111 -171zM421 114h-406l24 71h406z" />
    <glyph glyph-name="guillemotright" unicode="&#xbb;" horiz-adv-x="655" 
d="M328 104h-115l280 259l-96 253h102l109 -261zM73 104h-115l280 259l-96 253h102l109 -261z" />
    <glyph glyph-name="onequarter" unicode="&#xbc;" horiz-adv-x="1095" 
d="M717 720h111l-545 -719h-111zM232 270h-101l131 364l-168 -71l29 81l182 76h90zM839 188l76 211l-263 -211h187zM990 120h-79l-43 -120h-98l44 120h-281l27 76l291 229q28 25 57 25h123l-95 -262h79z" />
    <glyph glyph-name="onehalf" unicode="&#xbd;" horiz-adv-x="1065" 
d="M680 720h111l-545 -719h-111zM232 270h-101l131 364l-168 -71l29 81l182 76h90zM903 0h-408l18 48q11 31 38 44l209 115q6 3 22.5 12t22 12.5t18.5 11t18 11.5l14 11t13.5 12.5t9 12.5t7.5 15q14 39 -10.5 61t-97.5 22q-68 0 -147 -21l27 72q71 19 149 19
q114 0 159.5 -43t18.5 -118q-11 -31 -40 -57.5t-54 -41t-78 -42.5l-158 -85h275z" />
    <glyph glyph-name="threequarters" unicode="&#xbe;" horiz-adv-x="1257" 
d="M871 720h111l-545 -719h-111zM1002 188l76 211l-263 -211h187zM230 262q-113 0 -200 41l26 70q86 -42 171 -42q71 0 108 13t48 44q13 35 -5 59t-76 24h-144l22 59l241 120h-267l26 69h406l-14 -39q-13 -32 -36 -43l-217 -109h15q95 0 131.5 -45t11.5 -112
q-22 -59 -83.5 -84t-163.5 -25zM1153 120h-79l-43 -120h-98l44 120h-281l27 76l291 229q28 25 57 25h123l-95 -262h79z" />
    <glyph glyph-name="questiondown" unicode="&#xbf;" horiz-adv-x="620" 
d="M514 720h142l-44 -120h-141zM154 227q-11 -30 -11 -53.5t14.5 -47.5t59 -37t116.5 -13q93 0 209 33l-36 -100q-100 -27 -214 -27q-75 0 -130 15t-85.5 40.5t-44.5 59.5t-12 70.5t17 76.5q33 91 107.5 132t199.5 51l97 8l27 76h101l-58 -160l-116 -8q-110 -8 -164.5 -31
t-76.5 -85z" />
    <glyph glyph-name="Agrave" unicode="&#xc0;" horiz-adv-x="809" 
d="M501 770l-142 161h130l122 -161h-110zM542 274l-21 383l-284 -383h305zM558 0l-10 179h-381l-132 -179h-137l513 674q32 46 86 46h134l48 -720h-121z" />
    <glyph glyph-name="Aacute" unicode="&#xc1;" horiz-adv-x="809" 
d="M612 770h-123l205 161h149zM542 274l-21 383l-284 -383h305zM558 0l-10 179h-381l-132 -179h-137l513 674q32 46 86 46h134l48 -720h-121z" />
    <glyph glyph-name="Acircumflex" unicode="&#xc2;" horiz-adv-x="809" 
d="M655 770l-57 121l-127 -121h-110l160 161h161l67 -161h-94zM542 274l-21 383l-284 -383h305zM558 0l-10 179h-381l-132 -179h-137l513 674q32 46 86 46h134l48 -720h-121z" />
    <glyph glyph-name="Atilde" unicode="&#xc3;" horiz-adv-x="809" 
d="M335 770q38 106 65 137t86 31q32 0 59 -16.5t43 -36t35.5 -36t37.5 -16.5q23 0 35.5 17.5t34.5 80.5h82q-37 -106 -64.5 -137t-86.5 -31q-32 0 -59 16.5t-43 36.5t-35.5 36.5t-37.5 16.5q-23 0 -35 -18t-35 -81h-82zM542 274l-21 383l-284 -383h305zM558 0l-10 179h-381
l-132 -179h-137l513 674q32 46 86 46h134l48 -720h-121z" />
    <glyph glyph-name="Adieresis" unicode="&#xc4;" horiz-adv-x="809" 
d="M721 804h-112l34 93h112zM525 804h-112l33 93h112zM542 274l-21 383l-284 -383h305zM558 0l-10 179h-381l-132 -179h-137l513 674q32 46 86 46h134l48 -720h-121z" />
    <glyph glyph-name="Aring" unicode="&#xc5;" horiz-adv-x="809" 
d="M548 760q-89 0 -122 26.5t-15 77.5q28 77 177 77q89 0 122 -26.5t15 -76.5q-28 -78 -177 -78zM561 809q59 0 74 38q8 24 -5.5 34t-52.5 10q-61 0 -76 -38q-8 -24 6 -34t54 -10zM542 274l-21 383l-284 -383h305zM558 0l-10 179h-381l-132 -179h-137l513 674q32 46 86 46
h134l48 -720h-121z" />
    <glyph glyph-name="AE" unicode="&#xc6;" horiz-adv-x="1294" 
d="M627 314l121 333l-371 -333h250zM513 0l80 219h-322l-245 -219h-156l764 674q25 25 44 35.5t46 10.5h649l-35 -94h-470l-80 -219h423l-35 -94h-422l-80 -219h471l-34 -94h-598z" />
    <glyph glyph-name="Ccedilla" unicode="&#xc7;" horiz-adv-x="795" 
d="M259 -221q-80 0 -128 26l20 66q54 -20 97 -20q52 0 65 34q9 22 0.5 48.5t-38.5 63.5q-150 29 -203.5 136.5t4.5 269.5q121 329 485 329q134 0 257 -48l-35 -97q-104 47 -229 47q-275 0 -360 -257q-48 -143 9.5 -217t209.5 -74q130 0 227 29l-36 -99q-83 -28 -225 -28h-9
q28 -40 35 -67.5t-7 -68.5q-29 -73 -139 -73z" />
    <glyph glyph-name="Egrave" unicode="&#xc8;" horiz-adv-x="769" 
d="M512 770l-142 161h130l122 -161h-110zM-13 0l262 720h598l-35 -94h-470l-80 -219h423l-35 -94h-422l-80 -219h471l-34 -94h-598z" />
    <glyph glyph-name="Eacute" unicode="&#xc9;" horiz-adv-x="769" 
d="M623 770h-123l205 161h149zM-13 0l262 720h598l-35 -94h-470l-80 -219h423l-35 -94h-422l-80 -219h471l-34 -94h-598z" />
    <glyph glyph-name="Ecircumflex" unicode="&#xca;" horiz-adv-x="769" 
d="M665 770l-57 121l-127 -121h-110l160 161h161l67 -161h-94zM-13 0l262 720h598l-35 -94h-470l-80 -219h423l-35 -94h-422l-80 -219h471l-34 -94h-598z" />
    <glyph glyph-name="Edieresis" unicode="&#xcb;" horiz-adv-x="769" 
d="M731 804h-112l34 93h112zM535 804h-112l33 93h112zM-13 0l262 720h598l-35 -94h-470l-80 -219h423l-35 -94h-422l-80 -219h471l-34 -94h-598z" />
    <glyph glyph-name="Igrave" unicode="&#xcc;" horiz-adv-x="361" 
d="M278 770l-142 161h130l122 -161h-110zM114 0h-127l262 720h127z" />
    <glyph glyph-name="Iacute" unicode="&#xcd;" horiz-adv-x="361" 
d="M389 770h-123l205 161h149zM114 0h-127l262 720h127z" />
    <glyph glyph-name="Icircumflex" unicode="&#xce;" horiz-adv-x="361" 
d="M431 770l-57 121l-127 -121h-110l160 161h161l67 -161h-94zM114 0h-127l262 720h127z" />
    <glyph glyph-name="Idieresis" unicode="&#xcf;" horiz-adv-x="361" 
d="M497 804h-112l34 93h112zM301 804h-112l33 93h112zM114 0h-127l262 720h127z" />
    <glyph glyph-name="Eth" unicode="&#xd0;" horiz-adv-x="889" 
d="M418 329h-184l-85 -233h200q142 0 220.5 56.5t129.5 197.5q46 126 4.5 200.5t-163.5 74.5h-199l-81 -224h184zM-13 0l120 329h-116l26 72h116l116 319h299q99 0 167.5 -31.5t98.5 -85t33.5 -124t-27.5 -148.5q-63 -172 -173.5 -251.5t-301.5 -79.5h-358z" />
    <glyph glyph-name="Ntilde" unicode="&#xd1;" horiz-adv-x="975" 
d="M419 770q38 106 65 137t86 31q32 0 59 -16.5t43 -36t35.5 -36t37.5 -16.5q23 0 35.5 17.5t34.5 80.5h82q-37 -106 -64.5 -137t-86.5 -31q-32 0 -59 16.5t-43 36.5t-35.5 36.5t-37.5 16.5q-23 0 -35 -18t-35 -81h-82zM538 0l-206 623l-227 -623h-118l262 720h113
q61 0 71 -48l197 -578l228 626h120l-262 -720h-178z" />
    <glyph glyph-name="Ograve" unicode="&#xd2;" 
d="M546 770l-142 161h130l122 -161h-110zM378 -12q-93 0 -161.5 21t-107.5 58t-56 88t-11.5 109.5t29.5 124.5q64 177 177 260t296 83q116 0 193.5 -32.5t109 -87.5t34.5 -127.5t-30 -153.5q-65 -177 -178 -260t-295 -83zM386 85q129 0 209.5 59t133.5 204q52 135 4 211
t-199 76q-128 0 -208.5 -59t-132.5 -203q-53 -136 -5.5 -212t198.5 -76z" />
    <glyph glyph-name="Oacute" unicode="&#xd3;" 
d="M657 770h-123l205 161h149zM378 -12q-93 0 -161.5 21t-107.5 58t-56 88t-11.5 109.5t29.5 124.5q64 177 177 260t296 83q116 0 193.5 -32.5t109 -87.5t34.5 -127.5t-30 -153.5q-65 -177 -178 -260t-295 -83zM386 85q129 0 209.5 59t133.5 204q52 135 4 211t-199 76
q-128 0 -208.5 -59t-132.5 -203q-53 -136 -5.5 -212t198.5 -76z" />
    <glyph glyph-name="Ocircumflex" unicode="&#xd4;" 
d="M700 770l-57 121l-127 -121h-110l160 161h161l67 -161h-94zM378 -12q-93 0 -161.5 21t-107.5 58t-56 88t-11.5 109.5t29.5 124.5q64 177 177 260t296 83q116 0 193.5 -32.5t109 -87.5t34.5 -127.5t-30 -153.5q-65 -177 -178 -260t-295 -83zM386 85q129 0 209.5 59
t133.5 204q52 135 4 211t-199 76q-128 0 -208.5 -59t-132.5 -203q-53 -136 -5.5 -212t198.5 -76z" />
    <glyph glyph-name="Otilde" unicode="&#xd5;" 
d="M380 770q38 106 65 137t86 31q32 0 59 -16.5t43 -36t35.5 -36t37.5 -16.5q23 0 35.5 17.5t34.5 80.5h82q-37 -106 -64.5 -137t-86.5 -31q-32 0 -59 16.5t-43 36.5t-35.5 36.5t-37.5 16.5q-23 0 -35 -18t-35 -81h-82zM378 -12q-93 0 -161.5 21t-107.5 58t-56 88
t-11.5 109.5t29.5 124.5q64 177 177 260t296 83q116 0 193.5 -32.5t109 -87.5t34.5 -127.5t-30 -153.5q-65 -177 -178 -260t-295 -83zM386 85q129 0 209.5 59t133.5 204q52 135 4 211t-199 76q-128 0 -208.5 -59t-132.5 -203q-53 -136 -5.5 -212t198.5 -76z" />
    <glyph glyph-name="Odieresis" unicode="&#xd6;" 
d="M766 804h-112l34 93h112zM570 804h-112l33 93h112zM378 -12q-93 0 -161.5 21t-107.5 58t-56 88t-11.5 109.5t29.5 124.5q64 177 177 260t296 83q116 0 193.5 -32.5t109 -87.5t34.5 -127.5t-30 -153.5q-65 -177 -178 -260t-295 -83zM386 85q129 0 209.5 59t133.5 204
q52 135 4 211t-199 76q-128 0 -208.5 -59t-132.5 -203q-53 -136 -5.5 -212t198.5 -76z" />
    <glyph glyph-name="multiply" unicode="&#xd7;" horiz-adv-x="829" 
d="M537 74l-138 217l-295 -217l-46 70l297 218l-149 234l77 52l147 -231l315 231l45 -70l-315 -232l138 -218z" />
    <glyph glyph-name="Oslash" unicode="&#xd8;" 
d="M378 -12q-192 0 -277 87l-111 -75l-40 59l111 75q-46 102 10 255q64 177 177 260t296 83q191 0 276 -87l111 75l39 -60l-110 -74q47 -103 -9 -255q-65 -177 -178 -260t-295 -83zM193 373q-36 -99 -23 -166l549 370q-53 58 -185 58q-128 0 -208.5 -59t-132.5 -203zM386 85
q129 0 209.5 59t133.5 204q35 99 22 165l-549 -370q53 -58 184 -58z" />
    <glyph glyph-name="Ugrave" unicode="&#xd9;" horiz-adv-x="882" 
d="M539 770l-142 161h130l122 -161h-110zM916 720l-155 -431q-62 -173 -157 -237t-261 -64q-186 0 -251.5 84.5t-16.5 219.5l154 428h127l-155 -429q-39 -108 -0.5 -156.5t161.5 -48.5q101 0 164 41t108 164l155 429h127z" />
    <glyph glyph-name="Uacute" unicode="&#xda;" horiz-adv-x="882" 
d="M650 770h-123l205 161h149zM916 720l-155 -431q-62 -173 -157 -237t-261 -64q-186 0 -251.5 84.5t-16.5 219.5l154 428h127l-155 -429q-39 -108 -0.5 -156.5t161.5 -48.5q101 0 164 41t108 164l155 429h127z" />
    <glyph glyph-name="Ucircumflex" unicode="&#xdb;" horiz-adv-x="882" 
d="M692 770l-57 121l-127 -121h-110l160 161h161l67 -161h-94zM916 720l-155 -431q-62 -173 -157 -237t-261 -64q-186 0 -251.5 84.5t-16.5 219.5l154 428h127l-155 -429q-39 -108 -0.5 -156.5t161.5 -48.5q101 0 164 41t108 164l155 429h127z" />
    <glyph glyph-name="Udieresis" unicode="&#xdc;" horiz-adv-x="882" 
d="M758 804h-112l34 93h112zM562 804h-112l33 93h112zM916 720l-155 -431q-62 -173 -157 -237t-261 -64q-186 0 -251.5 84.5t-16.5 219.5l154 428h127l-155 -429q-39 -108 -0.5 -156.5t161.5 -48.5q101 0 164 41t108 164l155 429h127z" />
    <glyph glyph-name="Yacute" unicode="&#xdd;" horiz-adv-x="813" 
d="M603 770h-123l205 161h149zM335 0h-127l114 313l-190 407h124l151 -320l386 320h152l-499 -416z" />
    <glyph glyph-name="Thorn" unicode="&#xde;" horiz-adv-x="804" 
d="M449 522h-145l-117 -322h176q126 0 181 28t83 109q36 101 -2.5 143t-175.5 42zM358 106h-205l-39 -106h-127l262 720h127l-38 -104h134q103 0 171 -22.5t96.5 -62.5t32 -94.5t-22.5 -118.5q-45 -122 -132 -167t-259 -45z" />
    <glyph glyph-name="germandbls" unicode="&#xdf;" horiz-adv-x="1526" 
d="M1058 -12q-207 0 -343 62l36 101q143 -69 302 -69q189 0 225 100q22 52 1 84.5t-97 49.5l-129 28q-209 45 -146 224q59 164 334 164q147 0 308 -61l-34 -96q-138 64 -286 64q-90 0 -137.5 -21.5t-63.5 -65.5q-20 -46 -3 -73t86 -43l134 -29q113 -24 149 -87.5t3 -156.5
q-35 -95 -118.5 -135t-220.5 -40zM295 -12q-207 0 -343 62l36 101q143 -69 302 -69q189 0 225 100q22 52 1 84.5t-97 49.5l-129 28q-209 45 -146 224q59 164 334 164q147 0 308 -61l-34 -96q-138 64 -286 64q-170 0 -201 -87q-20 -46 -3 -73t86 -43l134 -29
q113 -24 149 -87.5t3 -156.5q-35 -95 -118.5 -135t-220.5 -40z" />
    <glyph glyph-name="agrave" unicode="&#xe0;" horiz-adv-x="809" 
d="M501 770l-142 161h130l122 -161h-110zM542 274l-21 383l-284 -383h305zM558 0l-10 179h-381l-132 -179h-137l513 674q32 46 86 46h134l48 -720h-121z" />
    <glyph glyph-name="aacute" unicode="&#xe1;" horiz-adv-x="809" 
d="M612 770h-123l205 161h149zM542 274l-21 383l-284 -383h305zM558 0l-10 179h-381l-132 -179h-137l513 674q32 46 86 46h134l48 -720h-121z" />
    <glyph glyph-name="acircumflex" unicode="&#xe2;" horiz-adv-x="809" 
d="M655 770l-57 121l-127 -121h-110l160 161h161l67 -161h-94zM542 274l-21 383l-284 -383h305zM558 0l-10 179h-381l-132 -179h-137l513 674q32 46 86 46h134l48 -720h-121z" />
    <glyph glyph-name="atilde" unicode="&#xe3;" horiz-adv-x="809" 
d="M335 770q38 106 65 137t86 31q32 0 59 -16.5t43 -36t35.5 -36t37.5 -16.5q23 0 35.5 17.5t34.5 80.5h82q-37 -106 -64.5 -137t-86.5 -31q-32 0 -59 16.5t-43 36.5t-35.5 36.5t-37.5 16.5q-23 0 -35 -18t-35 -81h-82zM542 274l-21 383l-284 -383h305zM558 0l-10 179h-381
l-132 -179h-137l513 674q32 46 86 46h134l48 -720h-121z" />
    <glyph glyph-name="adieresis" unicode="&#xe4;" horiz-adv-x="809" 
d="M721 804h-112l34 93h112zM525 804h-112l33 93h112zM542 274l-21 383l-284 -383h305zM558 0l-10 179h-381l-132 -179h-137l513 674q32 46 86 46h134l48 -720h-121z" />
    <glyph glyph-name="aring" unicode="&#xe5;" horiz-adv-x="809" 
d="M548 760q-89 0 -122 26.5t-15 77.5q28 77 177 77q89 0 122 -26.5t15 -76.5q-28 -78 -177 -78zM561 809q59 0 74 38q8 24 -5.5 34t-52.5 10q-61 0 -76 -38q-8 -24 6 -34t54 -10zM542 274l-21 383l-284 -383h305zM558 0l-10 179h-381l-132 -179h-137l513 674q32 46 86 46
h134l48 -720h-121z" />
    <glyph glyph-name="ae" unicode="&#xe6;" horiz-adv-x="1294" 
d="M627 314l121 333l-371 -333h250zM513 0l80 219h-322l-245 -219h-156l764 674q25 25 44 35.5t46 10.5h649l-35 -94h-470l-80 -219h423l-35 -94h-422l-80 -219h471l-34 -94h-598z" />
    <glyph glyph-name="ccedilla" unicode="&#xe7;" horiz-adv-x="795" 
d="M259 -221q-80 0 -128 26l20 66q54 -20 97 -20q52 0 65 34q9 22 0.5 48.5t-38.5 63.5q-150 29 -203.5 136.5t4.5 269.5q121 329 485 329q134 0 257 -48l-35 -97q-104 47 -229 47q-275 0 -360 -257q-48 -143 9.5 -217t209.5 -74q130 0 227 29l-36 -99q-83 -28 -225 -28h-9
q28 -40 35 -67.5t-7 -68.5q-29 -73 -139 -73z" />
    <glyph glyph-name="egrave" unicode="&#xe8;" horiz-adv-x="769" 
d="M512 770l-142 161h130l122 -161h-110zM-13 0l262 720h598l-35 -94h-470l-80 -219h423l-35 -94h-422l-80 -219h471l-34 -94h-598z" />
    <glyph glyph-name="eacute" unicode="&#xe9;" horiz-adv-x="769" 
d="M623 770h-123l205 161h149zM-13 0l262 720h598l-35 -94h-470l-80 -219h423l-35 -94h-422l-80 -219h471l-34 -94h-598z" />
    <glyph glyph-name="ecircumflex" unicode="&#xea;" horiz-adv-x="769" 
d="M665 770l-57 121l-127 -121h-110l160 161h161l67 -161h-94zM-13 0l262 720h598l-35 -94h-470l-80 -219h423l-35 -94h-422l-80 -219h471l-34 -94h-598z" />
    <glyph glyph-name="edieresis" unicode="&#xeb;" horiz-adv-x="769" 
d="M731 804h-112l34 93h112zM535 804h-112l33 93h112zM-13 0l262 720h598l-35 -94h-470l-80 -219h423l-35 -94h-422l-80 -219h471l-34 -94h-598z" />
    <glyph glyph-name="igrave" unicode="&#xec;" horiz-adv-x="361" 
d="M278 770l-142 161h130l122 -161h-110zM114 0h-127l262 720h127z" />
    <glyph glyph-name="iacute" unicode="&#xed;" horiz-adv-x="361" 
d="M389 770h-123l205 161h149zM114 0h-127l262 720h127z" />
    <glyph glyph-name="icircumflex" unicode="&#xee;" horiz-adv-x="361" 
d="M431 770l-57 121l-127 -121h-110l160 161h161l67 -161h-94zM114 0h-127l262 720h127z" />
    <glyph glyph-name="idieresis" unicode="&#xef;" horiz-adv-x="361" 
d="M497 804h-112l34 93h112zM301 804h-112l33 93h112zM114 0h-127l262 720h127z" />
    <glyph glyph-name="eth" unicode="&#xf0;" horiz-adv-x="889" 
d="M418 329h-184l-85 -233h200q142 0 220.5 56.5t129.5 197.5q46 126 4.5 200.5t-163.5 74.5h-199l-81 -224h184zM-13 0l120 329h-116l26 72h116l116 319h299q99 0 167.5 -31.5t98.5 -85t33.5 -124t-27.5 -148.5q-63 -172 -173.5 -251.5t-301.5 -79.5h-358z" />
    <glyph glyph-name="ntilde" unicode="&#xf1;" horiz-adv-x="975" 
d="M419 770q38 106 65 137t86 31q32 0 59 -16.5t43 -36t35.5 -36t37.5 -16.5q23 0 35.5 17.5t34.5 80.5h82q-37 -106 -64.5 -137t-86.5 -31q-32 0 -59 16.5t-43 36.5t-35.5 36.5t-37.5 16.5q-23 0 -35 -18t-35 -81h-82zM538 0l-206 623l-227 -623h-118l262 720h113
q61 0 71 -48l197 -578l228 626h120l-262 -720h-178z" />
    <glyph glyph-name="ograve" unicode="&#xf2;" 
d="M546 770l-142 161h130l122 -161h-110zM378 -12q-93 0 -161.5 21t-107.5 58t-56 88t-11.5 109.5t29.5 124.5q64 177 177 260t296 83q116 0 193.5 -32.5t109 -87.5t34.5 -127.5t-30 -153.5q-65 -177 -178 -260t-295 -83zM386 85q129 0 209.5 59t133.5 204q52 135 4 211
t-199 76q-128 0 -208.5 -59t-132.5 -203q-53 -136 -5.5 -212t198.5 -76z" />
    <glyph glyph-name="oacute" unicode="&#xf3;" 
d="M657 770h-123l205 161h149zM378 -12q-93 0 -161.5 21t-107.5 58t-56 88t-11.5 109.5t29.5 124.5q64 177 177 260t296 83q116 0 193.5 -32.5t109 -87.5t34.5 -127.5t-30 -153.5q-65 -177 -178 -260t-295 -83zM386 85q129 0 209.5 59t133.5 204q52 135 4 211t-199 76
q-128 0 -208.5 -59t-132.5 -203q-53 -136 -5.5 -212t198.5 -76z" />
    <glyph glyph-name="ocircumflex" unicode="&#xf4;" 
d="M700 770l-57 121l-127 -121h-110l160 161h161l67 -161h-94zM378 -12q-93 0 -161.5 21t-107.5 58t-56 88t-11.5 109.5t29.5 124.5q64 177 177 260t296 83q116 0 193.5 -32.5t109 -87.5t34.5 -127.5t-30 -153.5q-65 -177 -178 -260t-295 -83zM386 85q129 0 209.5 59
t133.5 204q52 135 4 211t-199 76q-128 0 -208.5 -59t-132.5 -203q-53 -136 -5.5 -212t198.5 -76z" />
    <glyph glyph-name="otilde" unicode="&#xf5;" 
d="M380 770q38 106 65 137t86 31q32 0 59 -16.5t43 -36t35.5 -36t37.5 -16.5q23 0 35.5 17.5t34.5 80.5h82q-37 -106 -64.5 -137t-86.5 -31q-32 0 -59 16.5t-43 36.5t-35.5 36.5t-37.5 16.5q-23 0 -35 -18t-35 -81h-82zM378 -12q-93 0 -161.5 21t-107.5 58t-56 88
t-11.5 109.5t29.5 124.5q64 177 177 260t296 83q116 0 193.5 -32.5t109 -87.5t34.5 -127.5t-30 -153.5q-65 -177 -178 -260t-295 -83zM386 85q129 0 209.5 59t133.5 204q52 135 4 211t-199 76q-128 0 -208.5 -59t-132.5 -203q-53 -136 -5.5 -212t198.5 -76z" />
    <glyph glyph-name="odieresis" unicode="&#xf6;" 
d="M766 804h-112l34 93h112zM570 804h-112l33 93h112zM378 -12q-93 0 -161.5 21t-107.5 58t-56 88t-11.5 109.5t29.5 124.5q64 177 177 260t296 83q116 0 193.5 -32.5t109 -87.5t34.5 -127.5t-30 -153.5q-65 -177 -178 -260t-295 -83zM386 85q129 0 209.5 59t133.5 204
q52 135 4 211t-199 76q-128 0 -208.5 -59t-132.5 -203q-53 -136 -5.5 -212t198.5 -76z" />
    <glyph glyph-name="divide" unicode="&#xf7;" horiz-adv-x="829" 
d="M468 649h105l-34 -95h-106zM111 316l32 89h577l-32 -89h-577zM292 167h106l-35 -95h-105z" />
    <glyph glyph-name="oslash" unicode="&#xf8;" 
d="M378 -12q-192 0 -277 87l-111 -75l-40 59l111 75q-46 102 10 255q64 177 177 260t296 83q191 0 276 -87l111 75l39 -60l-110 -74q47 -103 -9 -255q-65 -177 -178 -260t-295 -83zM193 373q-36 -99 -23 -166l549 370q-53 58 -185 58q-128 0 -208.5 -59t-132.5 -203zM386 85
q129 0 209.5 59t133.5 204q35 99 22 165l-549 -370q53 -58 184 -58z" />
    <glyph glyph-name="ugrave" unicode="&#xf9;" horiz-adv-x="882" 
d="M539 770l-142 161h130l122 -161h-110zM916 720l-155 -431q-62 -173 -157 -237t-261 -64q-186 0 -251.5 84.5t-16.5 219.5l154 428h127l-155 -429q-39 -108 -0.5 -156.5t161.5 -48.5q101 0 164 41t108 164l155 429h127z" />
    <glyph glyph-name="uacute" unicode="&#xfa;" horiz-adv-x="882" 
d="M650 770h-123l205 161h149zM916 720l-155 -431q-62 -173 -157 -237t-261 -64q-186 0 -251.5 84.5t-16.5 219.5l154 428h127l-155 -429q-39 -108 -0.5 -156.5t161.5 -48.5q101 0 164 41t108 164l155 429h127z" />
    <glyph glyph-name="ucircumflex" unicode="&#xfb;" horiz-adv-x="882" 
d="M692 770l-57 121l-127 -121h-110l160 161h161l67 -161h-94zM916 720l-155 -431q-62 -173 -157 -237t-261 -64q-186 0 -251.5 84.5t-16.5 219.5l154 428h127l-155 -429q-39 -108 -0.5 -156.5t161.5 -48.5q101 0 164 41t108 164l155 429h127z" />
    <glyph glyph-name="udieresis" unicode="&#xfc;" horiz-adv-x="882" 
d="M758 804h-112l34 93h112zM562 804h-112l33 93h112zM916 720l-155 -431q-62 -173 -157 -237t-261 -64q-186 0 -251.5 84.5t-16.5 219.5l154 428h127l-155 -429q-39 -108 -0.5 -156.5t161.5 -48.5q101 0 164 41t108 164l155 429h127z" />
    <glyph glyph-name="yacute" unicode="&#xfd;" horiz-adv-x="813" 
d="M603 770h-123l205 161h149zM335 0h-127l114 313l-190 407h124l151 -320l386 320h152l-499 -416z" />
    <glyph glyph-name="thorn" unicode="&#xfe;" horiz-adv-x="804" 
d="M449 522h-145l-117 -322h176q126 0 181 28t83 109q36 101 -2.5 143t-175.5 42zM358 106h-205l-39 -106h-127l262 720h127l-38 -104h134q103 0 171 -22.5t96.5 -62.5t32 -94.5t-22.5 -118.5q-45 -122 -132 -167t-259 -45z" />
    <glyph glyph-name="ydieresis" unicode="&#xff;" horiz-adv-x="813" 
d="M711 804h-112l34 93h112zM515 804h-112l33 93h112zM335 0h-127l114 313l-190 407h124l151 -320l386 320h152l-499 -416z" />
    <glyph glyph-name="Amacron" unicode="&#x100;" horiz-adv-x="809" 
d="M780 823h-412l24 72h412zM542 274l-21 383l-284 -383h305zM558 0l-10 179h-381l-132 -179h-137l513 674q32 46 86 46h134l48 -720h-121z" />
    <glyph glyph-name="amacron" unicode="&#x101;" horiz-adv-x="809" 
d="M780 823h-412l24 72h412zM542 274l-21 383l-284 -383h305zM558 0l-10 179h-381l-132 -179h-137l513 674q32 46 86 46h134l48 -720h-121z" />
    <glyph glyph-name="Abreve" unicode="&#x102;" horiz-adv-x="809" 
d="M529 931q-19 -55 -6.5 -82t51.5 -27q83 0 123 109h92q-34 -93 -86.5 -132t-138.5 -39q-85 0 -120.5 44t-5.5 127h91zM542 274l-21 383l-284 -383h305zM558 0l-10 179h-381l-132 -179h-137l513 674q32 46 86 46h134l48 -720h-121z" />
    <glyph glyph-name="abreve" unicode="&#x103;" horiz-adv-x="809" 
d="M529 931q-19 -55 -6.5 -82t51.5 -27q83 0 123 109h92q-34 -93 -86.5 -132t-138.5 -39q-85 0 -120.5 44t-5.5 127h91zM542 274l-21 383l-284 -383h305zM558 0l-10 179h-381l-132 -179h-137l513 674q32 46 86 46h134l48 -720h-121z" />
    <glyph glyph-name="Aogonek" unicode="&#x104;" horiz-adv-x="809" 
d="M542 274l-21 383l-284 -383h305zM683 -207q-40 -14 -90 -14q-80 0 -115.5 35t-15.5 91q20 58 96 99l-10 175h-381l-132 -179h-137l513 674q32 46 86 46h134l48 -720h-35q-70 -47 -81 -92q-8 -31 6.5 -45t53.5 -14q46 0 85 13z" />
    <glyph glyph-name="aogonek" unicode="&#x105;" horiz-adv-x="809" 
d="M542 274l-21 383l-284 -383h305zM683 -207q-40 -14 -90 -14q-80 0 -115.5 35t-15.5 91q20 58 96 99l-10 175h-381l-132 -179h-137l513 674q32 46 86 46h134l48 -720h-35q-70 -47 -81 -92q-8 -31 6.5 -45t53.5 -14q46 0 85 13z" />
    <glyph glyph-name="Cacute" unicode="&#x106;" horiz-adv-x="795" 
d="M642 770h-123l205 161h149zM783 587q-104 47 -229 47q-275 0 -360 -257q-48 -143 9.5 -217t209.5 -74q130 0 227 29l-36 -99q-83 -28 -225 -28q-205 0 -288.5 113.5t-14.5 301.5q121 329 485 329q134 0 257 -48z" />
    <glyph glyph-name="cacute" unicode="&#x107;" horiz-adv-x="795" 
d="M642 770h-123l205 161h149zM783 587q-104 47 -229 47q-275 0 -360 -257q-48 -143 9.5 -217t209.5 -74q130 0 227 29l-36 -99q-83 -28 -225 -28q-205 0 -288.5 113.5t-14.5 301.5q121 329 485 329q134 0 257 -48z" />
    <glyph glyph-name="Ccircumflex" unicode="&#x108;" horiz-adv-x="795" 
d="M684 770l-57 121l-127 -121h-110l160 161h161l67 -161h-94zM783 587q-104 47 -229 47q-275 0 -360 -257q-48 -143 9.5 -217t209.5 -74q130 0 227 29l-36 -99q-83 -28 -225 -28q-205 0 -288.5 113.5t-14.5 301.5q121 329 485 329q134 0 257 -48z" />
    <glyph glyph-name="ccircumflex" unicode="&#x109;" horiz-adv-x="795" 
d="M684 770l-57 121l-127 -121h-110l160 161h161l67 -161h-94zM783 587q-104 47 -229 47q-275 0 -360 -257q-48 -143 9.5 -217t209.5 -74q130 0 227 29l-36 -99q-83 -28 -225 -28q-205 0 -288.5 113.5t-14.5 301.5q121 329 485 329q134 0 257 -48z" />
    <glyph glyph-name="Cdotaccent" unicode="&#x10a;" horiz-adv-x="795" 
d="M662 804h-127l34 93h127zM783 587q-104 47 -229 47q-275 0 -360 -257q-48 -143 9.5 -217t209.5 -74q130 0 227 29l-36 -99q-83 -28 -225 -28q-205 0 -288.5 113.5t-14.5 301.5q121 329 485 329q134 0 257 -48z" />
    <glyph glyph-name="cdotaccent" unicode="&#x10b;" horiz-adv-x="795" 
d="M662 804h-127l34 93h127zM783 587q-104 47 -229 47q-275 0 -360 -257q-48 -143 9.5 -217t209.5 -74q130 0 227 29l-36 -99q-83 -28 -225 -28q-205 0 -288.5 113.5t-14.5 301.5q121 329 485 329q134 0 257 -48z" />
    <glyph glyph-name="Ccaron" unicode="&#x10c;" horiz-adv-x="795" 
d="M512 770l-67 161h95l57 -121l126 121h110l-160 -161h-161zM783 587q-104 47 -229 47q-275 0 -360 -257q-48 -143 9.5 -217t209.5 -74q130 0 227 29l-36 -99q-83 -28 -225 -28q-205 0 -288.5 113.5t-14.5 301.5q121 329 485 329q134 0 257 -48z" />
    <glyph glyph-name="ccaron" unicode="&#x10d;" horiz-adv-x="795" 
d="M512 770l-67 161h95l57 -121l126 121h110l-160 -161h-161zM783 587q-104 47 -229 47q-275 0 -360 -257q-48 -143 9.5 -217t209.5 -74q130 0 227 29l-36 -99q-83 -28 -225 -28q-205 0 -288.5 113.5t-14.5 301.5q121 329 485 329q134 0 257 -48z" />
    <glyph glyph-name="Dcaron" unicode="&#x10e;" horiz-adv-x="889" 
d="M499 770l-67 161h95l57 -121l126 121h110l-160 -161h-161zM540 625h-199l-192 -529h200q142 0 220.5 56.5t129.5 197.5q46 126 4.5 200.5t-163.5 74.5zM-13 0l262 720h299q99 0 167.5 -31.5t98.5 -85t33.5 -124t-27.5 -148.5q-63 -172 -173.5 -251.5t-301.5 -79.5h-358z
" />
    <glyph glyph-name="dcaron" unicode="&#x10f;" horiz-adv-x="889" 
d="M499 770l-67 161h95l57 -121l126 121h110l-160 -161h-161zM540 625h-199l-192 -529h200q142 0 220.5 56.5t129.5 197.5q46 126 4.5 200.5t-163.5 74.5zM-13 0l262 720h299q99 0 167.5 -31.5t98.5 -85t33.5 -124t-27.5 -148.5q-63 -172 -173.5 -251.5t-301.5 -79.5h-358z
" />
    <glyph glyph-name="Dcroat" unicode="&#x110;" horiz-adv-x="889" 
d="M418 329h-184l-85 -233h200q142 0 220.5 56.5t129.5 197.5q46 126 4.5 200.5t-163.5 74.5h-199l-81 -224h184zM-13 0l120 329h-116l26 72h116l116 319h299q99 0 167.5 -31.5t98.5 -85t33.5 -124t-27.5 -148.5q-63 -172 -173.5 -251.5t-301.5 -79.5h-358z" />
    <glyph glyph-name="dcroat" unicode="&#x111;" horiz-adv-x="889" 
d="M418 329h-184l-85 -233h200q142 0 220.5 56.5t129.5 197.5q46 126 4.5 200.5t-163.5 74.5h-199l-81 -224h184zM-13 0l120 329h-116l26 72h116l116 319h299q99 0 167.5 -31.5t98.5 -85t33.5 -124t-27.5 -148.5q-63 -172 -173.5 -251.5t-301.5 -79.5h-358z" />
    <glyph glyph-name="Emacron" unicode="&#x112;" horiz-adv-x="769" 
d="M790 823h-412l24 72h412zM-13 0l262 720h598l-35 -94h-470l-80 -219h423l-35 -94h-422l-80 -219h471l-34 -94h-598z" />
    <glyph glyph-name="emacron" unicode="&#x113;" horiz-adv-x="769" 
d="M790 823h-412l24 72h412zM-13 0l262 720h598l-35 -94h-470l-80 -219h423l-35 -94h-422l-80 -219h471l-34 -94h-598z" />
    <glyph glyph-name="Ebreve" unicode="&#x114;" horiz-adv-x="769" 
d="M540 931q-19 -55 -6.5 -82t51.5 -27q83 0 123 109h92q-34 -93 -86.5 -132t-138.5 -39q-85 0 -120.5 44t-5.5 127h91zM-13 0l262 720h598l-35 -94h-470l-80 -219h423l-35 -94h-422l-80 -219h471l-34 -94h-598z" />
    <glyph glyph-name="ebreve" unicode="&#x115;" horiz-adv-x="769" 
d="M540 931q-19 -55 -6.5 -82t51.5 -27q83 0 123 109h92q-34 -93 -86.5 -132t-138.5 -39q-85 0 -120.5 44t-5.5 127h91zM-13 0l262 720h598l-35 -94h-470l-80 -219h423l-35 -94h-422l-80 -219h471l-34 -94h-598z" />
    <glyph glyph-name="Edotaccent" unicode="&#x116;" horiz-adv-x="769" 
d="M640 804h-127l34 93h127zM-13 0l262 720h598l-35 -94h-470l-80 -219h423l-35 -94h-422l-80 -219h471l-34 -94h-598z" />
    <glyph glyph-name="edotaccent" unicode="&#x117;" horiz-adv-x="769" 
d="M640 804h-127l34 93h127zM-13 0l262 720h598l-35 -94h-470l-80 -219h423l-35 -94h-422l-80 -219h471l-34 -94h-598z" />
    <glyph glyph-name="Eogonek" unicode="&#x118;" horiz-adv-x="769" 
d="M511 -207q-40 -14 -90 -14q-80 0 -115.5 35t-15.5 91q20 55 89 95h-392l262 720h598l-35 -94h-470l-80 -219h423l-35 -94h-422l-80 -219h471l-34 -94h-113q-70 -47 -81 -92q-8 -31 6.5 -45t53.5 -14q46 0 85 13z" />
    <glyph glyph-name="eogonek" unicode="&#x119;" horiz-adv-x="769" 
d="M511 -207q-40 -14 -90 -14q-80 0 -115.5 35t-15.5 91q20 55 89 95h-392l262 720h598l-35 -94h-470l-80 -219h423l-35 -94h-422l-80 -219h471l-34 -94h-113q-70 -47 -81 -92q-8 -31 6.5 -45t53.5 -14q46 0 85 13z" />
    <glyph glyph-name="Ecaron" unicode="&#x11a;" horiz-adv-x="769" 
d="M493 770l-67 161h95l57 -121l126 121h110l-160 -161h-161zM-13 0l262 720h598l-35 -94h-470l-80 -219h423l-35 -94h-422l-80 -219h471l-34 -94h-598z" />
    <glyph glyph-name="ecaron" unicode="&#x11b;" horiz-adv-x="769" 
d="M493 770l-67 161h95l57 -121l126 121h110l-160 -161h-161zM-13 0l262 720h598l-35 -94h-470l-80 -219h423l-35 -94h-422l-80 -219h471l-34 -94h-598z" />
    <glyph glyph-name="Gcircumflex" unicode="&#x11c;" horiz-adv-x="845" 
d="M690 770l-57 121l-127 -121h-110l160 161h161l67 -161h-94zM638 17q-92 -29 -240 -29q-217 0 -304.5 112.5t-17.5 302.5q120 329 502 329q132 0 260 -49l-35 -97q-108 48 -232 48q-293 0 -377 -257q-97 -292 234 -292q61 0 113 7l80 221h123z" />
    <glyph glyph-name="gcircumflex" unicode="&#x11d;" horiz-adv-x="845" 
d="M690 770l-57 121l-127 -121h-110l160 161h161l67 -161h-94zM638 17q-92 -29 -240 -29q-217 0 -304.5 112.5t-17.5 302.5q120 329 502 329q132 0 260 -49l-35 -97q-108 48 -232 48q-293 0 -377 -257q-97 -292 234 -292q61 0 113 7l80 221h123z" />
    <glyph glyph-name="Gbreve" unicode="&#x11e;" horiz-adv-x="845" 
d="M564 931q-19 -55 -6.5 -82t51.5 -27q83 0 123 109h92q-34 -93 -86.5 -132t-138.5 -39q-85 0 -120.5 44t-5.5 127h91zM638 17q-92 -29 -240 -29q-217 0 -304.5 112.5t-17.5 302.5q120 329 502 329q132 0 260 -49l-35 -97q-108 48 -232 48q-293 0 -377 -257
q-97 -292 234 -292q61 0 113 7l80 221h123z" />
    <glyph glyph-name="gbreve" unicode="&#x11f;" horiz-adv-x="845" 
d="M564 931q-19 -55 -6.5 -82t51.5 -27q83 0 123 109h92q-34 -93 -86.5 -132t-138.5 -39q-85 0 -120.5 44t-5.5 127h91zM638 17q-92 -29 -240 -29q-217 0 -304.5 112.5t-17.5 302.5q120 329 502 329q132 0 260 -49l-35 -97q-108 48 -232 48q-293 0 -377 -257
q-97 -292 234 -292q61 0 113 7l80 221h123z" />
    <glyph glyph-name="Gdotaccent" unicode="&#x120;" horiz-adv-x="845" 
d="M665 804h-127l34 93h127zM638 17q-92 -29 -240 -29q-217 0 -304.5 112.5t-17.5 302.5q120 329 502 329q132 0 260 -49l-35 -97q-108 48 -232 48q-293 0 -377 -257q-97 -292 234 -292q61 0 113 7l80 221h123z" />
    <glyph glyph-name="gdotaccent" unicode="&#x121;" horiz-adv-x="845" 
d="M665 804h-127l34 93h127zM638 17q-92 -29 -240 -29q-217 0 -304.5 112.5t-17.5 302.5q120 329 502 329q132 0 260 -49l-35 -97q-108 48 -232 48q-293 0 -377 -257q-97 -292 234 -292q61 0 113 7l80 221h123z" />
    <glyph glyph-name="Gcommaaccent" unicode="&#x122;" horiz-adv-x="845" 
d="M638 17q-92 -29 -240 -29q-217 0 -304.5 112.5t-17.5 302.5q120 329 502 329q132 0 260 -49l-35 -97q-108 48 -232 48q-293 0 -377 -257q-97 -292 234 -292q61 0 113 7l80 221h123zM236 -211h-122l202 161h149z" />
    <glyph glyph-name="gcommaaccent" unicode="&#x123;" horiz-adv-x="845" 
d="M638 17q-92 -29 -240 -29q-217 0 -304.5 112.5t-17.5 302.5q120 329 502 329q132 0 260 -49l-35 -97q-108 48 -232 48q-293 0 -377 -257q-97 -292 234 -292q61 0 113 7l80 221h123zM236 -211h-122l202 161h149z" />
    <glyph glyph-name="Hcircumflex" unicode="&#x124;" horiz-adv-x="920" 
d="M712 770l-57 121l-127 -121h-110l160 161h161l67 -161h-94zM546 0l114 312h-432l-114 -312h-127l262 720h127l-113 -311h432l113 311h127l-262 -720h-127z" />
    <glyph glyph-name="hcircumflex" unicode="&#x125;" horiz-adv-x="920" 
d="M712 770l-57 121l-127 -121h-110l160 161h161l67 -161h-94zM546 0l114 312h-432l-114 -312h-127l262 720h127l-113 -311h432l113 311h127l-262 -720h-127z" />
    <glyph glyph-name="Hbar" unicode="&#x126;" horiz-adv-x="920" 
d="M695 409l54 150h-432l-54 -150h432zM546 0l114 312h-432l-114 -312h-127l203 559h-116l26 71h116l33 90h127l-33 -90h432l33 90h127l-33 -90h117l-26 -71h-117l-203 -559h-127z" />
    <glyph glyph-name="hbar" unicode="&#x127;" horiz-adv-x="920" 
d="M695 409l54 150h-432l-54 -150h432zM546 0l114 312h-432l-114 -312h-127l203 559h-116l26 71h116l33 90h127l-33 -90h432l33 90h127l-33 -90h117l-26 -71h-117l-203 -559h-127z" />
    <glyph glyph-name="Itilde" unicode="&#x128;" horiz-adv-x="361" 
d="M111 770q38 106 65 137t86 31q32 0 59 -16.5t43 -36t35.5 -36t37.5 -16.5q23 0 35.5 17.5t34.5 80.5h82q-37 -106 -64.5 -137t-86.5 -31q-32 0 -59 16.5t-43 36.5t-35.5 36.5t-37.5 16.5q-23 0 -35 -18t-35 -81h-82zM114 0h-127l262 720h127z" />
    <glyph glyph-name="itilde" unicode="&#x129;" horiz-adv-x="361" 
d="M111 770q38 106 65 137t86 31q32 0 59 -16.5t43 -36t35.5 -36t37.5 -16.5q23 0 35.5 17.5t34.5 80.5h82q-37 -106 -64.5 -137t-86.5 -31q-32 0 -59 16.5t-43 36.5t-35.5 36.5t-37.5 16.5q-23 0 -35 -18t-35 -81h-82zM114 0h-127l262 720h127z" />
    <glyph glyph-name="Imacron" unicode="&#x12a;" horiz-adv-x="361" 
d="M556 823h-412l24 72h412zM114 0h-127l262 720h127z" />
    <glyph glyph-name="imacron" unicode="&#x12b;" horiz-adv-x="361" 
d="M556 823h-412l24 72h412zM114 0h-127l262 720h127z" />
    <glyph glyph-name="Ibreve" unicode="&#x12c;" horiz-adv-x="361" 
d="M306 931q-19 -55 -6.5 -82t51.5 -27q83 0 123 109h92q-34 -93 -86.5 -132t-138.5 -39q-85 0 -120.5 44t-5.5 127h91zM114 0h-127l262 720h127z" />
    <glyph glyph-name="ibreve" unicode="&#x12d;" horiz-adv-x="361" 
d="M306 931q-19 -55 -6.5 -82t51.5 -27q83 0 123 109h92q-34 -93 -86.5 -132t-138.5 -39q-85 0 -120.5 44t-5.5 127h91zM114 0h-127l262 720h127z" />
    <glyph glyph-name="Iogonek" unicode="&#x12e;" horiz-adv-x="361" 
d="M128 -207q-40 -14 -90 -14q-80 0 -115.5 35t-15.5 91q20 55 89 95h-9l262 720h127l-262 -720h-25q-70 -47 -81 -92q-8 -31 6.5 -45t53.5 -14q46 0 85 13z" />
    <glyph glyph-name="iogonek" unicode="&#x12f;" horiz-adv-x="361" 
d="M128 -207q-40 -14 -90 -14q-80 0 -115.5 35t-15.5 91q20 55 89 95h-9l262 720h127l-262 -720h-25q-70 -47 -81 -92q-8 -31 6.5 -45t53.5 -14q46 0 85 13z" />
    <glyph glyph-name="Idotaccent" unicode="&#x130;" horiz-adv-x="361" 
d="M406 804h-127l34 93h127zM114 0h-127l262 720h127z" />
    <glyph glyph-name="dotlessi" unicode="&#x131;" horiz-adv-x="361" 
d="M114 0h-127l262 720h127z" />
    <glyph glyph-name="IJ" unicode="&#x132;" horiz-adv-x="950" 
d="M114 0h-127l262 720h127zM668 231l178 489h126l-181 -504q-45 -124 -118.5 -176t-198.5 -52q-128 0 -215 42l35 95q79 -37 178 -37q144 0 196 143z" />
    <glyph glyph-name="ij" unicode="&#x133;" horiz-adv-x="950" 
d="M114 0h-127l262 720h127zM668 231l178 489h126l-181 -504q-45 -124 -118.5 -176t-198.5 -52q-128 0 -215 42l35 95q79 -37 178 -37q144 0 196 143z" />
    <glyph glyph-name="Jcircumflex" unicode="&#x134;" horiz-adv-x="590" 
d="M667 770l-57 121l-127 -121h-110l160 161h161l67 -161h-94zM307 231l178 489h126l-181 -504q-45 -124 -118.5 -176t-198.5 -52q-128 0 -215 42l35 95q79 -37 178 -37q144 0 196 143z" />
    <glyph glyph-name="jcircumflex" unicode="&#x135;" horiz-adv-x="590" 
d="M667 770l-57 121l-127 -121h-110l160 161h161l67 -161h-94zM307 231l178 489h126l-181 -504q-45 -124 -118.5 -176t-198.5 -52q-128 0 -215 42l35 95q79 -37 178 -37q144 0 196 143z" />
    <glyph glyph-name="Kcommaaccent" unicode="&#x136;" horiz-adv-x="850" 
d="M557 0l-224 312h-105l-114 -312h-127l262 720h127l-113 -311h101l427 311h150l-496 -371l249 -349h-137zM166 -211h-122l202 161h149z" />
    <glyph glyph-name="kcommaaccent" unicode="&#x137;" horiz-adv-x="850" 
d="M557 0l-224 312h-105l-114 -312h-127l262 720h127l-113 -311h101l427 311h150l-496 -371l249 -349h-137zM166 -211h-122l202 161h149z" />
    <glyph glyph-name="Lacute" unicode="&#x139;" horiz-adv-x="724" 
d="M394 770h-123l205 161h149zM-13 0l262 720h127l-227 -623h463l-35 -97h-590z" />
    <glyph glyph-name="lacute" unicode="&#x13a;" horiz-adv-x="724" 
d="M394 770h-123l205 161h149zM-13 0l262 720h127l-227 -623h463l-35 -97h-590z" />
    <glyph glyph-name="Lcommaaccent" unicode="&#x13b;" horiz-adv-x="724" 
d="M-13 0l262 720h127l-227 -623h463l-35 -97h-590zM148 -211h-122l202 161h149z" />
    <glyph glyph-name="lcommaaccent" unicode="&#x13c;" horiz-adv-x="724" 
d="M-13 0l262 720h127l-227 -623h463l-35 -97h-590zM148 -211h-122l202 161h149z" />
    <glyph glyph-name="Lcaron" unicode="&#x13d;" horiz-adv-x="724" 
d="M472 469h-89l158 251h122zM-13 0l262 720h127l-227 -623h463l-35 -97h-590z" />
    <glyph glyph-name="lcaron" unicode="&#x13e;" horiz-adv-x="724" 
d="M472 469h-89l158 251h122zM-13 0l262 720h127l-227 -623h463l-35 -97h-590z" />
    <glyph glyph-name="Ldot" unicode="&#x13f;" horiz-adv-x="724" 
d="M599 332h-142l43 120h142zM-13 0l262 720h127l-227 -623h463l-35 -97h-590z" />
    <glyph glyph-name="ldot" unicode="&#x140;" horiz-adv-x="724" 
d="M599 332h-142l43 120h142zM-13 0l262 720h127l-227 -623h463l-35 -97h-590z" />
    <glyph glyph-name="Lslash" unicode="&#x141;" horiz-adv-x="724" 
d="M-13 0l108 296l-136 -45l30 86l137 44l123 339h127l-108 -297l219 72l-30 -85l-220 -71l-88 -242h463l-35 -97h-590z" />
    <glyph glyph-name="lslash" unicode="&#x142;" horiz-adv-x="724" 
d="M-13 0l108 296l-136 -45l30 86l137 44l123 339h127l-108 -297l219 72l-30 -85l-220 -71l-88 -242h463l-35 -97h-590z" />
    <glyph glyph-name="Nacute" unicode="&#x143;" horiz-adv-x="975" 
d="M696 770h-123l205 161h149zM538 0l-206 623l-227 -623h-118l262 720h113q61 0 71 -48l197 -578l228 626h120l-262 -720h-178z" />
    <glyph glyph-name="nacute" unicode="&#x144;" horiz-adv-x="975" 
d="M696 770h-123l205 161h149zM538 0l-206 623l-227 -623h-118l262 720h113q61 0 71 -48l197 -578l228 626h120l-262 -720h-178z" />
    <glyph glyph-name="Ncommaaccent" unicode="&#x145;" horiz-adv-x="975" 
d="M538 0l-206 623l-227 -623h-118l262 720h113q61 0 71 -48l197 -578l228 626h120l-262 -720h-178zM207 -211h-122l202 161h149z" />
    <glyph glyph-name="ncommaaccent" unicode="&#x146;" horiz-adv-x="975" 
d="M538 0l-206 623l-227 -623h-118l262 720h113q61 0 71 -48l197 -578l228 626h120l-262 -720h-178zM207 -211h-122l202 161h149z" />
    <glyph glyph-name="Ncaron" unicode="&#x147;" horiz-adv-x="975" 
d="M566 770l-67 161h95l57 -121l126 121h110l-160 -161h-161zM538 0l-206 623l-227 -623h-118l262 720h113q61 0 71 -48l197 -578l228 626h120l-262 -720h-178z" />
    <glyph glyph-name="ncaron" unicode="&#x148;" horiz-adv-x="975" 
d="M566 770l-67 161h95l57 -121l126 121h110l-160 -161h-161zM538 0l-206 623l-227 -623h-118l262 720h113q61 0 71 -48l197 -578l228 626h120l-262 -720h-178z" />
    <glyph glyph-name="Eng" unicode="&#x14a;" horiz-adv-x="975" 
d="M461 -260q-95 0 -162 32l35 95q57 -28 127 -28q38 0 65.5 22.5t40.5 57.5l30 83l-264 624l-228 -626h-118l262 720h105q32 0 50 -9.5t29 -38.5l220 -517l206 565h119l-295 -815q-28 -79 -80.5 -122t-141.5 -43z" />
    <glyph glyph-name="eng" unicode="&#x14b;" horiz-adv-x="975" 
d="M461 -260q-95 0 -162 32l35 95q57 -28 127 -28q38 0 65.5 22.5t40.5 57.5l30 83l-264 624l-228 -626h-118l262 720h105q32 0 50 -9.5t29 -38.5l220 -517l206 565h119l-295 -815q-28 -79 -80.5 -122t-141.5 -43z" />
    <glyph glyph-name="Omacron" unicode="&#x14c;" 
d="M825 823h-412l24 72h412zM378 -12q-93 0 -161.5 21t-107.5 58t-56 88t-11.5 109.5t29.5 124.5q64 177 177 260t296 83q116 0 193.5 -32.5t109 -87.5t34.5 -127.5t-30 -153.5q-65 -177 -178 -260t-295 -83zM386 85q129 0 209.5 59t133.5 204q52 135 4 211t-199 76
q-128 0 -208.5 -59t-132.5 -203q-53 -136 -5.5 -212t198.5 -76z" />
    <glyph glyph-name="omacron" unicode="&#x14d;" 
d="M825 823h-412l24 72h412zM378 -12q-93 0 -161.5 21t-107.5 58t-56 88t-11.5 109.5t29.5 124.5q64 177 177 260t296 83q116 0 193.5 -32.5t109 -87.5t34.5 -127.5t-30 -153.5q-65 -177 -178 -260t-295 -83zM386 85q129 0 209.5 59t133.5 204q52 135 4 211t-199 76
q-128 0 -208.5 -59t-132.5 -203q-53 -136 -5.5 -212t198.5 -76z" />
    <glyph glyph-name="Obreve" unicode="&#x14e;" 
d="M574 931q-19 -55 -6.5 -82t51.5 -27q83 0 123 109h92q-34 -93 -86.5 -132t-138.5 -39q-85 0 -120.5 44t-5.5 127h91zM378 -12q-93 0 -161.5 21t-107.5 58t-56 88t-11.5 109.5t29.5 124.5q64 177 177 260t296 83q116 0 193.5 -32.5t109 -87.5t34.5 -127.5t-30 -153.5
q-65 -177 -178 -260t-295 -83zM386 85q129 0 209.5 59t133.5 204q52 135 4 211t-199 76q-128 0 -208.5 -59t-132.5 -203q-53 -136 -5.5 -212t198.5 -76z" />
    <glyph glyph-name="obreve" unicode="&#x14f;" 
d="M574 931q-19 -55 -6.5 -82t51.5 -27q83 0 123 109h92q-34 -93 -86.5 -132t-138.5 -39q-85 0 -120.5 44t-5.5 127h91zM378 -12q-93 0 -161.5 21t-107.5 58t-56 88t-11.5 109.5t29.5 124.5q64 177 177 260t296 83q116 0 193.5 -32.5t109 -87.5t34.5 -127.5t-30 -153.5
q-65 -177 -178 -260t-295 -83zM386 85q129 0 209.5 59t133.5 204q52 135 4 211t-199 76q-128 0 -208.5 -59t-132.5 -203q-53 -136 -5.5 -212t198.5 -76z" />
    <glyph glyph-name="Ohungarumlaut" unicode="&#x150;" 
d="M767 770h-118l205 161h144zM521 770h-118l204 161h145zM378 -12q-93 0 -161.5 21t-107.5 58t-56 88t-11.5 109.5t29.5 124.5q64 177 177 260t296 83q116 0 193.5 -32.5t109 -87.5t34.5 -127.5t-30 -153.5q-65 -177 -178 -260t-295 -83zM386 85q129 0 209.5 59t133.5 204
q52 135 4 211t-199 76q-128 0 -208.5 -59t-132.5 -203q-53 -136 -5.5 -212t198.5 -76z" />
    <glyph glyph-name="ohungarumlaut" unicode="&#x151;" 
d="M767 770h-118l205 161h144zM521 770h-118l204 161h145zM378 -12q-93 0 -161.5 21t-107.5 58t-56 88t-11.5 109.5t29.5 124.5q64 177 177 260t296 83q116 0 193.5 -32.5t109 -87.5t34.5 -127.5t-30 -153.5q-65 -177 -178 -260t-295 -83zM386 85q129 0 209.5 59t133.5 204
q52 135 4 211t-199 76q-128 0 -208.5 -59t-132.5 -203q-53 -136 -5.5 -212t198.5 -76z" />
    <glyph glyph-name="OE" unicode="&#x152;" horiz-adv-x="1288" 
d="M342 96h199l192 529h-200q-143 0 -221.5 -56.5t-129.5 -198.5q-46 -126 -4.5 -200t164.5 -74zM333 0q-99 0 -167.5 31.5t-98.5 85.5t-33.5 124.5t27.5 148.5q63 172 174.5 251t301.5 79h829l-35 -94h-470l-80 -219h423l-35 -94h-422l-80 -219h471l-34 -94h-771z" />
    <glyph glyph-name="oe" unicode="&#x153;" horiz-adv-x="1288" 
d="M342 96h199l192 529h-200q-143 0 -221.5 -56.5t-129.5 -198.5q-46 -126 -4.5 -200t164.5 -74zM333 0q-99 0 -167.5 31.5t-98.5 85.5t-33.5 124.5t27.5 148.5q63 172 174.5 251t301.5 79h829l-35 -94h-470l-80 -219h423l-35 -94h-422l-80 -219h471l-34 -94h-771z" />
    <glyph glyph-name="Racute" unicode="&#x154;" horiz-adv-x="844" 
d="M592 770h-123l205 161h149zM501 626h-159l-103 -282h172q125 0 180.5 23.5t79.5 93.5q32 91 -3.5 128t-166.5 37zM518 0l-90 250h-223l-91 -250h-127l262 720h282q185 0 248 -73.5t15 -202.5q-58 -159 -250 -178l104 -266h-130z" />
    <glyph glyph-name="racute" unicode="&#x155;" horiz-adv-x="844" 
d="M592 770h-123l205 161h149zM501 626h-159l-103 -282h172q125 0 180.5 23.5t79.5 93.5q32 91 -3.5 128t-166.5 37zM518 0l-90 250h-223l-91 -250h-127l262 720h282q185 0 248 -73.5t15 -202.5q-58 -159 -250 -178l104 -266h-130z" />
    <glyph glyph-name="Rcommaaccent" unicode="&#x156;" horiz-adv-x="844" 
d="M501 626h-159l-103 -282h172q125 0 180.5 23.5t79.5 93.5q32 91 -3.5 128t-166.5 37zM518 0l-90 250h-223l-91 -250h-127l262 720h282q185 0 248 -73.5t15 -202.5q-58 -159 -250 -178l104 -266h-130zM151 -211h-122l202 161h149z" />
    <glyph glyph-name="rcommaaccent" unicode="&#x157;" horiz-adv-x="844" 
d="M501 626h-159l-103 -282h172q125 0 180.5 23.5t79.5 93.5q32 91 -3.5 128t-166.5 37zM518 0l-90 250h-223l-91 -250h-127l262 720h282q185 0 248 -73.5t15 -202.5q-58 -159 -250 -178l104 -266h-130zM151 -211h-122l202 161h149z" />
    <glyph glyph-name="Rcaron" unicode="&#x158;" horiz-adv-x="844" 
d="M462 770l-67 161h95l57 -121l126 121h110l-160 -161h-161zM501 626h-159l-103 -282h172q125 0 180.5 23.5t79.5 93.5q32 91 -3.5 128t-166.5 37zM518 0l-90 250h-223l-91 -250h-127l262 720h282q185 0 248 -73.5t15 -202.5q-58 -159 -250 -178l104 -266h-130z" />
    <glyph glyph-name="rcaron" unicode="&#x159;" horiz-adv-x="844" 
d="M462 770l-67 161h95l57 -121l126 121h110l-160 -161h-161zM501 626h-159l-103 -282h172q125 0 180.5 23.5t79.5 93.5q32 91 -3.5 128t-166.5 37zM518 0l-90 250h-223l-91 -250h-127l262 720h282q185 0 248 -73.5t15 -202.5q-58 -159 -250 -178l104 -266h-130z" />
    <glyph glyph-name="Sacute" unicode="&#x15a;" horiz-adv-x="763" 
d="M560 770h-123l205 161h149zM295 -12q-207 0 -343 62l36 101q143 -69 302 -69q189 0 225 100q22 52 1 84.5t-97 49.5l-129 28q-209 45 -146 224q59 164 334 164q147 0 308 -61l-34 -96q-138 64 -286 64q-170 0 -201 -87q-20 -46 -3 -73t86 -43l134 -29q113 -24 149 -87.5
t3 -156.5q-35 -95 -118.5 -135t-220.5 -40z" />
    <glyph glyph-name="sacute" unicode="&#x15b;" horiz-adv-x="763" 
d="M560 770h-123l205 161h149zM295 -12q-207 0 -343 62l36 101q143 -69 302 -69q189 0 225 100q22 52 1 84.5t-97 49.5l-129 28q-209 45 -146 224q59 164 334 164q147 0 308 -61l-34 -96q-138 64 -286 64q-170 0 -201 -87q-20 -46 -3 -73t86 -43l134 -29q113 -24 149 -87.5
t3 -156.5q-35 -95 -118.5 -135t-220.5 -40z" />
    <glyph glyph-name="Scircumflex" unicode="&#x15c;" horiz-adv-x="763" 
d="M603 770l-57 121l-127 -121h-110l160 161h161l67 -161h-94zM295 -12q-207 0 -343 62l36 101q143 -69 302 -69q189 0 225 100q22 52 1 84.5t-97 49.5l-129 28q-209 45 -146 224q59 164 334 164q147 0 308 -61l-34 -96q-138 64 -286 64q-170 0 -201 -87q-20 -46 -3 -73
t86 -43l134 -29q113 -24 149 -87.5t3 -156.5q-35 -95 -118.5 -135t-220.5 -40z" />
    <glyph glyph-name="scircumflex" unicode="&#x15d;" horiz-adv-x="763" 
d="M603 770l-57 121l-127 -121h-110l160 161h161l67 -161h-94zM295 -12q-207 0 -343 62l36 101q143 -69 302 -69q189 0 225 100q22 52 1 84.5t-97 49.5l-129 28q-209 45 -146 224q59 164 334 164q147 0 308 -61l-34 -96q-138 64 -286 64q-170 0 -201 -87q-20 -46 -3 -73
t86 -43l134 -29q113 -24 149 -87.5t3 -156.5q-35 -95 -118.5 -135t-220.5 -40z" />
    <glyph glyph-name="Scedilla" unicode="&#x15e;" horiz-adv-x="763" 
d="M173 -221q-80 0 -128 26l20 66q54 -20 97 -20q52 0 65 34q16 45 -34 107q-141 12 -241 58l36 101q143 -69 302 -69q189 0 225 100q22 52 1 84.5t-97 49.5l-129 28q-209 45 -146 224q59 164 334 164q147 0 308 -61l-34 -96q-138 64 -286 64q-170 0 -201 -87
q-20 -46 -3 -73t86 -43l134 -29q113 -24 149 -87.5t3 -156.5q-35 -95 -118.5 -135t-220.5 -40h-11q28 -40 35 -67.5t-7 -68.5q-29 -73 -139 -73z" />
    <glyph glyph-name="scedilla" unicode="&#x15f;" horiz-adv-x="763" 
d="M173 -221q-80 0 -128 26l20 66q54 -20 97 -20q52 0 65 34q16 45 -34 107q-141 12 -241 58l36 101q143 -69 302 -69q189 0 225 100q22 52 1 84.5t-97 49.5l-129 28q-209 45 -146 224q59 164 334 164q147 0 308 -61l-34 -96q-138 64 -286 64q-170 0 -201 -87
q-20 -46 -3 -73t86 -43l134 -29q113 -24 149 -87.5t3 -156.5q-35 -95 -118.5 -135t-220.5 -40h-11q28 -40 35 -67.5t-7 -68.5q-29 -73 -139 -73z" />
    <glyph glyph-name="Scaron" unicode="&#x160;" horiz-adv-x="763" 
d="M430 770l-67 161h95l57 -121l126 121h110l-160 -161h-161zM295 -12q-207 0 -343 62l36 101q143 -69 302 -69q189 0 225 100q22 52 1 84.5t-97 49.5l-129 28q-209 45 -146 224q59 164 334 164q147 0 308 -61l-34 -96q-138 64 -286 64q-170 0 -201 -87q-20 -46 -3 -73
t86 -43l134 -29q113 -24 149 -87.5t3 -156.5q-35 -95 -118.5 -135t-220.5 -40z" />
    <glyph glyph-name="scaron" unicode="&#x161;" horiz-adv-x="763" 
d="M430 770l-67 161h95l57 -121l126 121h110l-160 -161h-161zM295 -12q-207 0 -343 62l36 101q143 -69 302 -69q189 0 225 100q22 52 1 84.5t-97 49.5l-129 28q-209 45 -146 224q59 164 334 164q147 0 308 -61l-34 -96q-138 64 -286 64q-170 0 -201 -87q-20 -46 -3 -73
t86 -43l134 -29q113 -24 149 -87.5t3 -156.5q-35 -95 -118.5 -135t-220.5 -40z" />
    <glyph glyph-name="Tcommaaccent" unicode="&#x162;" horiz-adv-x="728" 
d="M815 623h-281l-227 -623h-127l227 623h-285l36 97h693zM65 -211h-122l202 161h149z" />
    <glyph glyph-name="tcommaaccent" unicode="&#x163;" horiz-adv-x="728" 
d="M815 623h-281l-227 -623h-127l227 623h-285l36 97h693zM65 -211h-122l202 161h149z" />
    <glyph glyph-name="Tcaron" unicode="&#x164;" horiz-adv-x="728" 
d="M443 770l-67 161h95l57 -121l126 121h110l-160 -161h-161zM815 623h-281l-227 -623h-127l227 623h-285l36 97h693z" />
    <glyph glyph-name="tcaron" unicode="&#x165;" horiz-adv-x="728" 
d="M443 770l-67 161h95l57 -121l126 121h110l-160 -161h-161zM815 623h-281l-227 -623h-127l227 623h-285l36 97h693z" />
    <glyph glyph-name="Tbar" unicode="&#x166;" horiz-adv-x="728" 
d="M572 317h-150l-115 -317h-127l115 317h-166l26 72h167l85 234h-285l36 97h693l-36 -97h-281l-85 -234h149z" />
    <glyph glyph-name="tbar" unicode="&#x167;" horiz-adv-x="728" 
d="M572 317h-150l-115 -317h-127l115 317h-166l26 72h167l85 234h-285l36 97h693l-36 -97h-281l-85 -234h149z" />
    <glyph glyph-name="Utilde" unicode="&#x168;" horiz-adv-x="882" 
d="M372 770q38 106 65 137t86 31q32 0 59 -16.5t43 -36t35.5 -36t37.5 -16.5q23 0 35.5 17.5t34.5 80.5h82q-37 -106 -64.5 -137t-86.5 -31q-32 0 -59 16.5t-43 36.5t-35.5 36.5t-37.5 16.5q-23 0 -35 -18t-35 -81h-82zM916 720l-155 -431q-62 -173 -157 -237t-261 -64
q-186 0 -251.5 84.5t-16.5 219.5l154 428h127l-155 -429q-39 -108 -0.5 -156.5t161.5 -48.5q101 0 164 41t108 164l155 429h127z" />
    <glyph glyph-name="utilde" unicode="&#x169;" horiz-adv-x="882" 
d="M372 770q38 106 65 137t86 31q32 0 59 -16.5t43 -36t35.5 -36t37.5 -16.5q23 0 35.5 17.5t34.5 80.5h82q-37 -106 -64.5 -137t-86.5 -31q-32 0 -59 16.5t-43 36.5t-35.5 36.5t-37.5 16.5q-23 0 -35 -18t-35 -81h-82zM916 720l-155 -431q-62 -173 -157 -237t-261 -64
q-186 0 -251.5 84.5t-16.5 219.5l154 428h127l-155 -429q-39 -108 -0.5 -156.5t161.5 -48.5q101 0 164 41t108 164l155 429h127z" />
    <glyph glyph-name="Umacron" unicode="&#x16a;" horiz-adv-x="882" 
d="M817 823h-412l24 72h412zM916 720l-155 -431q-62 -173 -157 -237t-261 -64q-186 0 -251.5 84.5t-16.5 219.5l154 428h127l-155 -429q-39 -108 -0.5 -156.5t161.5 -48.5q101 0 164 41t108 164l155 429h127z" />
    <glyph glyph-name="umacron" unicode="&#x16b;" horiz-adv-x="882" 
d="M817 823h-412l24 72h412zM916 720l-155 -431q-62 -173 -157 -237t-261 -64q-186 0 -251.5 84.5t-16.5 219.5l154 428h127l-155 -429q-39 -108 -0.5 -156.5t161.5 -48.5q101 0 164 41t108 164l155 429h127z" />
    <glyph glyph-name="Ubreve" unicode="&#x16c;" horiz-adv-x="882" 
d="M567 931q-19 -55 -6.5 -82t51.5 -27q83 0 123 109h92q-34 -93 -86.5 -132t-138.5 -39q-85 0 -120.5 44t-5.5 127h91zM916 720l-155 -431q-62 -173 -157 -237t-261 -64q-186 0 -251.5 84.5t-16.5 219.5l154 428h127l-155 -429q-39 -108 -0.5 -156.5t161.5 -48.5
q101 0 164 41t108 164l155 429h127z" />
    <glyph glyph-name="ubreve" unicode="&#x16d;" horiz-adv-x="882" 
d="M567 931q-19 -55 -6.5 -82t51.5 -27q83 0 123 109h92q-34 -93 -86.5 -132t-138.5 -39q-85 0 -120.5 44t-5.5 127h91zM916 720l-155 -431q-62 -173 -157 -237t-261 -64q-186 0 -251.5 84.5t-16.5 219.5l154 428h127l-155 -429q-39 -108 -0.5 -156.5t161.5 -48.5
q101 0 164 41t108 164l155 429h127z" />
    <glyph glyph-name="Uring" unicode="&#x16e;" horiz-adv-x="882" 
d="M585 760q-89 0 -122 26.5t-15 77.5q28 77 177 77q89 0 122 -26.5t15 -76.5q-28 -78 -177 -78zM598 809q59 0 74 38q8 24 -5.5 34t-52.5 10q-61 0 -76 -38q-8 -24 6 -34t54 -10zM916 720l-155 -431q-62 -173 -157 -237t-261 -64q-186 0 -251.5 84.5t-16.5 219.5l154 428
h127l-155 -429q-39 -108 -0.5 -156.5t161.5 -48.5q101 0 164 41t108 164l155 429h127z" />
    <glyph glyph-name="uring" unicode="&#x16f;" horiz-adv-x="882" 
d="M585 760q-89 0 -122 26.5t-15 77.5q28 77 177 77q89 0 122 -26.5t15 -76.5q-28 -78 -177 -78zM598 809q59 0 74 38q8 24 -5.5 34t-52.5 10q-61 0 -76 -38q-8 -24 6 -34t54 -10zM916 720l-155 -431q-62 -173 -157 -237t-261 -64q-186 0 -251.5 84.5t-16.5 219.5l154 428
h127l-155 -429q-39 -108 -0.5 -156.5t161.5 -48.5q101 0 164 41t108 164l155 429h127z" />
    <glyph glyph-name="Uhungarumlaut" unicode="&#x170;" horiz-adv-x="882" 
d="M759 770h-118l205 161h144zM513 770h-118l204 161h145zM916 720l-155 -431q-62 -173 -157 -237t-261 -64q-186 0 -251.5 84.5t-16.5 219.5l154 428h127l-155 -429q-39 -108 -0.5 -156.5t161.5 -48.5q101 0 164 41t108 164l155 429h127z" />
    <glyph glyph-name="uhungarumlaut" unicode="&#x171;" horiz-adv-x="882" 
d="M759 770h-118l205 161h144zM513 770h-118l204 161h145zM916 720l-155 -431q-62 -173 -157 -237t-261 -64q-186 0 -251.5 84.5t-16.5 219.5l154 428h127l-155 -429q-39 -108 -0.5 -156.5t161.5 -48.5q101 0 164 41t108 164l155 429h127z" />
    <glyph glyph-name="Uogonek" unicode="&#x172;" horiz-adv-x="882" 
d="M341 -221q-80 0 -115.5 35t-15.5 91q17 48 74 86q-152 14 -203 96t-6 205l154 428h127l-155 -429q-39 -108 -0.5 -156.5t161.5 -48.5q101 0 164 41t108 164l155 429h127l-155 -431q-59 -164 -147.5 -229.5t-237.5 -70.5q-55 -41 -65 -81q-8 -31 6.5 -45t53.5 -14
q46 0 85 13l-25 -69q-40 -14 -90 -14z" />
    <glyph glyph-name="uogonek" unicode="&#x173;" horiz-adv-x="882" 
d="M341 -221q-80 0 -115.5 35t-15.5 91q17 48 74 86q-152 14 -203 96t-6 205l154 428h127l-155 -429q-39 -108 -0.5 -156.5t161.5 -48.5q101 0 164 41t108 164l155 429h127l-155 -431q-59 -164 -147.5 -229.5t-237.5 -70.5q-55 -41 -65 -81q-8 -31 6.5 -45t53.5 -14
q46 0 85 13l-25 -69q-40 -14 -90 -14z" />
    <glyph glyph-name="Wcircumflex" unicode="&#x174;" horiz-adv-x="1301" 
d="M879 770l-57 121l-127 -121h-110l160 161h161l67 -161h-94zM142 0v720h124l-7 -638l417 638h178l-15 -634l419 634h137l-456 -674q-31 -46 -79 -46h-136l10 629l-388 -583q-27 -46 -81 -46h-123z" />
    <glyph glyph-name="wcircumflex" unicode="&#x175;" horiz-adv-x="1301" 
d="M879 770l-57 121l-127 -121h-110l160 161h161l67 -161h-94zM142 0v720h124l-7 -638l417 638h178l-15 -634l419 634h137l-456 -674q-31 -46 -79 -46h-136l10 629l-388 -583q-27 -46 -81 -46h-123z" />
    <glyph glyph-name="Ycircumflex" unicode="&#x176;" horiz-adv-x="813" 
d="M646 770l-57 121l-127 -121h-110l160 161h161l67 -161h-94zM335 0h-127l114 313l-190 407h124l151 -320l386 320h152l-499 -416z" />
    <glyph glyph-name="ycircumflex" unicode="&#x177;" horiz-adv-x="813" 
d="M646 770l-57 121l-127 -121h-110l160 161h161l67 -161h-94zM335 0h-127l114 313l-190 407h124l151 -320l386 320h152l-499 -416z" />
    <glyph glyph-name="Ydieresis" unicode="&#x178;" horiz-adv-x="813" 
d="M711 804h-112l34 93h112zM515 804h-112l33 93h112zM335 0h-127l114 313l-190 407h124l151 -320l386 320h152l-499 -416z" />
    <glyph glyph-name="Zacute" unicode="&#x179;" horiz-adv-x="797" 
d="M616 770h-123l205 161h149zM618 0h-673l19 50q12 31 45 55l653 520h-476l35 95h649l-30 -81l-686 -543h498z" />
    <glyph glyph-name="zacute" unicode="&#x17a;" horiz-adv-x="797" 
d="M616 770h-123l205 161h149zM618 0h-673l19 50q12 31 45 55l653 520h-476l35 95h649l-30 -81l-686 -543h498z" />
    <glyph glyph-name="Zdotaccent" unicode="&#x17b;" horiz-adv-x="797" 
d="M634 804h-127l34 93h127zM618 0h-673l19 50q12 31 45 55l653 520h-476l35 95h649l-30 -81l-686 -543h498z" />
    <glyph glyph-name="zdotaccent" unicode="&#x17c;" horiz-adv-x="797" 
d="M634 804h-127l34 93h127zM618 0h-673l19 50q12 31 45 55l653 520h-476l35 95h649l-30 -81l-686 -543h498z" />
    <glyph glyph-name="Zcaron" unicode="&#x17d;" horiz-adv-x="797" 
d="M486 770l-67 161h95l57 -121l126 121h110l-160 -161h-161zM618 0h-673l19 50q12 31 45 55l653 520h-476l35 95h649l-30 -81l-686 -543h498z" />
    <glyph glyph-name="zcaron" unicode="&#x17e;" horiz-adv-x="797" 
d="M486 770l-67 161h95l57 -121l126 121h110l-160 -161h-161zM618 0h-673l19 50q12 31 45 55l653 520h-476l35 95h649l-30 -81l-686 -543h498z" />
    <glyph glyph-name="Scommaaccent" unicode="&#x218;" horiz-adv-x="763" 
d="M295 -12q-207 0 -343 62l36 101q143 -69 302 -69q189 0 225 100q22 52 1 84.5t-97 49.5l-129 28q-209 45 -146 224q59 164 334 164q147 0 308 -61l-34 -96q-138 64 -286 64q-170 0 -201 -87q-20 -46 -3 -73t86 -43l134 -29q113 -24 149 -87.5t3 -156.5
q-35 -95 -118.5 -135t-220.5 -40zM100 -211h-122l202 161h149z" />
    <glyph glyph-name="scommaaccent" unicode="&#x219;" horiz-adv-x="763" 
d="M295 -12q-207 0 -343 62l36 101q143 -69 302 -69q189 0 225 100q22 52 1 84.5t-97 49.5l-129 28q-209 45 -146 224q59 164 334 164q147 0 308 -61l-34 -96q-138 64 -286 64q-170 0 -201 -87q-20 -46 -3 -73t86 -43l134 -29q113 -24 149 -87.5t3 -156.5
q-35 -95 -118.5 -135t-220.5 -40zM100 -211h-122l202 161h149z" />
    <glyph glyph-name="circumflex" unicode="&#x2c6;" horiz-adv-x="836" 
d="M668 770l-57 121l-127 -121h-110l160 161h161l67 -161h-94z" />
    <glyph glyph-name="caron" unicode="&#x2c7;" horiz-adv-x="836" 
d="M500 770l-67 161h95l57 -121l126 121h110l-160 -161h-161z" />
    <glyph glyph-name="breve" unicode="&#x2d8;" horiz-adv-x="835" 
d="M542 931q-19 -55 -6.5 -82t51.5 -27q83 0 123 109h92q-34 -93 -86.5 -132t-138.5 -39q-85 0 -120.5 44t-5.5 127h91z" />
    <glyph glyph-name="dotaccent" unicode="&#x2d9;" horiz-adv-x="836" 
d="M644 804h-127l34 93h127z" />
    <glyph glyph-name="ring" unicode="&#x2da;" horiz-adv-x="837" 
d="M578 760q-89 0 -122 26.5t-15 77.5q28 77 177 77q89 0 122 -26.5t15 -76.5q-28 -78 -177 -78zM591 809q59 0 74 38q8 24 -5.5 34t-52.5 10q-61 0 -76 -38q-8 -24 6 -34t54 -10z" />
    <glyph glyph-name="ogonek" unicode="&#x2db;" horiz-adv-x="868" 
d="M413 -207q-40 -14 -90 -14q-80 0 -115.5 35t-15.5 91q22 61 106 104h90q-83 -52 -95 -101q-8 -31 6.5 -45t53.5 -14q46 0 85 13z" />
    <glyph glyph-name="tilde" unicode="&#x2dc;" horiz-adv-x="869" 
d="M375 770q38 106 65 137t86 31q32 0 59 -16.5t43 -36t35.5 -36t37.5 -16.5q23 0 35.5 17.5t34.5 80.5h82q-37 -106 -64.5 -137t-86.5 -31q-32 0 -59 16.5t-43 36.5t-35.5 36.5t-37.5 16.5q-23 0 -35 -18t-35 -81h-82z" />
    <glyph glyph-name="hungarumlaut" unicode="&#x2dd;" horiz-adv-x="835" 
d="M655 770h-118l205 161h144zM409 770h-118l204 161h145z" />
    <glyph glyph-name="Delta" unicode="&#x394;" horiz-adv-x="809" 
d="M553 96l-33 565l-416 -565h449zM-102 0l513 674q32 46 86 46h134l48 -720h-781z" />
    <glyph glyph-name="Omega" unicode="&#x3a9;" 
d="M311 85l-30 -85h-310l35 96h155q-70 54 -87.5 151.5t21.5 204.5q104 280 449 280q92 0 160.5 -21t107 -57.5t56 -85.5t13 -103.5t-26.5 -113.5q-33 -89 -85 -151.5t-137 -103.5h162l-35 -96h-337l32 85q100 28 167.5 92.5t109.5 176.5q30 86 22 148.5t-64 97.5t-155 35
q-244 0 -321 -210q-33 -86 -26.5 -154t38.5 -113t86 -73z" />
    <glyph glyph-name="mu" unicode="&#x3bc;" horiz-adv-x="1175" 
d="M389 0l-55 629l-229 -629h-118l262 720h119q41 0 58 -16t20 -56l49 -536l485 608h210l-261 -720h-128l227 623l-503 -623h-136z" />
    <glyph glyph-name="pi" unicode="&#x3c0;" horiz-adv-x="920" 
d="M546 0l227 623h-432l-227 -623h-127l262 720h686l-262 -720h-127z" />
    <glyph glyph-name="uni2009" unicode="&#x2009;" horiz-adv-x="30" 
 />
    <glyph glyph-name="endash" unicode="&#x2013;" horiz-adv-x="700" 
d="M-2 319l30 82h675l-30 -82h-675z" />
    <glyph glyph-name="emdash" unicode="&#x2014;" horiz-adv-x="1400" 
d="M-2 319l30 82h1375l-30 -82h-1375z" />
    <glyph glyph-name="quoteleft" unicode="&#x2018;" horiz-adv-x="388" 
d="M336 720h93l-159 -251h-138z" />
    <glyph glyph-name="quoteright" unicode="&#x2019;" horiz-adv-x="388" 
d="M226 469h-94l159 251h138z" />
    <glyph glyph-name="quotesinglbase" unicode="&#x201a;" horiz-adv-x="436" 
d="M38 -131h-94l159 251h138z" />
    <glyph glyph-name="quotedblleft" unicode="&#x201c;" horiz-adv-x="655" 
d="M580 720h93l-159 -251h-138zM360 720h93l-159 -251h-138z" />
    <glyph glyph-name="quotedblright" unicode="&#x201d;" horiz-adv-x="655" 
d="M470 469h-94l159 251h138zM250 469h-94l159 251h138z" />
    <glyph glyph-name="quotedblbase" unicode="&#x201e;" horiz-adv-x="656" 
d="M258 -131h-94l159 251h138zM38 -131h-94l159 251h138z" />
    <glyph glyph-name="dagger" unicode="&#x2020;" horiz-adv-x="480" 
d="M535 459h-185l-166 -459h-96l166 459h-186l29 78h186l66 183h96l-66 -183h185z" />
    <glyph glyph-name="daggerdbl" unicode="&#x2021;" horiz-adv-x="480" 
d="M435 183h-185l-67 -183h-96l67 183h-186l29 78h185l72 198h-186l29 78h185l67 183h96l-67 -183h186l-29 -78h-185l-72 -198h186z" />
    <glyph glyph-name="bullet" unicode="&#x2022;" horiz-adv-x="479" 
d="M210 237q-78 0 -105 40t-3 103q23 62 63 87.5t110 25.5q78 0 105 -40t3 -103q-23 -62 -63 -87.5t-110 -25.5z" />
    <glyph glyph-name="ellipsis" unicode="&#x2026;" horiz-adv-x="1228" 
d="M951 0h-142l43 120h142zM555 0h-142l43 120h142zM159 0h-142l43 120h142z" />
    <glyph glyph-name="perthousand" unicode="&#x2030;" horiz-adv-x="1872" 
d="M272 262q-133 0 -177 72.5t-4 182.5q41 110 105.5 160.5t173.5 50.5q132 1 176.5 -72t4.5 -183q-41 -110 -105.5 -160.5t-173.5 -50.5zM882 720h111l-545 -719h-111zM365 657q-64 0 -105 -35t-73 -120q-29 -80 -6.5 -124.5t97.5 -44.5q65 0 105.5 34.5t70.5 120.5
q30 80 7.5 124.5t-96.5 44.5zM1503 -8q-133 0 -177 72.5t-4 182.5q41 110 105.5 160.5t173.5 50.5q132 1 176.5 -72t4.5 -183q-41 -110 -105.5 -160.5t-173.5 -50.5zM961 -8q-133 0 -177 72.5t-4 182.5q41 110 105.5 160.5t173.5 50.5q132 1 176.5 -72t4.5 -183
q-41 -110 -105.5 -160.5t-173.5 -50.5zM1596 387q-64 0 -105 -35t-73 -120q-29 -80 -6.5 -124.5t97.5 -44.5q65 0 105.5 34.5t70.5 120.5q30 80 7.5 124.5t-96.5 44.5zM1054 387q-64 0 -105 -35t-73 -120q-29 -80 -6.5 -124.5t97.5 -44.5q65 0 105.5 34.5t70.5 120.5
q30 80 7.5 124.5t-96.5 44.5z" />
    <glyph glyph-name="guilsinglleft" unicode="&#x2039;" horiz-adv-x="401" 
d="M330 616h115l-280 -259l96 -253h-102l-109 261z" />
    <glyph glyph-name="guilsinglright" unicode="&#x203a;" horiz-adv-x="401" 
d="M73 104h-115l280 259l-96 253h102l109 -261z" />
    <glyph glyph-name="fraction" unicode="&#x2044;" horiz-adv-x="244" 
d="M340 720h111l-545 -719h-111z" />
    <glyph glyph-name="zerosuperior" unicode="&#x2070;" horiz-adv-x="542" 
d="M321 397q-133 0 -177 72.5t-4 182.5q41 110 105.5 160.5t173.5 50.5q132 1 176.5 -72t4.5 -183q-41 -110 -105.5 -160.5t-173.5 -50.5zM414 792q-64 0 -105 -35t-73 -120q-29 -79 -6.5 -124t97.5 -45q65 0 105.5 34.5t70.5 120.5q30 79 7.5 124t-96.5 45z" />
    <glyph glyph-name="foursuperior" unicode="&#x2074;" horiz-adv-x="511" 
d="M402 593l76 211l-263 -211h187zM553 525h-79l-43 -120h-98l44 120h-281l27 76l291 229q28 25 57 25h123l-95 -262h79z" />
    <glyph glyph-name="fivesuperior" unicode="&#x2075;" horiz-adv-x="492" 
d="M282 397q-114 0 -197 40l27 69q82 -40 167 -40q131 0 153 61q14 38 -6.5 61.5t-89.5 23.5q-78 0 -176 -6l88 249h368l-25 -70h-278l-40 -109q62 4 91 4q114 0 151 -48.5t11 -123.5q-44 -111 -244 -111z" />
    <glyph glyph-name="sixsuperior" unicode="&#x2076;" horiz-adv-x="504" 
d="M538 518q-23 -66 -77 -93.5t-148 -27.5q-127 0 -171.5 74.5t0.5 195.5q39 108 115 152t197 44q93 0 172 -31l-24 -69q-66 31 -150 31q-82 0 -133 -27.5t-74 -93.5q62 20 135 20q102 0 144.5 -48t13.5 -127zM323 463q97 0 123 71q33 95 -95 95q-64 0 -127 -22
q-38 -144 99 -144z" />
    <glyph glyph-name="sevensuperior" unicode="&#x2077;" horiz-adv-x="448" 
d="M216 405h-101l22 62q19 53 49.5 92t100.5 94l166 132h-283l26 70h413l-14 -39q-8 -18 -36 -44l-192 -151q-67 -52 -91.5 -83.5t-41.5 -81.5z" />
    <glyph glyph-name="eightsuperior" unicode="&#x2078;" horiz-adv-x="534" 
d="M312 397q-129 0 -177 41.5t-22 111.5q14 37 49.5 61t86.5 29q-36 12 -49 45t1 73q23 60 77 82.5t144 22.5q117 0 163 -40t22 -106q-31 -82 -120 -96q42 -11 56.5 -45t-1.5 -74q-22 -58 -77.5 -81.5t-152.5 -23.5zM381 655q58 0 87 14t43 50q13 39 -9.5 58.5t-82.5 19.5
q-58 0 -87 -13.5t-42 -48.5q-14 -40 8 -60t83 -20zM312 465q62 0 94 13t43 45q15 41 -9 62t-91 21q-62 0 -93.5 -13t-42.5 -45q-15 -41 9.5 -62t89.5 -21z" />
    <glyph glyph-name="ninesuperior" unicode="&#x2079;" horiz-adv-x="504" 
d="M350 631q62 0 128 21q38 145 -100 145q-97 0 -122 -71q-33 -95 94 -95zM247 397q-91 0 -172 31l23 69q65 -31 152 -31q82 0 132.5 27.5t74.5 94.5q-63 -21 -136 -21q-102 0 -144 48.5t-13 126.5q23 65 77 93t147 28q128 0 172 -74.5t-1 -195.5q-40 -108 -115.5 -152
t-196.5 -44z" />
    <glyph glyph-name="zeroinferior" unicode="&#x2080;" horiz-adv-x="542" 
d="M125 -143q-133 0 -177 72.5t-4 182.5q41 110 105.5 160.5t173.5 50.5q132 1 176.5 -72t4.5 -183q-41 -110 -105.5 -160.5t-173.5 -50.5zM218 252q-64 0 -105 -35t-73 -120q-29 -79 -6.5 -124t97.5 -45q65 0 105.5 34.5t70.5 120.5q30 79 7.5 124t-96.5 45z" />
    <glyph glyph-name="oneinferior" unicode="&#x2081;" horiz-adv-x="340" 
d="M85 -135h-101l131 364l-168 -71l29 81l182 76h90z" />
    <glyph glyph-name="twoinferior" unicode="&#x2082;" horiz-adv-x="480" 
d="M270 -135h-408l18 48q11 31 38 44l209 115q6 3 22.5 12t22 12.5t18.5 11t18 11.5l14 11t13.5 12.5t9 12.5t7.5 15q14 39 -10.5 61t-97.5 22q-68 0 -147 -21l27 72q71 19 149 19q114 0 159.5 -43t18.5 -118q-11 -31 -40 -57.5t-54 -41t-78 -42.5l-158 -85h275z" />
    <glyph glyph-name="threeinferior" unicode="&#x2083;" horiz-adv-x="502" 
d="M83 -143q-113 0 -200 41l26 70q86 -42 171 -42q71 0 108 13t48 44q13 35 -5 59t-76 24h-144l22 59l241 120h-267l26 69h406l-14 -39q-13 -32 -36 -43l-217 -109h15q95 0 131.5 -45t11.5 -112q-22 -59 -83.5 -84t-163.5 -25z" />
    <glyph glyph-name="fourinferior" unicode="&#x2084;" horiz-adv-x="511" 
d="M206 53l76 211l-263 -211h187zM357 -15h-79l-43 -120h-98l44 120h-281l27 76l291 229q28 25 57 25h123l-95 -262h79z" />
    <glyph glyph-name="fiveinferior" unicode="&#x2085;" horiz-adv-x="492" 
d="M86 -143q-114 0 -197 40l27 69q82 -40 167 -40q131 0 153 61q14 38 -6.5 61.5t-89.5 23.5q-78 0 -176 -6l88 249h368l-25 -70h-278l-40 -109q62 4 91 4q114 0 151 -48.5t11 -123.5q-44 -111 -244 -111z" />
    <glyph glyph-name="sixinferior" unicode="&#x2086;" horiz-adv-x="504" 
d="M342 -22q-23 -66 -77 -93.5t-148 -27.5q-127 0 -171.5 74.5t0.5 195.5q39 108 115 152t197 44q93 0 172 -31l-24 -69q-66 31 -150 31q-82 0 -133 -27.5t-74 -93.5q62 20 135 20q102 0 144.5 -48t13.5 -127zM127 -77q97 0 123 71q33 95 -95 95q-64 0 -127 -22
q-38 -144 99 -144z" />
    <glyph glyph-name="seveninferior" unicode="&#x2087;" horiz-adv-x="448" 
d="M20 -135h-101l22 62q19 53 49.5 92t100.5 94l166 132h-283l26 70h413l-14 -39q-8 -18 -36 -44l-192 -151q-67 -52 -91.5 -83.5t-41.5 -81.5z" />
    <glyph glyph-name="eightinferior" unicode="&#x2088;" horiz-adv-x="534" 
d="M116 -143q-129 0 -177 41.5t-22 111.5q14 37 49.5 61t86.5 29q-36 12 -49 45t1 73q23 60 77 82.5t144 22.5q117 0 163 -40t22 -106q-31 -82 -120 -96q42 -11 56.5 -45t-1.5 -74q-22 -58 -77.5 -81.5t-152.5 -23.5zM185 115q58 0 87 14t43 50q13 39 -9.5 58.5t-82.5 19.5
q-58 0 -87 -13.5t-42 -48.5q-14 -40 8 -60t83 -20zM116 -75q62 0 94 13t43 45q15 41 -9 62t-91 21q-62 0 -93.5 -13t-42.5 -45q-15 -41 9.5 -62t89.5 -21z" />
    <glyph glyph-name="nineinferior" unicode="&#x2089;" horiz-adv-x="504" 
d="M154 91q62 0 128 21q38 145 -100 145q-97 0 -122 -71q-33 -95 94 -95zM51 -143q-91 0 -172 31l23 69q65 -31 152 -31q82 0 132.5 27.5t74.5 94.5q-63 -21 -136 -21q-102 0 -144 48.5t-13 126.5q23 65 77 93t147 28q128 0 172 -74.5t-1 -195.5q-40 -108 -115.5 -152
t-196.5 -44z" />
    <glyph glyph-name="Euro" unicode="&#x20ac;" horiz-adv-x="830" 
d="M660 16q-83 -28 -195 -28q-152 0 -232.5 67t-78.5 188h-153l28 78h134q6 30 22 78h-127l27 78h133q66 136 171 195.5t250 59.5q116 0 243 -48l-35 -97q-109 47 -214 47q-98 0 -167 -35.5t-118 -121.5h330l-27 -78h-339q-1 -2 -3.5 -9t-3.5 -11q-9 -24 -16 -58h333
l-28 -78h-315q1 -157 219 -157q104 0 197 29z" />
    <glyph glyph-name="litre" unicode="&#x2113;" horiz-adv-x="554" 
d="M202 -16q-39 0 -66.5 6.5t-51 27.5t-30.5 57t3 99.5t42 150.5q37 103 74.5 178t70 118t67.5 68t63 32.5t62 7.5q78 0 105 -47.5t-6 -135.5q-97 -252 -375 -366q-11 -60 7 -81.5t69 -21.5q57 0 107 22l-34 -94q-48 -21 -107 -21zM204 327q-10 -27 -18 -51q189 88 254 263
q12 33 15 54.5t-2.5 32.5t-15 15t-24.5 4q-20 0 -38 -9.5t-43.5 -39.5t-57.5 -97.5t-70 -171.5z" />
    <glyph glyph-name="trademark" unicode="&#x2122;" horiz-adv-x="1254" 
d="M769 270l-24 379l-138 -379h-95l164 450h106q27 0 38.5 -12t13.5 -41l23 -297l272 350h170l-164 -450h-106l136 373l-292 -373h-104zM574 645h-166l-136 -375h-105l136 375h-167l27 75h438z" />
    <glyph glyph-name="estimated" unicode="&#x212e;" horiz-adv-x="819" 
d="M409 646q-66 0 -124 -28t-97 -77v-136h440v135q-84 106 -219 106zM742 216q-40 -102 -131 -166.5t-202 -64.5q-149 0 -254.5 108.5t-105.5 260.5q0 151 105.5 258t254.5 107q147 0 252.5 -107t105.5 -258q0 -11 -1 -17h-578v-170q40 -51 98 -80t123 -29q84 0 151.5 42.5
t98.5 115.5h83z" />
    <glyph glyph-name="partialdiff" unicode="&#x2202;" horiz-adv-x="761" 
d="M262 -12q-166 0 -237 84.5t-24 212.5q63 173 337 173q136 0 273 -63q41 122 -10 184.5t-203 62.5q-138 0 -246 -28l35 91q112 27 246 27q190 0 269.5 -99.5t20.5 -266.5q-27 -79 -53.5 -134t-64.5 -104t-84 -78t-111 -45.5t-148 -16.5zM279 79q66 0 116 16.5t84.5 50
t57 71.5t44.5 94q-69 31 -122.5 44t-125.5 13q-91 0 -141 -22.5t-72 -79.5q-31 -78 11 -132.5t148 -54.5z" />
    <glyph glyph-name="product" unicode="&#x220f;" horiz-adv-x="920" 
d="M470 -210l303 833h-432l-303 -833h-127l338 930h686l-338 -930h-127z" />
    <glyph glyph-name="summation" unicode="&#x2211;" horiz-adv-x="796" 
d="M542 -210h-673l19 50q11 31 44 55l455 364l-208 384l28 77h649l-35 -95h-496l170 -324q16 -24 6 -54l-12 -35l-412 -327h499z" />
    <glyph glyph-name="minus" unicode="&#x2212;" horiz-adv-x="829" 
d="M111 316l32 89h577l-32 -89h-577z" />
    <glyph glyph-name="radical" unicode="&#x221a;" horiz-adv-x="638" 
d="M93 0l16 446h101l-14 -356l431 630h107l-494 -720h-147z" />
    <glyph glyph-name="infinity" unicode="&#x221e;" horiz-adv-x="814" 
d="M522 177q-59 0 -89 30.5t-45 85.5q-114 -116 -219 -116q-61 0 -93.5 25.5t-34.5 68.5t17 99q32 89 94 142.5t150 53.5q59 0 89 -31t45 -85q116 116 219 116q90 0 117 -55.5t-7 -138.5q-32 -89 -93 -142t-150 -53zM544 261q99 0 142 119q21 56 6.5 82t-65.5 26
q-40 0 -78.5 -30.5t-93.5 -92.5q13 -51 31.5 -77.5t57.5 -26.5zM197 254q40 0 78.5 30.5t93.5 92.5q-11 50 -30.5 77t-59.5 27q-98 0 -141 -119q-21 -56 -6.5 -82t65.5 -26z" />
    <glyph glyph-name="integral" unicode="&#x222b;" horiz-adv-x="515" 
d="M-69 -211q-74 0 -132 28l32 88q54 -24 104 -24t84.5 33t62.5 110l173 480q44 121 101.5 174t156.5 53q75 0 133 -28l-32 -88q-54 24 -104 24q-51 0 -85 -33t-62 -110l-173 -480q-44 -121 -102 -174t-157 -53z" />
    <glyph glyph-name="approxequal" unicode="&#x2248;" horiz-adv-x="836" 
d="M751 484q-87 -89 -162 -89q-39 0 -73.5 12.5t-55 27t-48 27t-55.5 12.5q-53 0 -119 -65l-39 63q84 89 161 89q39 0 73.5 -12.5t55 -27t48 -27t55.5 -12.5q53 0 120 65zM666 249q-45 -45 -82.5 -66.5t-79.5 -21.5q-39 0 -73.5 12.5t-55 27t-48 27t-55.5 12.5
q-53 0 -119 -65l-39 63q85 88 161 88q50 0 90 -20t74 -39.5t68 -19.5q52 0 120 66z" />
    <glyph glyph-name="notequal" unicode="&#x2260;" horiz-adv-x="829" 
d="M644 195h-358l-128 -122h-91l128 122h-128l32 88h188l163 155h-295l32 88h355l128 122h91l-128 -122h131l-32 -88h-191l-163 -155h298z" />
    <glyph glyph-name="lessequal" unicode="&#x2264;" horiz-adv-x="829" 
d="M634 173l-510 183l29 78l22 63l644 184l-35 -99l-564 -160l447 -159zM12 51l33 88h577l-33 -88h-577z" />
    <glyph glyph-name="greaterequal" unicode="&#x2265;" horiz-adv-x="830" 
d="M58 173l35 98l565 160l-448 160l33 90l510 -184l-24 -64l-27 -77zM589 51h-577l33 88h577z" />
    <glyph glyph-name="lozenge" unicode="&#x25ca;" horiz-adv-x="578" 
d="M96 0l-1 379l249 341h144l1 -379l-249 -341h-144zM191 371l2 -295l199 273l-1 296z" />
    <glyph glyph-name="dotlessj" unicode="&#xf6be;" horiz-adv-x="590" 
d="M307 231l178 489h126l-181 -504q-45 -124 -118.5 -176t-198.5 -52q-128 0 -215 42l35 95q79 -37 178 -37q144 0 196 143z" />
    <glyph glyph-name="commaaccent" unicode="&#xf6c3;" horiz-adv-x="836" 
d="M174 -211h-122l202 161h149z" />
    <glyph glyph-name="caron.alt" horiz-adv-x="836" 
d="M445 469h-89l158 251h122z" />
    <glyph glyph-name="germandbls.cap" horiz-adv-x="1526" 
d="M1058 -12q-207 0 -343 62l36 101q143 -69 302 -69q189 0 225 100q22 52 1 84.5t-97 49.5l-129 28q-209 45 -146 224q59 164 334 164q147 0 308 -61l-34 -96q-138 64 -286 64q-90 0 -137.5 -21.5t-63.5 -65.5q-20 -46 -3 -73t86 -43l134 -29q113 -24 149 -87.5t3 -156.5
q-35 -95 -118.5 -135t-220.5 -40zM295 -12q-207 0 -343 62l36 101q143 -69 302 -69q189 0 225 100q22 52 1 84.5t-97 49.5l-129 28q-209 45 -146 224q59 164 334 164q147 0 308 -61l-34 -96q-138 64 -286 64q-170 0 -201 -87q-20 -46 -3 -73t86 -43l134 -29
q113 -24 149 -87.5t3 -156.5q-35 -95 -118.5 -135t-220.5 -40z" />
    <glyph glyph-name="i.trk" horiz-adv-x="361" 
d="M406 804h-127l34 93h127zM114 0h-127l262 720h127z" />
    <glyph glyph-name="dollar.lt" horiz-adv-x="830" 
d="M374 434l40 -8l78 213q-169 -1 -201 -87q-20 -46 -3 -74t86 -44zM460 318l-17 3l-87 -238q165 6 200 99q22 52 1 85.5t-97 50.5zM329 -12h-7l-36 -98h-80l37 101q-148 10 -258 59l37 101q123 -59 255 -67l92 253l-45 9q-211 42 -146 222q59 164 333 164h15l32 88h80
l-34 -94q105 -12 215 -55l-33 -96q-104 47 -215 60l-82 -225l27 -5q112 -23 148 -86t3 -156q-35 -95 -118.5 -135t-219.5 -40z" />
    <glyph glyph-name="Euro.lt" horiz-adv-x="830" 
d="M660 16q-83 -28 -195 -28q-152 0 -232.5 67t-78.5 188h-153l28 78h134q6 30 22 78h-127l27 78h133q66 136 171 195.5t250 59.5q116 0 243 -48l-35 -97q-109 47 -214 47q-98 0 -167 -35.5t-118 -121.5h330l-27 -78h-339q-1 -2 -3.5 -9t-3.5 -11q-9 -24 -16 -58h333
l-28 -78h-315q1 -157 219 -157q104 0 197 29z" />
    <glyph glyph-name="cent.lt" horiz-adv-x="830" 
d="M231 379q-68 -200 102 -241l165 452q-204 -20 -267 -211zM403 30q-19 0 -29 1l-51 -141h-80l55 150q-137 27 -186 121t3 241q100 279 420 288l47 130h80l-48 -133q98 -8 192 -44l-35 -98q-87 40 -192 46l-169 -462q9 -1 27 -1q130 0 223 28l-36 -99q-82 -27 -221 -27z
" />
    <glyph glyph-name="sterling.lt" horiz-adv-x="830" 
d="M651 96l-35 -96h-659l32 86l47 10q116 25 149 117l11 30h-134l28 78h134l28 78h-133l27 78h134l11 30q43 120 131.5 174.5t230.5 54.5q129 0 217 -42l-35 -95q-78 38 -181 38q-188 0 -240 -143l-6 -17h298l-27 -78h-299l-29 -78h299l-28 -78h-299l-12 -34
q-16 -45 -40.5 -71t-60.5 -42h441z" />
    <glyph glyph-name="yen.lt" horiz-adv-x="830" 
d="M647 243h-213l-89 -243h-127l89 243h-211l27 78h212l28 78h-211l28 78h169l-174 243h131l153 -214l298 214h159l-347 -243h162l-28 -78h-213l-28 -78h212z" />
    <glyph glyph-name="zero.lt" horiz-adv-x="830" 
d="M496 732q105 0 176 -32.5t102 -88.5t31 -127.5t-30 -153.5q-65 -177 -167.5 -259.5t-271.5 -82.5q-105 0 -176.5 32.5t-102 88.5t-31 127.5t29.5 153.5q65 177 168 259.5t272 82.5zM489 635q-115 0 -187 -59t-125 -206q-49 -136 -7.5 -210.5t172.5 -74.5q116 0 188 59
t124 206q50 136 8.5 210.5t-173.5 74.5z" />
    <glyph glyph-name="one.lt" horiz-adv-x="830" 
d="M418 0h-127l218 603l-338 -141l39 110l357 148h113z" />
    <glyph glyph-name="two.lt" horiz-adv-x="830" 
d="M612 0h-639l25 69q16 39 51 58l348 190l40.5 22l39.5 21.5t33 19.5t32 20.5t24.5 19t23 22t15.5 22t13 25.5q26 71 -17 109t-172 38q-106 0 -231 -34l37 100q102 30 230 30q175 0 247 -69.5t29 -187.5q-11 -30 -32 -57t-42.5 -46.5t-60.5 -44t-63.5 -38l-73.5 -39.5
l-287 -154h465z" />
    <glyph glyph-name="three.lt" horiz-adv-x="830" 
d="M305 -12q-171 0 -315 68l36 98q144 -71 279 -71q117 0 182 23.5t85 77.5q22 62 -10 105.5t-136 43.5h-227l28 82l409 209h-440l35 95h637l-19 -51q-16 -42 -46 -56l-380 -196h32q153 0 213.5 -73t21.5 -179q-36 -97 -131 -136.5t-254 -39.5z" />
    <glyph glyph-name="four.lt" horiz-adv-x="830" 
d="M507 295l130 357l-461 -357h331zM728 203h-130l-74 -203h-124l74 203h-463l36 99l504 387q39 31 81 31h154l-155 -425h131z" />
    <glyph glyph-name="five.lt" horiz-adv-x="830" 
d="M321 -12q-173 0 -307 66l36 95q138 -66 270 -66q222 0 262 110q25 68 -11.5 109t-158.5 41q-145 0 -280 -10l137 387h575l-35 -95h-456l-71 -195q84 6 162 6q73 0 127.5 -14.5t85.5 -39.5t46 -60t13 -74t-18 -82q-65 -178 -377 -178z" />
    <glyph glyph-name="six.lt" horiz-adv-x="830" 
d="M705 179q-37 -103 -122 -147t-225 -44q-196 0 -265.5 119t1.5 312q62 171 182.5 242t308.5 71q140 0 264 -50l-32 -95q-109 50 -238 50q-138 0 -227.5 -48.5t-129.5 -167.5q104 37 234 37q162 0 228 -77.5t21 -201.5zM372 79q91 0 142.5 29t73.5 93q59 167 -167 167
q-113 0 -230 -40q-63 -249 181 -249z" />
    <glyph glyph-name="seven.lt" horiz-adv-x="830" 
d="M259 0h-127l28 85q28 82 80.5 148t173.5 173l247 219h-474l35 95h642l-19 -52q-9 -25 -45 -55l-290 -255q-118 -103 -160 -157.5t-69 -133.5z" />
    <glyph glyph-name="eight.lt" horiz-adv-x="830" 
d="M326 -11q-198 0 -272.5 65.5t-32.5 179.5q22 57 78.5 95.5t134.5 46.5q-55 21 -75 74t3 113q19 50 51.5 83.5t78.5 52t98 26t119 7.5q183 0 254.5 -64t31.5 -171q-23 -60 -72.5 -99.5t-117.5 -50.5q65 -19 88 -73t-2 -117q-36 -94 -125.5 -131t-239.5 -37zM443 398
q104 0 155.5 23t73.5 84q23 67 -17 100.5t-148 33.5q-105 0 -157 -22.5t-74 -82.5q-23 -69 17.5 -102.5t149.5 -33.5zM325 82q114 0 171 22t78 79q25 69 -19 105t-165 36q-112 0 -169.5 -22t-75.5 -77q-25 -70 19.5 -106.5t160.5 -36.5z" />
    <glyph glyph-name="nine.lt" horiz-adv-x="830" 
d="M411 352q113 0 230 40q64 249 -181 249q-91 0 -142.5 -29.5t-73.5 -92.5q-59 -167 167 -167zM247 -12q-140 0 -264 50l32 94q105 -49 238 -49q67 0 120 10t100 34t81.5 67t55.5 105q-106 -37 -233 -37q-163 0 -229 77.5t-21 201.5q37 102 122.5 146.5t224.5 44.5
q196 0 265.5 -119t-1.5 -312q-62 -171 -182.5 -242t-308.5 -71z" />
    <glyph glyph-name="zero.numr" horiz-adv-x="542" 
d="M272 262q-133 0 -177 72.5t-4 182.5q41 110 105.5 160.5t173.5 50.5q132 1 176.5 -72t4.5 -183q-41 -110 -105.5 -160.5t-173.5 -50.5zM365 657q-64 0 -105 -35t-73 -120q-29 -80 -6.5 -124.5t97.5 -44.5q65 0 105.5 34.5t70.5 120.5q30 80 7.5 124.5t-96.5 44.5z" />
    <glyph glyph-name="one.numr" horiz-adv-x="340" 
d="M232 270h-101l131 364l-168 -71l29 81l182 76h90z" />
    <glyph glyph-name="two.numr" horiz-adv-x="480" 
d="M417 270h-408l18 48q11 31 38 44l209 115q6 3 22.5 12t22 12.5t18.5 11t18 11.5l14 11t13.5 12.5t9 12.5t7.5 15q14 39 -10.5 61t-97.5 22q-68 0 -147 -21l27 72q71 19 149 19q114 0 159.5 -43t18.5 -118q-11 -31 -40 -57.5t-54 -41t-78 -42.5l-158 -85h275z" />
    <glyph glyph-name="three.numr" horiz-adv-x="502" 
d="M230 262q-113 0 -200 41l26 70q86 -42 171 -42q71 0 108 13t48 44q13 35 -5 59t-76 24h-144l22 59l241 120h-267l26 69h406l-14 -39q-13 -32 -36 -43l-217 -109h15q95 0 131.5 -45t11.5 -112q-22 -59 -83.5 -84t-163.5 -25z" />
    <glyph glyph-name="four.numr" horiz-adv-x="511" 
d="M353 458l76 211l-263 -211h187zM504 390h-79l-43 -120h-98l44 120h-281l27 76l291 229q28 25 57 25h123l-95 -262h79z" />
    <glyph glyph-name="five.numr" horiz-adv-x="492" 
d="M233 262q-114 0 -197 40l27 69q82 -40 167 -40q131 0 153 61q14 38 -6.5 61.5t-89.5 23.5q-78 0 -176 -6l88 249h368l-25 -70h-278l-40 -109q62 4 91 4q114 0 151 -48.5t11 -123.5q-44 -111 -244 -111z" />
    <glyph glyph-name="six.numr" horiz-adv-x="504" 
d="M489 383q-23 -66 -77 -93.5t-148 -27.5q-127 0 -171.5 74.5t0.5 195.5q39 108 115 152t197 44q93 0 172 -31l-24 -69q-66 31 -150 31q-82 0 -133 -27.5t-74 -93.5q62 20 135 20q102 0 144.5 -48t13.5 -127zM274 328q97 0 123 71q33 95 -95 95q-64 0 -127 -22
q-38 -144 99 -144z" />
    <glyph glyph-name="seven.numr" horiz-adv-x="448" 
d="M167 270h-101l22 62q19 53 49.5 92t100.5 94l166 132h-283l26 70h413l-14 -39q-8 -18 -36 -44l-192 -151q-67 -52 -91.5 -83.5t-41.5 -81.5z" />
    <glyph glyph-name="eight.numr" horiz-adv-x="534" 
d="M263 262q-129 0 -177 41.5t-22 111.5q14 37 49.5 61t86.5 29q-36 12 -49 45t1 73q23 60 77 82.5t144 22.5q117 0 163 -40t22 -106q-31 -82 -120 -96q42 -11 56.5 -45t-1.5 -74q-22 -58 -77.5 -81.5t-152.5 -23.5zM332 520q58 0 87 14t43 50q13 39 -9.5 58.5t-82.5 19.5
q-58 0 -87 -13.5t-42 -48.5q-14 -40 8 -60t83 -20zM263 330q62 0 94 13t43 45q15 41 -9 62t-91 21q-62 0 -93.5 -13t-42.5 -45q-15 -41 9.5 -62t89.5 -21z" />
    <glyph glyph-name="nine.numr" horiz-adv-x="504" 
d="M301 496q62 0 128 21q38 145 -100 145q-97 0 -122 -71q-33 -95 94 -95zM198 262q-91 0 -172 31l23 69q65 -31 152 -31q82 0 132.5 27.5t74.5 94.5q-63 -21 -136 -21q-102 0 -144 48.5t-13 126.5q23 65 77 93t147 28q128 0 172 -74.5t-1 -195.5q-40 -108 -115.5 -152
t-196.5 -44z" />
    <glyph glyph-name="zero.dnom" horiz-adv-x="542" 
d="M174 -8q-133 0 -177 72.5t-4 182.5q41 110 105.5 160.5t173.5 50.5q132 1 176.5 -72t4.5 -183q-41 -110 -105.5 -160.5t-173.5 -50.5zM267 387q-64 0 -105 -35t-73 -120q-29 -80 -6.5 -124.5t97.5 -44.5q65 0 105.5 34.5t70.5 120.5q30 80 7.5 124.5t-96.5 44.5z" />
    <glyph glyph-name="one.dnom" horiz-adv-x="340" 
d="M134 0h-101l131 364l-168 -71l29 81l182 76h90z" />
    <glyph glyph-name="two.dnom" horiz-adv-x="480" 
d="M319 0h-408l18 48q11 31 38 44l209 115q6 3 22.5 12t22 12.5t18.5 11t18 11.5l14 11t13.5 12.5t9 12.5t7.5 15q14 39 -10.5 61t-97.5 22q-68 0 -147 -21l27 72q71 19 149 19q114 0 159.5 -43t18.5 -118q-11 -31 -40 -57.5t-54 -41t-78 -42.5l-158 -85h275z" />
    <glyph glyph-name="three.dnom" horiz-adv-x="502" 
d="M132 -8q-113 0 -200 41l26 70q86 -42 171 -42q71 0 108 13t48 44q13 35 -5 59t-76 24h-144l22 59l241 120h-267l26 69h406l-14 -39q-13 -32 -36 -43l-217 -109h15q95 0 131.5 -45t11.5 -112q-22 -59 -83.5 -84t-163.5 -25z" />
    <glyph glyph-name="four.dnom" horiz-adv-x="511" 
d="M255 188l76 211l-263 -211h187zM406 120h-79l-43 -120h-98l44 120h-281l27 76l291 229q28 25 57 25h123l-95 -262h79z" />
    <glyph glyph-name="five.dnom" horiz-adv-x="492" 
d="M135 -8q-114 0 -197 40l27 69q82 -40 167 -40q131 0 153 61q14 38 -6.5 61.5t-89.5 23.5q-78 0 -176 -6l88 249h368l-25 -70h-278l-40 -109q62 4 91 4q114 0 151 -48.5t11 -123.5q-44 -111 -244 -111z" />
    <glyph glyph-name="six.dnom" horiz-adv-x="504" 
d="M391 113q-23 -66 -77 -93.5t-148 -27.5q-127 0 -171.5 74.5t0.5 195.5q39 108 115 152t197 44q93 0 172 -31l-24 -69q-66 31 -150 31q-82 0 -133 -27.5t-74 -93.5q62 20 135 20q102 0 144.5 -48t13.5 -127zM176 58q97 0 123 71q33 95 -95 95q-64 0 -127 -22
q-38 -144 99 -144z" />
    <glyph glyph-name="seven.dnom" horiz-adv-x="448" 
d="M69 0h-101l22 62q19 53 49.5 92t100.5 94l166 132h-283l26 70h413l-14 -39q-8 -18 -36 -44l-192 -151q-67 -52 -91.5 -83.5t-41.5 -81.5z" />
    <glyph glyph-name="eight.dnom" horiz-adv-x="534" 
d="M165 -8q-129 0 -177 41.5t-22 111.5q14 37 49.5 61t86.5 29q-36 12 -49 45t1 73q23 60 77 82.5t144 22.5q117 0 163 -40t22 -106q-31 -82 -120 -96q42 -11 56.5 -45t-1.5 -74q-22 -58 -77.5 -81.5t-152.5 -23.5zM234 250q58 0 87 14t43 50q13 39 -9.5 58.5t-82.5 19.5
q-58 0 -87 -13.5t-42 -48.5q-14 -40 8 -60t83 -20zM165 60q62 0 94 13t43 45q15 41 -9 62t-91 21q-62 0 -93.5 -13t-42.5 -45q-15 -41 9.5 -62t89.5 -21z" />
    <glyph glyph-name="nine.dnom" horiz-adv-x="504" 
d="M203 226q62 0 128 21q38 145 -100 145q-97 0 -122 -71q-33 -95 94 -95zM100 -8q-91 0 -172 31l23 69q65 -31 152 -31q82 0 132.5 27.5t74.5 94.5q-63 -21 -136 -21q-102 0 -144 48.5t-13 126.5q23 65 77 93t147 28q128 0 172 -74.5t-1 -195.5q-40 -108 -115.5 -152
t-196.5 -44z" />
    <glyph glyph-name="numero" horiz-adv-x="1512" 
d="M1208 262q-133 0 -177 72.5t-4 182.5q41 110 105.5 160.5t173.5 50.5q132 1 176.5 -72t4.5 -183q-41 -110 -105.5 -160.5t-173.5 -50.5zM1301 657q-64 0 -105 -35t-73 -120q-29 -80 -6.5 -124.5t97.5 -44.5q65 0 105.5 34.5t70.5 120.5q30 80 7.5 124.5t-96.5 44.5z
M538 0l-206 623l-227 -623h-118l262 720h113q61 0 71 -48l197 -578l228 626h120l-262 -720h-178zM1328 114h-397l24 71h397z" />
    <glyph glyph-name="bar.alt" horiz-adv-x="0" 
d="M-5 -259v1200h10v-1200h-10z" />
    <glyph glyph-name="space.alt" horiz-adv-x="218" 
 />
    </font>
</defs>
</svg>
