<?xml version="1.0" encoding="UTF-8"?>
<svg width="400px" height="326px" viewBox="0 0 400 326" version="1.1" xmlns="http://www.w3.org/2000/svg" xmlns:xlink="http://www.w3.org/1999/xlink">
    <!-- Generator: Sketch 54.1 (76490) - https://sketchapp.com -->
    <title>Artboard</title>
    <desc>Created with Sketch.</desc>
    <g id="Artboard" stroke="none" stroke-width="1" fill="none" fill-rule="evenodd">
        <g id="linkedin-std" transform="translate(30.000000, 0.000000)" fill="#0077B5" fill-rule="nonzero">
            <path d="M341,199.870341 L341,326 L267.912659,326 L267.912659,208.317745 C267.912659,178.755004 257.341363,158.579588 230.886168,158.579588 C210.690982,158.579588 198.672812,172.17634 193.385579,185.328908 C191.457471,190.0309 190.961173,196.575457 190.961173,203.157294 L190.961173,326 L117.849255,326 C117.849255,326 118.833922,126.684887 117.849255,106.034355 L190.954038,106.034355 L190.954038,137.213605 C190.805783,137.446801 190.613131,137.69824 190.473597,137.924297 L190.954038,137.924297 L190.954038,137.213605 C200.666723,122.247026 218.012559,100.866765 256.83793,100.866765 C304.939942,100.865971 341,132.305385 341,199.870341 Z M41.3710758,0 C16.3595836,0 0,16.4133459 0,37.997455 C0,59.1112063 15.8862775,76.0226714 40.4006794,76.0226714 L40.8890488,76.0226714 C66.3849464,76.0226714 82.2410972,59.114379 82.2410972,37.997455 C81.7606558,16.4133459 66.3849464,0 41.3710758,0 Z M4.34220689,326 L77.426377,326 L77.426377,106.034355 L4.34220689,106.034355 L4.34220689,326 Z" id="LinkedIn"/>
        </g>
    </g>
</svg>