<?xml version="1.0" encoding="UTF-8"?>
<svg width="400px" height="326px" viewBox="0 0 400 326" version="1.1" xmlns="http://www.w3.org/2000/svg" xmlns:xlink="http://www.w3.org/1999/xlink">
    <!-- Generator: Sketch 54.1 (76490) - https://sketchapp.com -->
    <title>Artboard</title>
    <desc>Created with Sketch.</desc>
    <g id="Artboard" stroke="none" stroke-width="1" fill="none" fill-rule="evenodd">
        <g id="twitter" fill="#1DA1F2" fill-rule="nonzero">
            <path d="M399.216699,38.8218588 C384.467314,45.3228072 368.71797,49.7514738 352.135328,51.7736197 C369.034624,41.5626185 382.034082,25.4690111 388.183826,6.26698108 C372.334486,15.5421131 354.768551,22.2937407 336.06933,26.0539294 C321.136619,10.0271697 299.854173,0 276.221824,0 C230.940377,0 194.225241,36.8164249 194.225241,82.172656 C194.225241,88.6903163 194.975209,94.9572974 196.341819,100.956887 C128.177993,97.731481 67.7638432,64.9092121 27.3321945,15.2914338 C20.2158243,27.3574614 16.232657,41.3787871 16.232657,56.653509 C16.232657,85.2309427 30.7320528,110.349003 52.6978043,125.105654 C39.2483647,124.671144 26.5988917,120.961091 15.5660181,114.811093 L15.5660181,115.830522 C15.5660181,155.688522 43.7815091,188.92859 81.3299446,196.499103 C74.446898,198.354129 67.1805341,199.356846 59.7308445,199.356846 C54.4977293,199.356846 49.4812716,198.855488 44.464814,197.919619 C54.9810425,230.558056 85.2131161,254.355872 121.19495,255.02435 C93.1961168,277.067412 57.7142619,290.203004 19.4991875,290.203004 C12.9994584,290.203004 6.51639515,289.818629 0,289.083303 C36.4818133,312.379761 79.4633557,326 125.944752,326 C276.838465,326 359.251698,200.727226 359.251698,92.2666735 C359.251698,88.773876 359.251698,85.2476547 359.001708,81.7381453 C375.017708,70.223612 389.000458,55.667504 400,39.1560978 L399.216699,38.8218588 Z" id="Path"/>
        </g>
    </g>
</svg>