<?xml version="1.0" encoding="UTF-8"?>
<svg width="44px" height="36px" viewBox="0 0 44 36" version="1.1" xmlns="http://www.w3.org/2000/svg" xmlns:xlink="http://www.w3.org/1999/xlink">
    <!-- Generator: Sketch 54.1 (76490) - https://sketchapp.com -->
    <title>Artboard</title>
    <desc>Created with Sketch.</desc>
    <g id="Artboard" stroke="none" stroke-width="1" fill="none" fill-rule="evenodd">
        <g id="noun_wave_306086" fill="#335CAD" fill-rule="nonzero">
            <path d="M4.01811319,9.14121389 C8.28904279,5.49161032 11.6628621,2.60627323 20.8158318,7.75278832 C25.2128947,10.2246139 28.7597805,11.1576904 31.7126668,11.1572039 C36.8826622,11.1572039 40.2320371,8.29521807 43.1291901,5.81804113 C44.1622114,4.93555901 44.2951891,3.36859379 43.4259454,2.31827466 C42.5567017,1.26795552 41.0147475,1.13222647 39.9817262,2.01616804 C35.7112855,5.66723107 32.3379551,8.55159518 23.182052,3.40410712 C11.0874403,-3.39450791 5.42268974,1.44844112 0.870649272,5.33885431 C-0.16188316,6.22182292 -0.29534971,7.78878815 0.573893975,8.83910728 C1.44264877,9.88893992 2.98460298,10.024669 4.01811319,9.14121389 Z M39.9817262,14.4380526 C35.7112855,18.0881426 32.3379551,20.9729932 23.182052,15.8259916 C11.0874403,9.02689013 5.42268974,13.8698392 0.870649272,17.7607388 C-0.16188316,18.6441939 -0.29534971,20.2111592 0.573893975,21.2600188 C1.44264877,22.310338 2.98509187,22.446067 4.01811319,21.5626119 C8.28904279,17.9125219 11.6628621,15.0276713 20.8158318,20.1736999 C25.2128947,22.6455255 28.7597805,23.5790884 31.7126668,23.5790884 C36.8826622,23.5790884 40.2320371,20.7166161 43.1291901,18.2399257 C44.1622114,17.3564706 44.2951891,15.7895053 43.4259454,14.7401592 C42.5571906,13.6888671 41.0152364,13.554111 39.9817262,14.4380526 Z M39.9817262,26.8584776 C35.7112855,30.5090542 32.3379551,33.3934183 23.182052,28.2469032 C11.0874403,21.4478017 5.42268974,26.2907507 0.870649272,30.1816504 C-0.16188316,31.064619 -0.29534971,32.6320707 0.573893975,33.6823898 C1.44264877,34.7312495 2.98509187,34.8674651 4.01811319,33.98401 C8.28904279,30.3329469 11.6623732,27.4495558 20.8158318,32.5946114 C25.2128947,35.06741 28.7597805,36 31.7126668,36 C36.8826622,36 40.2320371,33.1375277 43.1291901,30.6613237 C44.1622114,29.7783551 44.2951891,28.2104169 43.4259454,27.1605842 C42.5567017,26.1107516 41.0152364,25.9759955 39.9817262,26.8584776 Z" id="Shape"/>
        </g>
    </g>
</svg>