<svg xmlns="http://www.w3.org/2000/svg" xmlns:xlink="http://www.w3.org/1999/xlink" width="2000" height="666" viewBox="0 0 2000 666"><defs><linearGradient id="linear-gradient" x1="994.25" y1="684.3" x2="994.25" y2="19.2" gradientUnits="userSpaceOnUse"><stop offset="0" stop-color="#1f1f2b"/><stop offset="1" stop-color="#3f3d56"/></linearGradient><linearGradient id="linear-gradient-2" x1="1002.25" y1="386.84" x2="1002.25" y2="-38.3" gradientUnits="userSpaceOnUse"><stop offset="0" stop-color="#f2f2f2"/><stop offset="1" stop-color="#ccc"/></linearGradient><clipPath id="clip-path"><path d="M-11,335.59v-371l2026.5-2.9L2005.3,323S1650,386.84,1016.86,386.84-11,335.59-11,335.59Z" fill="none"/></clipPath></defs><title>header-2</title><g id="Layer_3" data-name="Layer 3"><rect x="-16.4" y="19.2" width="2021.3" height="665.1" fill="url(#linear-gradient)"/></g><g id="Layer_2" data-name="Layer 2"><path d="M-11,335.59v-371l2026.5-2.9L2005.3,323S1650,386.84,1016.86,386.84-11,335.59-11,335.59Z" fill="url(#linear-gradient-2)"/><g clip-path="url(#clip-path)"><path d="M1965,342.45a74.86,74.86,0,0,1-6.85,5.47c-5.66,4-11.79,3-18.24,5.51-26.8-.64-65.32,5.76-115,4-3.71-1.27-324,11.92-335,16.32h-1.08l20.41-39,115.69-224.07,27.08,69.46,8.6,22.17,23.8-32.66,12.3-16.85,56,64.16L1768.41,182l109.5,89.36,6.11,5,6.18,5,2,1.61,58.54,47.78Z" fill="#f2f2f2"/><polygon points="1614.55 155.8 1625.72 131.3 1641.19 166.98 1627.87 141.19 1614.55 155.8" opacity="0.1" style="isolation:isolate"/><path d="M1728.18,321.62q-7.39-1.22-14.74-2.09l-52.91-117.22Z" opacity="0.1" style="isolation:isolate"/><polygon points="1684.35 169.66 1696.64 160.1 1752.51 224.57 1695.78 169.56 1684.35 169.66" opacity="0.1" style="isolation:isolate"/><polygon points="1752.6 216.95 1864.26 323.85 1848.98 327.45 1752.6 216.95" opacity="0.1" style="isolation:isolate"/></g></g></svg>