<svg id="Layer_1" data-name="Layer 1" xmlns="http://www.w3.org/2000/svg" width="510.43" height="285.09" viewBox="0 0 510.43 285.09"><title>header-pro</title><path d="M492.44,193.39a75.49,75.49,0,0,1-10.81,38.95c0,14.39-6.68,27.34-17.57,36.88a57.11,57.11,0,0,1-8.74,6.36c-.16.08-.24.16-.4.24s-.48.24-.72.4l-.24.16h0c-1,.56-2,1.11-3,1.59a69.13,69.13,0,0,1-30.6,7.07H108.05c-2.46,0-4.93-.08-7.39-.32a87.23,87.23,0,0,1-25.36-5.88c-1.59-.64-3.1-1.27-4.69-2-.72-.32-1.43-.72-2.15-1-.48-.24-.87-.48-1.35-.72a82.92,82.92,0,0,1-7.71-4.69c-2.31-1.59-4.45-3.26-6.52-5C38.74,253.32,30.08,236.55,30.08,218A74.73,74.73,0,0,1,18,177.1c0-41.09,32.83-74.48,73.44-74.48,1.27,0,2.46,0,3.74.08h.56A126.9,126.9,0,0,1,122.68,70.9C152.64,45.23,196.44,29,245.16,29c41,0,78.45,11.45,107.15,30.28a72.67,72.67,0,0,1,35.61-9.38c40.54,0,73.44,33.3,73.44,74.48,0,2.62-.16,5.17-.4,7.79A74.8,74.8,0,0,1,492.44,193.39Z" fill="#1f1f2b" opacity="0.1" style="isolation:isolate"/><path d="M395.63,133.71v-4.45a16.17,16.17,0,1,0-12.16,0v4.45a22.47,22.47,0,0,0-10.57,6.44A23.25,23.25,0,0,0,360,130.77v-4.45a16.17,16.17,0,1,0-12.16,0v4.45a22.86,22.86,0,0,0-9.62,5.48,22.84,22.84,0,0,0-12.16-8.35v-4.45a16.17,16.17,0,1,0-12.16,0v4.45a23.66,23.66,0,0,0-10.81,6.68,22.89,22.89,0,0,0-15.18-13.67v-4.45a16.17,16.17,0,1,0-12.16,0v4.45a23,23,0,0,0-16.61,19.79,24.57,24.57,0,0,0-6.84-3.26V133a16.17,16.17,0,1,0-12.16,0v4.45a22.7,22.7,0,0,0-14.39,11.92,22.84,22.84,0,0,0-6.2-2.78v-4.45a16.17,16.17,0,1,0-12.16,0v4.45a22.73,22.73,0,0,0-5.88,2.54,22.84,22.84,0,0,0-14.31-11.68V133a16.17,16.17,0,1,0-12.16,0v4.45a22.75,22.75,0,0,0-14.86,13,23.15,23.15,0,0,0-7.79-3.89v-4.45a16.17,16.17,0,1,0-12.16,0v4.45a22.82,22.82,0,0,0-16.69,22V271.46h45.62v-9.14h21.54v9.14h45.62v-9.14h32.75V245.71H297.3v7.07h34v2.94H367v2.94h45.62V155.81A23.32,23.32,0,0,0,395.63,133.71Z" fill="#ff6584" opacity="0.1" style="isolation:isolate"/><path d="M221.48,90.16h37.91a70.69,70.69,0,0,1,70.66,70.58h0v95.7H150.89V160.82a70.64,70.64,0,0,1,70.58-70.66Z" fill="#2f2e41"/><path d="M225.69,94.05h29.65A70.69,70.69,0,0,1,326,164.63h0v88H155.11v-88a70.47,70.47,0,0,1,70.58-70.58Z" opacity="0.2" style="isolation:isolate"/><path d="M450.95,270v7.23a69.13,69.13,0,0,1-30.6,7.07H108.05c-2.46,0-4.93-.08-7.39-.32a87.23,87.23,0,0,1-25.36-5.88c-1.59-.64-3.1-1.27-4.69-2-.72-.32-1.43-.72-2.15-1-.48-.24-.87-.48-1.35-.72a82.92,82.92,0,0,1-7.71-4.69V250.08a12,12,0,0,1,12-12H416.13A11.93,11.93,0,0,1,424,241l22.81,20A12,12,0,0,1,450.95,270Z" fill="#2f2e41"/><path d="M218.14,113.76c-9.06.64-18,1.59-27,2.94a26.49,26.49,0,0,0-7.47,1.91,20.07,20.07,0,0,0-4.93,3.58A65.22,65.22,0,0,0,163,143.57c-2.31,5-4,10.33-6.12,15.42-7.79,18.12-21.78,33-30,50.95A47.21,47.21,0,0,0,123,222.1c-.64,4.37.08,9.46,3.66,12a14.23,14.23,0,0,0,5.64,2.07,690.73,690.73,0,0,0,75.27,12.32c-2.7-2.62-3.66-6.76-3.26-10.57A37.59,37.59,0,0,1,207.64,227q-21.46-4.77-42.84-9.94c-2.15-.56-4.69-1.51-4.93-3.66a5.32,5.32,0,0,1,1-3.18,168.65,168.65,0,0,1,21.7-30.68c0,11.6-.56,24.8-.56,36.4H316.38a109.23,109.23,0,0,1-2.86-20.27c-.64-22.26,6.92-44.43,4.93-66.69a14.08,14.08,0,0,0-1.51-6c-1.83-3-5.56-4.29-9-5.33-13-4-26.39-7.95-40-7.63-4.05.08-8.11.56-12.08,1C243.57,112.65,230.46,112.89,218.14,113.76Z" fill="#ad26b4"/><path d="M155.19,247.46,165,278.77a1,1,0,0,0,1,.72h42L197.95,243l-41.89,3.26a1,1,0,0,0-.87,1Z" fill="#656478"/><path d="M227,117.9a17.64,17.64,0,0,1-6,1.75l-13.35,11.6c-2.62.48-5.33,1-7.39,2.7-4.13,3.5-3.18,10-2,15.26l2.46,10.57c1.91,7.95,3.82,16,7.63,23.13,6.68,12.56,19,21.54,32.59,25.91a35.86,35.86,0,0,0,15,2c9.86-1.11,18.36-8.11,23.61-16.61s7.71-18.28,10-28c2.15-9.3,4.29-18.68,4.13-28.22-.08-2.94-.32-6-1.91-8.58-3.5-5.56-11.37-6-17.8-4.93a6.46,6.46,0,0,1-3,0c-2.94-.87-2.94-4.93-4.21-7.63-2.38-5.25-9.3-6.12-15-5.64s-14.55,1.11-19.55,4.29C227.36,118.61,232.6,114.64,227,117.9Z" fill="#fbbebe"/><path d="M221.34,120.13c-1.83,1-4.44,5.88-6.51,6.2l-7.27,4.93c-2.62.48-5.33,1-7.39,2.7-4.13,3.5-3.18,10-2,15.26l2.46,10.57c1.91,7.95,3.82,16,7.63,23.13,6.68,12.56,19,21.54,32.59,25.91a35.86,35.86,0,0,0,15,2c9.86-1.11,18.36-8.11,23.61-16.61s7.71-18.28,10-28c2.15-9.3,4.29-18.68,4.13-28.22-.08-2.94-.32-6-1.91-8.58-3.5-5.56-11.37-6-17.8-4.93a6.46,6.46,0,0,1-3,0c-2.94-.87-2.94-4.93-4.21-7.63-2.38-5.25-9.3-6.12-15-5.64s-14.55,1.11-19.55,4.29C227.36,118.61,227,116.87,221.34,120.13Z" opacity="0.1" style="isolation:isolate"/><path d="M215.91,139.12c2,4.21,3.58,8.74,6,12.8a61.45,61.45,0,0,0,6.92,8.82c6.44,7.23,13,14.63,20.9,20.11a91.82,91.82,0,0,1,23-45.23c3.42-3.66,7.71-7.31,12.72-7.15,3.1.08,6,1.67,8.58,3.34a29.19,29.19,0,0,1,7.71,6.92c3.26,4.37,4.69,10,5,15.5s-.64,11-1.43,16.37l-4.37,28.06c-.24,1.59-.64,3.42-1.91,4.37a5.41,5.41,0,0,1-2.46.87c-15.82,3.1-32.11,1.11-48.25,1-17.8-.16-36.17,1.83-53-3.82a5.08,5.08,0,0,1-2.38-1.35,5,5,0,0,1-.79-1.75c-4-12.72-.79-26.47,1.59-39.58,1.83-10.41,3.18-20.9,4-31.4.08-1,10.49,1.11,11.68,1.83C212.26,130.61,214.4,135.86,215.91,139.12Z" fill="#ad26b4"/><g opacity="0.2"><path d="M87.15,242.69a1.35,1.35,0,0,1-.08.56c-1.59-.64-3.1-1.27-4.69-2a3.65,3.65,0,0,1-2.15-1c-.48-.24-.87-.48-1.35-.72.08-.24.24-.4.32-.64a3.83,3.83,0,0,1,7,.24A5.44,5.44,0,0,1,87.15,242.69Z" fill="#3f3d56"/><path d="M87.38,235.61a6.67,6.67,0,0,1-1,3.5,4.11,4.11,0,0,1-3.58,2.15h-.32a3.65,3.65,0,0,1-2.15-1,4.85,4.85,0,0,1-1-1.27,7,7,0,0,1,.24-7.07,3.83,3.83,0,0,1,7,.24A6.5,6.5,0,0,1,87.38,235.61Z" fill="#3f3d56"/><ellipse cx="83.2" cy="228.4" rx="5.8" ry="4.45" transform="translate(-147.71 304.34) rotate(-88.19)" fill="#3f3d56"/><ellipse cx="83.45" cy="221.29" rx="5.8" ry="4.45" transform="translate(-140.36 297.71) rotate(-88.19)" fill="#3f3d56"/><ellipse cx="83.62" cy="214.17" rx="5.8" ry="4.45" transform="translate(-133.08 290.98) rotate(-88.19)" fill="#3f3d56"/><path d="M68.55,165A26.1,26.1,0,0,1,67,162.57l11.68-1.51L66,160.74a21.06,21.06,0,0,1,.16-16.85l16.61,9.3L67.51,141.26a21.25,21.25,0,0,1,36.17,22.34,29.51,29.51,0,0,1-1.83,2.54,21.65,21.65,0,0,1,2.31,4l-15.34,7.39,16.29-4.93a21.36,21.36,0,0,1-4.05,19.87,21.26,21.26,0,1,1-33.38-1.11A21.49,21.49,0,0,1,68.55,165Z" fill="#57b894"/><path d="M106.14,179.42a21.26,21.26,0,0,1-5,13,21.25,21.25,0,1,1-33.38-1C65,187.6,106.14,177,106.14,179.42Z" opacity="0.1" style="isolation:isolate"/></g><circle cx="46.21" cy="78.63" r="8.98" fill="#57b894" opacity="0.1" style="isolation:isolate"/><circle cx="83.57" cy="29.03" r="8.98" fill="#57b894" opacity="0.1" style="isolation:isolate"/><circle cx="80.55" cy="63.13" r="15.02" fill="#57b894" opacity="0.1" style="isolation:isolate"/><circle cx="243.17" cy="96.99" r="34.81" fill="#fbbebe"/><path d="M229,28.63c-9.3,1.19-19.31,2.7-25.91,9.38-3.66,3.74-5.8,8.74-7.63,13.67-2.78,7.71-4.77,15.74-4.13,23.92.56,7.31.4,19.27-2.39,27.63-3.49,9.29,4.12,23.05,8.6,28.12,5.34,6,18.13,18.13,33.69,17-5.4-17.8-15.59-33.15-11.62-51.35,1.43-6.52,7.56-22.39,14.16-23.58,4.05-.72,8,1.11,11.68,3,8.58,4.45,17.41,10.33,20.59,19.39,2.94,8.27.48,17.49-3.34,25.36s1.52,15.55-3.35,26c7-3.49,24.94-10.19,30.44-21.15,4.17-8.31,7.73-22.5,6.85-31.8s-2.23-18.68-5.25-27.58c-2.38-7.15-5.8-14.07-11-19.55C275,41.19,267.81,37.3,260.74,33.4c-4.21-2.31-8.5-4.69-13.19-5.48-3.74-.72-7.63-1.67-11.45-1.75C233.56,26.25,230.85,26.81,229,28.63Z" fill="#3f3d56"/><path d="M272.19,69.25l22.41,4.37a1.24,1.24,0,0,1,1,1.43l-10.73,55.32a1.24,1.24,0,0,1-1.43,1L261,127a1.24,1.24,0,0,1-1-1.43l10.73-55.32A1.31,1.31,0,0,1,272.19,69.25Z" fill="#656478"/><path d="M273.86,69.57l22.41,4.37a1.24,1.24,0,0,1,1,1.43l-10.73,55.32a1.24,1.24,0,0,1-1.43,1l-22.41-4.37a1.24,1.24,0,0,1-1-1.43l10.73-55.32A1.31,1.31,0,0,1,273.86,69.57Z" fill="#3f3d56"/><ellipse cx="282.64" cy="84.25" rx="4.13" ry="1.75" transform="translate(146.09 345.67) rotate(-79.02)" fill="#1f1f2b"/><path d="M289.59,103.43c-1.11-1.91-2.23-4-4.13-5.17A13.17,13.17,0,0,0,282,96.75c-4.05-1.43-8.11-2.86-12.32-3-.72,0-1.51,0-1.91.56-1,1.11.56,2.54,1.83,3.26l10.09,5.25-9.3-1c-1.35-.16-3.26.24-3.18,1.59.08.87,1,1.35,1.91,1.67,6,2.07,13,3.74,16.21,9.14-4.37-.4-8.82-.79-13.11.16a5.78,5.78,0,0,0-3.18,1.59,2.35,2.35,0,0,0,.08,3.26,2.93,2.93,0,0,0,2.15.4c3-.16,6.12-.72,9.06.08s5.48,3.89,4.53,6.84a16.22,16.22,0,0,0,8-1.11c2.62-1.27,2.54-3.58,2.38-6.44C295,113.37,292.3,108.2,289.59,103.43Z" fill="#fbbebe"/><path d="M287,193.88a458.35,458.35,0,0,0-9.54-48.49c-2.07-8.27-4.45-16.69-3.82-25.28,8.58,1.11,16.21,1.91,24.16-1.59.16,4.45,3.42,8.27,4.53,12.64.79,2.94.48,6,.79,9a56.82,56.82,0,0,0,2.07,8.82A108.1,108.1,0,0,1,308,193.25C300.56,194,294.28,195,287,193.88Z" opacity="0.1" style="isolation:isolate"/><path d="M285.78,193.88a458.35,458.35,0,0,0-9.54-48.49c-2.07-8.27-4.45-16.69-3.82-25.28,8.58,1.11,16.21,1.91,24.16-1.59.16,4.45,3.42,8.27,4.53,12.64.79,2.94.48,6,.79,9A56.82,56.82,0,0,0,304,149a108.1,108.1,0,0,1,2.78,44.27C299.37,194,293.09,195,285.78,193.88Z" fill="#ad26b4"/><path d="M165.92,274.64,170,173.93a6.09,6.09,0,0,1,6.2-5.88l160.32,1.51a6.19,6.19,0,0,1,6.12,6.2v.48l-8.5,96.49a6.13,6.13,0,0,1-6,5.64l-155.87,2.7a6.14,6.14,0,0,1-6.28-6A.36.36,0,0,1,165.92,274.64Z" fill="#3f3d56"/><ellipse cx="255.42" cy="213.75" rx="7.07" ry="8.27" fill="#1f1f2b"/><path d="M406.12,208l-.32,2.86-5.4,45.94c-14.07,9.78-25,.4-25.12,0l-6.76-46.18-.4-2.62Z" fill="#3f3d56"/><path d="M406.12,208l-.32,2.86c-15.82,9.22-32.75,2.07-37.28-.24l-.4-2.62Z" opacity="0.1" style="isolation:isolate"/><path d="M367.41,205.57v4.13s20.9,12.16,39.82,0v-4.13Z" fill="#ff6584"/><path d="M369.79,200.08s-.64,2.78-2.46,3v3.5h39.82v-3.18a2.94,2.94,0,0,1-2.07-3.42Z" fill="#ff6584"/><ellipse cx="387.2" cy="200.4" rx="17.96" ry="5.17" fill="#ff6584"/><ellipse cx="387.2" cy="200.4" rx="17.96" ry="5.17" opacity="0.1" style="isolation:isolate"/><path d="M402.94,200.08c0,2.07-6.84,3.74-15.18,3.74h-.48c-5.64-.08-10.49-.79-13-2-1.11-.56-1.75-1.11-1.75-1.75,0-1,1.75-2,4.53-2.7a48,48,0,0,1,10.65-1.11C396.1,196.35,402.94,198,402.94,200.08Z" opacity="0.1" style="isolation:isolate"/><path d="M387.28,203.9c-5.64-.08-10.49-.79-13-2h0l2.78-4.45Z" opacity="0.1" style="isolation:isolate"/><path d="M371.38,200.4a.41.41,0,0,0-.56.24.48.48,0,0,0,.08.32,4.51,4.51,0,0,0,2,1.67,1.13,1.13,0,0,0,.48.16.44.44,0,0,0,.4-.24c.08-.16,0-.24,0-.4a3.45,3.45,0,0,0-.48-.56C372.65,201.2,372.1,200.48,371.38,200.4Z" opacity="0.1" style="isolation:isolate"/><circle cx="387.76" cy="234.02" r="10.73" fill="#ff6584"/><path d="M96,234h5a10.31,10.31,0,0,1,10.33,10.33v15.42H85.64V244.36A10.43,10.43,0,0,1,96,234Z" fill="#3f3d56"/><path d="M96,234h5a10.31,10.31,0,0,1,10.33,10.33v15.42H85.64V244.36A10.43,10.43,0,0,1,96,234Z" opacity="0.1" style="isolation:isolate"/><circle cx="97.56" cy="237.6" r="2.07" fill="#3f3d56"/><circle cx="97.56" cy="235.06" r="2.07" fill="#3f3d56"/><circle cx="97.56" cy="232.51" r="2.07" fill="#3f3d56"/><circle cx="97.56" cy="229.89" r="2.07" fill="#3f3d56"/><circle cx="97.56" cy="227.35" r="2.07" fill="#3f3d56"/><circle cx="97.56" cy="224.72" r="2.07" fill="#3f3d56"/><circle cx="97.56" cy="222.18" r="2.07" fill="#3f3d56"/><circle cx="100.66" cy="223.21" r="2.07" fill="#3f3d56"/><circle cx="102.73" cy="222.18" r="2.07" fill="#3f3d56"/><circle cx="104.79" cy="221.15" r="2.07" fill="#3f3d56"/><circle cx="97.56" cy="219.64" r="2.07" fill="#3f3d56"/><circle cx="97.56" cy="217.01" r="2.07" fill="#3f3d56"/><circle cx="97.56" cy="214.47" r="2.07" fill="#3f3d56"/><circle cx="97.56" cy="211.85" r="2.07" fill="#3f3d56"/><path d="M106.14,205.25a9.74,9.74,0,0,1-1.51.16,10.85,10.85,0,0,0,1.35-1.35,8.59,8.59,0,0,0-1.27-2.38,4.15,4.15,0,0,1-1.67.56,9.74,9.74,0,0,1-1.51.16,24.85,24.85,0,0,0,2-2.07,8.72,8.72,0,1,0,.64,12.32,9.22,9.22,0,0,0,2-7.39Z" fill="#57b894"/><path d="M113,215.42a3.49,3.49,0,0,1-1.75.56,9.74,9.74,0,0,1-1.51.16,14.29,14.29,0,0,0,1.51-1.59,5.14,5.14,0,1,0,3.66,6.28,5,5,0,0,0-1.91-5.4Z" fill="#57b894"/><circle cx="94.46" cy="223.21" r="2.07" fill="#3f3d56"/><circle cx="92.39" cy="222.18" r="2.07" fill="#3f3d56"/><circle cx="90.33" cy="221.15" r="2.07" fill="#3f3d56"/><path d="M82.14,215.42a3.49,3.49,0,0,0,1.75.56,9.74,9.74,0,0,0,1.51.16,14.29,14.29,0,0,1-1.51-1.59,5.14,5.14,0,1,1-3.66,6.28,5,5,0,0,1,1.91-5.4Z" fill="#57b894"/><path d="M96,235.53h5a10.31,10.31,0,0,1,10.33,10.33v13.67a1.76,1.76,0,0,1-1.75,1.75H87.38a1.76,1.76,0,0,1-1.75-1.75V245.87A10.48,10.48,0,0,1,96,235.53Z" fill="#3f3d56"/><g opacity="0.1"><path d="M106.3,205.81l-.64.64a2.2,2.2,0,0,0,.72-.08A1.35,1.35,0,0,1,106.3,205.81Z"/><path d="M102.49,203.34a8.81,8.81,0,0,0,1.51-.16,4.36,4.36,0,0,0,1.35-.4l-.72-1.19a3.32,3.32,0,0,1-.79.32A7.76,7.76,0,0,1,102.49,203.34Z"/><path d="M89.85,207.71A8.72,8.72,0,0,1,98.59,199a8.6,8.6,0,0,1,4.77,1.43l.16-.16a8.73,8.73,0,1,0-11.6,13l.08.08A8.2,8.2,0,0,1,89.85,207.71Z"/></g><g opacity="0.1"><path d="M109.72,217.25a9.74,9.74,0,0,0,1.51-.16,4.51,4.51,0,0,0,1.75-.56,5.23,5.23,0,0,1,2.07,3.66v-.56A5.16,5.16,0,0,0,113,215.5a3.49,3.49,0,0,1-1.75.56l-.4.08Z"/><path d="M110,215.5h.48c.24-.32.56-.56.79-.87a5.09,5.09,0,0,0-6.28,3.66,7,7,0,0,0-.16,1.35v.48A5.12,5.12,0,0,1,110,215.5Z"/></g><g opacity="0.1"><path d="M85.4,217.25a9.74,9.74,0,0,1-1.51-.16,4.51,4.51,0,0,1-1.75-.56,5.23,5.23,0,0,0-2.07,3.66v-.56a5.16,5.16,0,0,1,2.07-4.13,3.49,3.49,0,0,0,1.75.56l.4.08Z"/><path d="M85.24,215.5h-.56c-.24-.32-.56-.56-.79-.87a5.09,5.09,0,0,1,6.28,3.66,7,7,0,0,1,.16,1.35v.48A5.1,5.1,0,0,0,85.24,215.5Z"/></g></svg>