<?xml version="1.0" encoding="utf-8"?>
<!-- Generator: Adobe Illustrator 21.1.0, SVG Export Plug-In . SVG Version: 6.00 Build 0)  -->
<svg version="1.1" id="Layer_1" xmlns="http://www.w3.org/2000/svg" xmlns:xlink="http://www.w3.org/1999/xlink" x="0px" y="0px"
	 viewBox="0 0 595.4 119.9" style="enable-background:new 0 0 595.4 119.9;" xml:space="preserve">
<style type="text/css">
	.st0{fill:#FFFFFF;}
	.st1{fill:#F9EFD0;}
	.st2{fill:#EF7C15;}
	.st3{fill:#17517E;}
</style>
<g>
	<g>
		<path class="st0" d="M169.8,41.1h-15.5v-3.8h35.2v3.8H174v41.5h-4.2V41.1z"/>
		<path class="st0" d="M210.6,37.3h4.2v45.3h-4.2V37.3z"/>
		<path class="st0" d="M240.8,37.3h6.3l16.5,38l16.5-38h6v45.3H282V42.7h-0.1l-17.3,39.9h-1.9l-17.5-39.9h-0.1v39.9h-4.2V37.3z"/>
		<path class="st0" d="M312.3,37.3H340v3.8h-23.5v16.1h22v3.8h-22v17.7H341v3.8h-28.7V37.3z"/>
		<path class="st0" d="M385.1,48.4c-0.8-1-1.9-1.8-3.3-2.3c-1.4-0.5-2.7-0.7-3.9-0.7c-0.7,0-1.5,0.1-2.2,0.3
			c-0.8,0.2-1.5,0.4-2.2,0.8c-0.7,0.4-1.2,0.8-1.7,1.4c-0.4,0.6-0.6,1.3-0.6,2.2c0,1.4,0.5,2.4,1.5,3.1c1,0.7,2.3,1.3,3.9,1.9
			c1.6,0.5,3.2,1,5,1.5c1.8,0.5,3.5,1.2,5,2.2c1.6,0.9,2.8,2.2,3.9,3.8c1,1.6,1.5,3.7,1.5,6.3c0,2.5-0.5,4.7-1.4,6.6
			c-0.9,1.9-2.2,3.4-3.8,4.7c-1.6,1.2-3.5,2.2-5.6,2.7c-2.1,0.6-4.3,0.9-6.7,0.9c-2.9,0-5.7-0.4-8.2-1.3c-2.5-0.9-4.9-2.3-7-4.3
			l7.1-7.8c1,1.4,2.3,2.4,3.9,3.2c1.6,0.8,3.2,1.1,4.8,1.1c0.8,0,1.6-0.1,2.5-0.3c0.8-0.2,1.6-0.5,2.2-0.9c0.7-0.4,1.2-0.9,1.6-1.5
			c0.4-0.6,0.6-1.3,0.6-2.1c0-1.4-0.5-2.4-1.6-3.2c-1-0.8-2.4-1.5-3.9-2c-1.6-0.6-3.3-1.1-5.1-1.7c-1.8-0.6-3.5-1.3-5.1-2.2
			c-1.6-0.9-2.9-2.2-3.9-3.7c-1-1.5-1.6-3.6-1.6-6.1c0-2.4,0.5-4.6,1.4-6.4c1-1.8,2.2-3.4,3.8-4.6c1.6-1.2,3.4-2.2,5.5-2.8
			c2.1-0.6,4.2-0.9,6.5-0.9c2.6,0,5,0.4,7.4,1.1c2.4,0.7,4.5,1.9,6.5,3.6L385.1,48.4z"/>
		<path class="st0" d="M436.6,49c-1-1.2-2.2-2.1-3.6-2.8c-1.4-0.6-3.1-1-5-1c-1.9,0-3.6,0.4-5.2,1.1c-1.6,0.7-3,1.7-4.2,3
			c-1.2,1.3-2.1,2.9-2.8,4.6c-0.7,1.8-1,3.7-1,5.8c0,2.1,0.3,4.1,1,5.9c0.7,1.8,1.6,3.3,2.7,4.6c1.2,1.3,2.5,2.3,4.1,3
			c1.6,0.7,3.2,1.1,5,1.1c2.1,0,3.9-0.4,5.4-1.3c1.6-0.9,2.9-2.1,3.9-3.6l8.3,6.2c-1.9,2.7-4.4,4.7-7.3,5.9c-2.9,1.3-6,1.9-9.1,1.9
			c-3.5,0-6.8-0.6-9.8-1.7c-3-1.1-5.6-2.7-7.7-4.8c-2.2-2.1-3.9-4.6-5.1-7.5c-1.2-2.9-1.8-6.2-1.8-9.9c0-3.6,0.6-6.9,1.8-9.9
			c1.2-2.9,2.9-5.5,5.1-7.5c2.2-2.1,4.8-3.7,7.7-4.8c3-1.1,6.3-1.7,9.8-1.7c1.3,0,2.6,0.1,4,0.4c1.4,0.2,2.8,0.6,4.1,1.1
			c1.3,0.5,2.6,1.2,3.9,2c1.2,0.9,2.3,1.9,3.3,3.1L436.6,49z"/>
		<path class="st0" d="M475.6,37.3h8.3l19.7,45.3h-11.3l-3.9-9.6h-17.6l-3.8,9.6h-11L475.6,37.3z M479.4,50.5l-5.5,14.1H485
			L479.4,50.5z"/>
		<path class="st0" d="M518.3,37.3h10v36.1h18.5v9.2h-28.5V37.3z"/>
		<path class="st0" d="M563.4,37.3h30.8v9.2h-20.8v8.5h19.7v9.2h-19.7v9.2h22v9.2h-31.9V37.3z"/>
	</g>
	<g>

			<ellipse transform="matrix(0.5361 -0.8442 0.8442 0.5361 -22.7884 78.397)" class="st1" cx="59.9" cy="59.9" rx="59.9" ry="59.9"/>
		<ellipse class="st2" cx="59.9" cy="59.1" rx="42.7" ry="42.7"/>
		<ellipse transform="matrix(0.38 -0.925 0.925 0.38 1.8209 105.1834)" class="st1" cx="79.4" cy="51.2" rx="12.2" ry="9.5"/>
		<ellipse class="st1" cx="60" cy="98.8" rx="12.2" ry="13.3"/>
		<ellipse transform="matrix(0.925 -0.38 0.38 0.925 -16.3998 19.381)" class="st1" cx="40.9" cy="51.2" rx="9.5" ry="12.2"/>
		<path id="path14_fill_156_" class="st3" d="M81.6,100.2c13.2-7.1,22.6-20.4,24.2-36.1l7.4,8.5c-4.1,16.8-16,30.5-31.5,37.3
			c0.1-1.3,0.2-2.8,0.2-4.5C81.9,103.6,81.8,101.9,81.6,100.2z M45,103.2c4.7,1.6,9.6,2.4,14.8,2.4c5.4,0,10.6-0.9,15.4-2.6
			c-1,4-2.6,7.6-4.6,10.3c-3.5,0.7-7.1,1.1-10.8,1.1c-3.5,0-6.9-0.3-10.2-0.9C47.7,110.7,46.1,107.2,45,103.2z M38.3,100.3
			c-13.4-7.1-22.9-20.6-24.4-36.4l-7.2,9.4C11,89.8,22.8,103.4,38.3,110c-0.2-1.4-0.2-2.9-0.2-4.7C38.1,103.6,38.2,101.9,38.3,100.3
			z M96.9,31.9l5.2-7.5C98.4,19.9,94,16,89.1,12.9L80.2,18C86.8,21.3,92.6,26,96.9,31.9z M31.2,12.6c-5.2,3.2-9.8,7.2-13.7,11.8
			l5.9,6.6c4.3-5.5,9.8-10,16.1-13L31.2,12.6z"/>
		<path class="st3" d="M29.5,59.1c0-13.8,9.2-25.5,21.9-29.2c0.6-1.6,1.3-3,2.1-4.1C37.8,28.8,26,42.6,26,59.1
			c0,11.7,5.9,22,14.9,28.1c0.4-1.2,0.8-2.3,1.3-3.4C34.5,78.4,29.5,69.3,29.5,59.1z"/>
		<g>
			<path class="st3" d="M35.5,48.9l2.6,0.7c2.3-5.4,6.5-9.7,11.8-12.2c0.1-1,0.2-2,0.3-3C43.5,37.1,38.2,42.3,35.5,48.9z"/>
			<path class="st3" d="M36.4,62.9h-2.7c1,7.1,4.8,13.3,10.3,17.4c0.4-0.8,0.9-1.5,1.4-2.2C40.7,74.4,37.4,69,36.4,62.9z"/>
		</g>
		<path class="st3" d="M81.9,49.7l2.6-0.7c-3.1-7.5-9.4-13.2-17.3-15.4c0.2,0.9,0.4,1.9,0.5,2.9C74,38.7,79.2,43.5,81.9,49.7z"/>
		<polygon class="st3" points="86.4,55.8 83.7,52.9 74.6,54.4 73.2,58.6 77.4,61.3 85,58.6 		"/>
		<polygon class="st3" points="33.8,55.8 36.6,52.9 45.7,54.4 47,58.6 42.9,61.3 35.2,58.6 		"/>
		<g>
			<path class="st3" d="M85.1,67.1c0.4-1.4,0.8-2.8,1-4.3h-2.7c-0.1,0.8-0.3,1.6-0.5,2.4C83.7,65.9,84.5,66.5,85.1,67.1z"/>
			<path class="st3" d="M76.7,76c-0.7,0.7-1.4,1.3-2.2,1.9c0.5,0.7,1,1.5,1.4,2.2c1.2-0.9,2.3-1.9,3.3-3
				C78.5,76.8,77.6,76.4,76.7,76z"/>
		</g>
		<g>
			<path class="st3" d="M90.4,59.1c0,4-0.8,7.8-2.1,11.2c1,1.2,1.8,2.4,2.3,3.5c2.1-4.4,3.3-9.4,3.3-14.7
				c0-17.5-13.3-31.9-30.3-33.8c0.8,1.1,1.6,2.4,2.2,3.9C79.8,32,90.4,44.3,90.4,59.1z"/>
			<path class="st3" d="M83.4,78.5c-1.6,2-3.5,3.7-5.6,5.2c0.5,1.1,0.9,2.2,1.3,3.4c3.2-2.2,6-4.9,8.2-8
				C86.3,79.1,84.9,78.9,83.4,78.5z"/>
		</g>
		<path class="st3" d="M62.8,55L62.8,55C62.8,55,62.8,54.9,62.8,55l-2.9-29.9h-2.7l-2.4,30l0,0c0,0.1,0,0.1,0,0.2
			c0,0.5,0.1,1,0.1,1.4c0,0.5,0.2,1,0.4,1.5c0.5,1.3,1.3,2.3,2.3,2.8c0.2,0.2,0.5,0.3,0.7,0.5c0.1,0,0.1,0.1,0.2,0.1l0,0L88.2,78
			l1.5-2.2L62.8,55z"/>
		<path class="st3" d="M66.6,95.8c-2.3,0-4.2-1.6-4.8-3.7l11-4.2l-2.6-6.5l-10.2,4.1l-10.2-4.1l-2.6,6.5l10.9,4.3
			c-0.6,2.1-2.5,3.6-4.8,3.6c-0.2,0-0.3,0-0.5,0l-2.2,3.1c0.8,0.3,1.7,0.4,2.7,0.4c2.8,0,5.2-1.3,6.7-3.3c1.6,2,4,3.3,6.7,3.3
			c1,0,2-0.2,2.9-0.5l-2.2-3C67.2,95.8,66.9,95.8,66.6,95.8z"/>
		<path class="st3" d="M94,33.4l-3.6,4.1c4.3,6.1,6.9,13.6,6.9,21.6c0,13.2-6.8,24.8-17.2,31.5c0.5,1.8,0.8,3.6,1.1,5.5
			c12.7-7.4,21.3-21.2,21.3-37C102.6,49.4,99.4,40.5,94,33.4z"/>
		<g>
			<path class="st3" d="M22.5,59.1c0-8.1,2.6-15.5,6.9-21.6l-3.6-4.1c-5.4,7.1-8.6,16-8.6,25.7c0,15.9,8.7,29.8,21.6,37.1
				c0.3-1.9,0.6-3.7,1.1-5.5C29.4,84.1,22.5,72.4,22.5,59.1z"/>
			<path class="st3" d="M59.9,16.3c-6.6,0-12.8,1.5-18.3,4.1l2.6,4.6c4.8-2.2,10.1-3.5,15.7-3.5c5.6,0,10.9,1.2,15.7,3.4l2.6-4.6
				C72.7,17.8,66.5,16.3,59.9,16.3z"/>
		</g>
	</g>
</g>
</svg>
