<?xml version="1.0" encoding="UTF-8"?>
<svg width="60px" height="54px" viewBox="0 0 60 54" version="1.1" xmlns="http://www.w3.org/2000/svg" xmlns:xlink="http://www.w3.org/1999/xlink">
    <!-- Generator: Sketch 43.2 (39069) - http://www.bohemiancoding.com/sketch -->
    <title>logo</title>
    <desc>Created with Sketch.</desc>
    <defs></defs>
    <g id="blog" stroke="none" stroke-width="1" fill="none" fill-rule="evenodd">
        <g id="article" transform="translate(-40.000000, -40.000000)" fill="#FFFFFF">
            <g id="hero">
                <g id="logo" transform="translate(40.000000, 40.000000)">
                    <path d="M21.7047344,26.6469362 L29.1601267,19.0456031 L36.5520384,26.5085127 C34.3724803,27.9128179 31.7888623,28.725733 29.0187614,28.725733 C26.3409786,28.725733 23.837456,27.9660984 21.7047344,26.6469362 Z M16.0459111,20.0144212 C15.3159989,18.2798542 14.9118674,16.3694117 14.9118674,14.3628665 C14.9118674,6.43047398 21.2277386,0 29.0187614,0 C36.8097842,0 43.1256554,6.43047398 43.1256554,14.3628665 C43.1256554,16.2726274 42.7595696,18.0953328 42.0949495,19.7622057 L32.7516166,10.4449549 C30.7761202,8.47497317 27.5552886,8.47282184 25.5756204,10.4580323 L16.0459111,20.0144212 Z" id="icon"></path>
                    <path d="M5.67455838,41.2431025 L5.67455838,36.7187265 L0.157259802,36.7187265 L0.157259802,41.2431025 L5.67455838,41.2431025 Z M5.67455838,41.9568516 L5.67455838,53.2896006 L0.157259802,53.2896006 L0.157259802,41.9568516 L5.67455838,41.9568516 Z M7.6079707,36.7187265 L12.7715963,36.7187265 L18.6425679,44.0335838 L18.6425679,36.7187265 L24.11271,36.7187265 L24.11271,53.2896006 L19.2084446,53.2896006 L13.0781129,45.6433258 L13.0781129,53.2896006 L7.6079707,53.2896006 L7.6079707,36.7187265 Z M34.180601,53.6446907 C33.0331229,53.6446907 31.944607,53.4395296 30.9150205,53.0292011 C29.885434,52.6188726 28.9776824,52.0349524 28.1917385,51.277423 C27.4057946,50.5198935 26.7809786,49.61245 26.3172717,48.5550651 C25.8535648,47.4976802 25.6217148,46.3298399 25.6217148,45.0515089 L25.6217148,45.0041635 C25.6217148,43.7731782 25.8457054,42.6290102 26.2936935,41.5716253 C26.7416815,40.5142405 27.3625678,39.5989061 28.1563712,38.8255948 C28.9501745,38.0522835 29.8815041,37.4486362 30.9503878,37.014635 C32.0192715,36.5806337 33.1667323,36.3636364 34.3928048,36.3636364 C35.3044997,36.3636364 36.1415174,36.4701623 36.903883,36.6832175 C37.6662486,36.8962727 38.3578689,37.1921782 38.9787645,37.5709429 C39.5996602,37.9497076 40.1498127,38.4034294 40.6292385,38.9321218 C41.1086643,39.4608143 41.5212786,40.0407891 41.8670939,40.6720636 L37.3165015,43.3470761 C37.0021239,42.7473653 36.6130876,42.2620803 36.1493807,41.8912065 C35.6856738,41.5203327 35.0765764,41.3348986 34.3220702,41.3348986 C33.8505039,41.3348986 33.4261006,41.4295883 33.0488475,41.6189707 C32.6715944,41.8083531 32.3493622,42.0687499 32.0821413,42.400169 C31.8149204,42.7315882 31.6066484,43.118238 31.457319,43.5601302 C31.3079897,44.0020224 31.2333262,44.4675804 31.2333262,44.9568182 L31.2333262,45.0041635 C31.2333262,45.5407469 31.3079897,46.0339227 31.457319,46.4837059 C31.6066484,46.933489 31.8188501,47.3201388 32.0939304,47.643667 C32.3690108,47.9671952 32.6951726,48.2197013 33.0724257,48.4011927 C33.4496787,48.5826841 33.8662228,48.6734285 34.3220702,48.6734285 C35.1080141,48.6734285 35.7367598,48.4801036 36.2083262,48.0934479 C36.6798925,47.7067922 37.0885772,47.2057256 37.4343925,46.5902329 L41.9849849,49.1705547 C41.6391696,49.7860474 41.2304849,50.3660222 40.7589186,50.9104965 C40.2873522,51.4549708 39.7332701,51.9284196 39.0966555,52.3308571 C38.460041,52.7332946 37.7369834,53.0528726 36.9274612,53.2896006 C36.117939,53.5263285 35.2023281,53.6446907 34.180601,53.6446907 Z M43.0460039,36.7187265 L48.5633025,36.7187265 L48.5633025,42.5658778 L53.6090371,42.5658778 L53.6090371,36.7187265 L59.1263356,36.7187265 L59.1263356,53.2896006 L53.6090371,53.2896006 L53.6090371,47.3477586 L48.5633025,47.3477586 L48.5633025,53.2896006 L43.0460039,53.2896006 L43.0460039,36.7187265 Z" id="INCH"></path>
                </g>
            </g>
        </g>
    </g>
</svg>