<svg width="312" height="300" viewBox="0 0 312 300" fill="none" xmlns="http://www.w3.org/2000/svg">
<path d="M84.6481 52.7036C96.3885 42.3382 108.098 36.7379 119.297 33.5941C185.73 14.9459 256.595 45.6509 280.677 110.161C295.057 148.681 288.853 189.56 267.577 221.13C266.745 222.458 265.473 223.072 264.509 223.307C263.574 223.535 262.74 223.474 262.236 223.408C261.203 223.273 260.155 222.917 259.276 222.571C257.428 221.845 255.036 220.637 252.287 219.113C246.731 216.032 239.086 211.305 230.123 205.469C212.169 193.778 188.636 177.447 165.341 160.438C142.53 143.782 120.359 125.446 101.992 110.161C104.591 112.872 107.237 115.631 109.92 118.426L109.922 118.429L109.926 118.433L109.927 118.434L109.927 118.434C123.839 132.934 138.716 148.44 152.954 163.606C174 186.023 193.799 207.853 207.182 224.79C213.842 233.22 219.091 240.657 222.08 246.456C223.548 249.305 224.683 252.153 224.962 254.733C225.254 257.431 224.627 260.855 221.284 262.766C215.652 265.986 208.306 268.497 202.593 270.174C199.693 271.026 197.127 271.688 195.283 272.137C194.36 272.362 193.615 272.534 193.097 272.652C192.838 272.71 192.635 272.755 192.494 272.786L192.419 272.802L192.331 272.821L192.286 272.831L192.273 272.833L192.269 272.834L192.267 272.835C192.267 272.835 192.267 272.835 192.23 272.67L192.229 272.67L192.266 272.835C191.867 272.919 191.469 272.95 191.079 272.932C130.043 286.553 66.5182 253.511 44.3078 194.015C32.8136 163.225 34.4706 130.918 46.4687 103.071C47.4608 100.768 50.1691 99.7061 52.5178 100.699C54.8665 101.692 55.9662 104.363 54.9741 106.666C43.8516 132.481 42.3193 162.404 52.9724 190.941C60.5616 211.271 73.3576 228.268 89.3242 240.994C89.8337 241.139 90.3269 241.374 90.7803 241.701C92.826 243.178 96.6424 244.977 101.839 246.665C106.942 248.323 113.061 249.771 119.484 250.69C132.564 252.56 145.93 252.092 154.653 247.691C158.862 245.567 161.836 242.614 163.389 238.618C164.968 234.558 165.292 228.869 163.084 220.935C158.62 204.898 144.224 181.161 113.343 147.046L113.221 146.912L113.11 146.768C106.116 137.7 91.8443 121.697 76.6775 104.691L76.677 104.69L76.4982 104.49C75.3037 103.15 74.1038 101.805 72.9016 100.456C56.5089 82.0663 39.6992 63.0911 31.0813 51.5514C30.6552 50.9808 30.3834 50.346 30.2584 49.6954C30.2525 49.6697 30.2468 49.6437 30.2413 49.6173C30.2372 49.5982 30.2333 49.5789 30.2294 49.5594C30.1318 49.0646 30.0385 48.164 30.4114 47.1329C31.3907 44.4249 34.0001 44.1174 34.7389 44.1087C35.5473 44.0993 36.1774 44.2995 36.3717 44.362C36.4521 44.3879 36.5289 44.4146 36.6014 44.4413C37.1828 44.5543 37.7523 44.7796 38.2773 45.1238C45.6189 49.9366 58.7691 59.7453 74.9159 71.7892C86.198 80.2045 98.9431 89.711 112.192 99.367C144.675 123.041 180.365 147.757 206.455 160.817C227.407 171.306 241.173 171.922 249.965 168.271C258.662 164.66 263.998 156.228 266.517 144.966C269.027 133.749 268.517 120.536 266.218 109.014C265.074 103.276 263.509 98.0734 261.729 93.8513C259.911 89.5387 257.758 86.9975 256.47 85.0542C255.969 84.182 255.645 83.6024 255.136 82.9483C225.184 44.4822 172.463 28.1318 121.892 42.3274C111.933 45.1232 101.479 50.0915 90.8441 59.4809C88.9538 61.1498 86.0344 60.9856 84.3234 59.1141C82.6124 57.2425 82.7578 54.3725 84.6481 52.7036Z" fill="white"/>
</svg>
